<svg fill="none" height="73" viewBox="0 0 69 73" width="69" xmlns="http://www.w3.org/2000/svg"><g fill="#fff"><path d="m52.3996 72.8197c-.3672-.0043-.722-.1329-1.0066-.3649l-.6795-.0629h-.1762l-1.057-.2265-1.3841-.1258h-.1384l-3.0073-.5537-2.3153-.0881-1.7616.2517c-.0919.0129-.185.0129-.2769 0h-.7172c-.1378.0004-.2744-.0252-.4026-.0755l-1.7239-.5788c-.3043-.0994-.5717-.2879-.7676-.5411l-.4781-.604-.8179-.5662h-21.4415l-.6165.1258c-.2345.0475-.4767.0404-.708-.0207s-.4454-.1746-.6258-.3316l-.9689-.8808-.9438-.3397c-.3333-.1167-.61719-.3429-.80527-.6418l-.151-.1258-1.87487.0377-.33974.1259-.75498.692c-.10886.0944-.23203.1708-.36491.2265l-.56623.2643c-.22841.1002-.47711.1456-.72619.1325-.24909-.0131-.49165-.0844-.70827-.208l-.18875.1384c-.0849.0661-.17793.1211-.27683.1636l-1.1073.541c-.24102.1134-.50655.1647-.77246.1493-.2659-.0153-.52375-.0969-.750084-.2373-.226803-.1411-.413967-.3375-.543852-.5708-.129885-.2334-.198213-.496-.198546-.763v-.4027l-.25165988-1.7365c-.00527749-.0712-.00527749-.1427 0-.2139v-1.0066c.00048371-.408.15822088-.8001.44040488-1.0947v-1.3464s0-.1258 0-.2013l.138413-1.0318c.042667-.3362.192718-.6495.427824-.8934l.45299-.4656.50332-1.7491c.0281-.0859.06173-.17.10066-.2516l.28941-.5914.16358-.906c-.01179-.1213-.01179-.2435 0-.3649l.22649-.6291.13842-.906c.02015-.1209.05392-.2391.10066-.3523l.17616-.4279.151-.7801c.02441-.1254.06238-.2478.11325-.3649l.57881-1.2583v-.3398c-.00342-.3783.13073-.745.37749-1.0318v-.1132c.01668-.165.05914-.3264.12584-.4782l.57881-1.2583c.11379-.2584.29666-.4805.52849-.6417l.8179-.604.08808-.6543c.03292-.2759.13893-.538.30705-.7592s.39226-.3935.64925-.4991l1.58546-.6543 1.00668-.8934.302-.4782.3019-.6795.214-1.0569v-1.2583c-.0087-.1348-.0002-.2701.0251-.4027l.1384-.4907-.0755-1.0192c-.0211-.3569.0763-.7108.2769-1.0067l-.1007-.4152-.755-.5788c-.2137-.1623-.3791-.3798-.47813-.6292l-.33974-.8934-.36491-.4404c-.10696-.1256-.1882-.2709-.23908-.4278l-.52848-1.3338s0-.1258 0-.1888l-.72982-2.6424c-.01911-.1293-.01911-.2607 0-.3901v-.541c.00179-.3401.11199-.6707.31458-.9438l.4404-.5914c.06183-.0952.13826-.1801.2265-.2516l.11324-.1259v-.5284l-.21391-.6921-.4404-.5788c-.10417-.1414-.18489-.2986-.23908-.4656l-1.06956-3.1961v-.151l-.33974-1.2583-1.1073-1.3464-.12583-.1887-.44041-.7046-.52848-.6292-.10067-.151-.30199-.5159c-.17608-.3044-.25098-.6569-.21391-1.0066v-.2517c.02412-.1938.08384-.3815.17616-.5537l.13841-.239c.16495-.3058.42579-.549.7424-.6921l.52849-.2265.20133-.0755 1.6232-.453 1.13247-.5033h.151l1.34638-.4404c.15888-.0496.32428-.0751.49078-.0755h.7046l.5537-.0755h.2265 2.202l1.9629-.1384c.1795-.0247.3616-.0247.5411 0l.453.1384h1.4974l1.0695-.151c.0877-.0126.1766-.0126.2643 0h1.2583l2.957-.1007h.2265l1.5351.1259c.2108.0098.417.0656.604.1636l.2013.1006c.1763.0973.334.2251.4656.3775.2733-.0004.5419.0715.7783.2086.2365.137.4325.3342.5681.5716l.4404.7423c.0761.1199.1314.2518.1635.3901l.4404 1.6484c.0059.0796.0059.1595 0 .2391l.1385.9563.6039.9311c.1114.1678.1884.356.2265.5537l.2014.9563.8053.7801c.0483.0399.0907.0865.1258.1384l1.6232 1.9756.5914.1887h.7298l1.7617-.5285.3523.0252 1.2583-.2265c.1336-.0186.2691-.0186.4026 0l1.6736.1258h.39v-.39c.0178-.3674.1597-.7179.4027-.9941l.1007-.1007.1006-.2894.1007-.8179c-.0119-.1087-.0119-.2184 0-.3271l.2265-.6795c.1045-.3122.3036-.5842.5697-.7781.266-.1939.5859-.3002.9151-.304h3.0325c.1463-.1728.3299-.3101.537-.4016.207-.0915.4321-.1349.6584-.1269h2.2146c.2135.0066.4236.0556.6181.1441.1944.0886.3693.215.5144.3718.1438.1575.2546.3421.3259.5431s.1017.4142.0893.6271v.2391h2.9318c.2466.0019.4891.0622.7078.1759.2188.1137.4074.2777.5505.4784l.2517.3523c.0662.1005.125.2057.1762.3146l.2894.7172c.0627.1524.101.3138.1132.4782l.2014 2.7179.1887.9311c.0055.0964.0055.1931 0 .2895v1.1953l.2265 1.3213c.0124.1213.0124.2435 0 .3649v.5033c-.0026.12-.0238.2388-.0629.3523l-.2139.7298v.7047l.0755.2894.7424 1.057c.0845.1292.1521.2688.2013.4152l.5536 1.7113.5537 1.3464c.1274.2751.1627.584.1007.8808v.2642h4.3411l.755-.2768c.2749-.112.5763-.1426.8682-.0881h.2642l.3398-.2139c.2558-.1628.5524-.25.8556-.2517h.1888c.362-.0004.7131.124.994.3524l.2769.2139c.2638.2125.4533.5033.541.8305l.0881.3774c.1057.3838.0606.7934-.1258 1.1451.0248.1626.0248.3281 0 .4907v.4027c-.0097.1296-.0394.257-.0881.3775l-.1007.302-.0629.8934c.0122.0876.0122.1766 0 .2642l-.1887.8053.1006 1.0192c.0126.0835.0126.1683 0 .2517v1.1199c-.0042.1466-.034.2914-.088.4278l-.1636.4908v.4026l.2642.0881c.3505.1225.6463.365.8352.6846.1889.3197.2586.6958.1968 1.0619-.0617.3661-.251.6985-.5343.9385-.2833.2399-.6423.3719-1.0136.3727h-9.7518v15.0996l.0881.0629c.1748.1391.3167.3153.4152.5159l.1258.2265.8053.4781c.1269.0742.2415.1676.3398.2769l.5285.5536.8179.6166.1887.1761.1762.1888.5914.2768c.2396.1102.4443.2844.5914.5033l.1636.2265.4655.2391c.2363.1258.4366.3098.5819.5346.1454.2249.2309.4831.2485.7502.0177.2671-.0332.5343-.1477.7763-.1144.242-.2888.4507-.5065.6065l-.2391.1762c-.1647.114-.3477.1991-.5411.2516l-1.0192.2517-7.0716 1.8245h-.1762l-.843.1007zm-1.2583-3.561 1.0947.1007c.2506.0222.4923.1042.7047.2391h.0755l5.0332-1.2583-.7298-.5537-.1888-.1636-.4656-.5033-1.0066-.5914c-.2546-.1471-.4603-.3659-.5914-.6291l-.1762-.3146-.4152-.3272c-.1893-.1504-.342-.3417-.4466-.5597-.1046-.2179-.1584-.4568-.1574-.6986v-17.3897c0-.4171.1657-.8172.4607-1.1122.295-.2949.695-.4607 1.1122-.4607h8.2922v-.7801c.0111-.154.0407-.3061.0881-.453l.1761-.4907v-.7802l-.1132-1.1576c-.0374-.1742-.0374-.3543 0-.5285l.2265-.9311v-.9815c.0068-.1411.0322-.2808.0755-.4153-.1152-.0087-.2291-.0298-.3398-.0629l-.2265-.0629-.541.2013c-.1731.0649-.3562.099-.5411.1007h-3.9007l-.2517.4782c-.1574.2875-.3989.5202-.6921.6669l-.239.1258c-.3164.1538-.675.1981-1.0193.1258l-.5913-.1132c-.3449-.0717-.6553-.258-.8809-.5285l-.151-.1762c-.2439-.068-.4682-.1931-.6543-.3649l-.0503-.1006c-.1374-.1265-.2523-.2755-.3397-.4405l-.1259-.2642c-.1042-.1909-.1671-.4016-.1844-.6184-.0174-.2168.0112-.4349.0838-.6399l.0629-.1887c.0747-.2358.2091-.4481.39-.6166l.9815-.9941-.3775-.8934c.005-.0418.005-.084 0-.1258l-.4907-1.5603-.8682-1.0318c-.1095-.1519-.1905-.3225-.2391-.5033l-.151-.755c-.0185-.142-.0185-.2858 0-.4278v-1.1325c-.0182-.1378-.0182-.2774 0-.4152l.2391-.8808-.2139-1.2583c-.0124-.0877-.0124-.1766 0-.2643v-1.1702l-.1636-.8682c-.0061-.0586-.0061-.1176 0-.1762l-.1888-2.4285h-3.6113c-.2131-.0021-.4236-.0478-.6183-.1344-.1948-.0866-.3698-.2121-.5142-.3689-.2652-.2883-.4132-.6653-.4152-1.057-.2115.1044-.4436.1603-.6795.1636h-2.7682v.302c-.0118.1199-.0372.2381-.0755.3523l-.2643.7424c-.0587.1637-.1437.3167-.2516.453v.0755c.006.1089.006.2182 0 .3271l-.3146 1.2583c-.0842.3405-.2798.6431-.5556.8597-.2759.2166-.6162.3347-.967.3357h-1.7616l-1.5854-.1258-.9438.1762-1.8874.5662c-.1505.0183-.3026.0183-.453 0h-1.2583c-.1624.0005-.3238-.025-.4782-.0755l-1.2583-.4152c-.2839-.0926-.5337-.2678-.7172-.5034l-1.8623-2.2523-1.0947-1.057c-.2252-.2225-.3786-.5074-.4404-.8179l-.2391-1.145-.5159-.7928c-.0467-.0727-.0887-.1484-.1258-.2265l-.2013-.453c-.061-.1494-.1032-.3058-.1259-.4655l-.1006-.9689-.2769-1.0318c-.2122-.0247-.417-.0934-.6011-.2017-.1842-.1084-.3437-.2539-.4684-.4275l-.1133-.151-.8304-.0629-2.9193.2139c-.0544.0063-.1092.0063-.1636 0h-1.1954l-1.0569.151h-.2391-1.8371c-.1379.0182-.2775.0182-.4153 0l-.3775-.1132-1.7993.1258h-2.2147l-.6039-.151h-.8305l-1.0444.3397-1.14506.4782-.20132.0755-.62916.1762.39008.6165 1.1828 1.4471c.09858.1174.17915.2489.23908.39l.27682.6544c.03501.0861.06443.1743.08809.2642l.20132.9563.95635 2.9696.4655.604c.1158.1498.2012.3208.2517.5033l.3649 1.2583c.0394.1479.0605.3.0629.453v1.3338c.0002.2245-.048.4463-.1414.6505-.0934.2041-.2297.3857-.3997.5323l-.5662.5033.5662 2.2146.3901 1.0193.3523.4278c.0873.1139.1631.2362.2265.3649l.2769.6543.8682.6669c.2829.2157.4829.5223.5662.8682l.4153 1.6484c.049.2149.0531.4376.012.6541-.0411.2166-.1266.4223-.2511.6042l-.1258.1636v.7424c.0248.1795.0248.3615 0 .541l-.1636.5411v1.2583c.0124.1129.0124.2269 0 .3398l-.302 1.3715c-.0222.1041-.0559.2054-.1007.302l-.4026.9311c-.0286.0655-.0623.1286-.1007.1888l-.4404.7172c-.0642.0976-.1357.1901-.2139.2768l-1.2583 1.2583c-.149.1539-.3292.2741-.5285.3524l-1.04439.4278v.2642c-.04669.325-.19157.6279-.41524.8683l-.55365.5788-.23908.2013-.50332.3523-.32716.6543v.3146c-.03093.2978-.14422.581-.32716.8179v.1133c.00075.2268-.05093.4507-.15099.6543l-.64173 1.3841-.13842.7298c-.02182.0986-.05127.1954-.08808.2894l-.16358.4027-.12583.8808-.0755.2894-.21391.604-.11324.9941c-.02512.1783-.07598.3521-.151.5159l-.35232.7172-.62916 2.0007c-.07552.2435-.20449.467-.37749.6543l-.3649.3523v.4153 2.5166c.01238.096.01238.1933 0 .2894.40445-.1052.83405-.0464 1.19538.1636l.11325.0629.56624-.4782c.13801-.1185.29554-.2121.46557-.2768l.85564-.302c.16438-.0648.33923-.0989.51591-.1007h2.16427.26425l.90594.1259c.2233.0339.4366.1156.6255.2393.1889.1238.349.2868.4693.4779l.1761.2642.7172.2517c.1808.0639.3474.1622.4908.2894l.6795.5788h.3145 22.0706c.3185.0027.6292.0989.8934.2769l1.4219.9814c.1347.0889.2538.1994.3523.3272l.3272.4152.994.3146h.365l1.749-.2517h.2768l2.5166.0881h.2265l3.0577.5788 1.3967.1259h.1762z"/><path d="m4.26945 9.8798c-.35221.00029-.694-.11955-.96889-.33975l-.78015-.60398c-.26562-.2055-.45585-.49305-.54107-.8179l-.13841-.5914c-.03107-.17479-.03107-.35369 0-.52848v-.61657l-.10067-.44041-.11324-.10066c-.17349-.15932-.31053-.35423-.40174-.5714s-.13445-.45148-.12675-.6869c.00775-.2481.07319-.49099.19114-.7094.11794-.21841.28514-.40634.48834-.5489l1.2583-.8934.20133-.12583.54107-.22649.37749-.76756c.15884-.312056.41505-.563845.72982-.717234l.98147-.465572c.199-.0844447.41297-.127964.62915-.127964s.43015.0435193.62915.127964l.84306.314576c.37367.144149.67621.428627.84306.79273l.46558.91856c.09341.20771.14171.43286.14171.66061 0 .22774-.0483.4529-.14171.6606-.08918.21188-.22479.40103-.39685.55348-.17205.15245-.37614.26431-.59721.32733h-.08808l-.54107.3775-.45299.41523-.22649.78015-.21392 1.1828v.94373c-.01663.29321-.11503.5759-.28404.81608-.16901.24017-.40189.42823-.67226.54288l-.88082.36491c-.20786.08195-.43143.11635-.65431.10067z"/></g></svg>