<svg fill="none" height="73" viewBox="0 0 69 73" width="69" xmlns="http://www.w3.org/2000/svg"><g fill="#fff"><path d="m55.7333 6.07574c.9007 0 1.7812.26715 2.53.76764.7489.5005 1.3325 1.21186 1.677 2.0441.3445.83223.4344 1.74792.2584 2.63132-.176.8833-.6101 1.6946-1.2473 2.3312-.6372.6367-1.4489 1.07-2.3324 1.2452s-1.7991.0845-2.631-.2608c-.832-.3452-1.5428-.9295-2.0426-1.6788s-.7662-1.63-.7654-2.5307c.0022-1.20659.4827-2.36303 1.3363-3.2158.8535-.85278 2.0104-1.33227 3.217-1.33336zm0 12.13786c1.5009 0 2.9681-.4451 4.216-1.2789 1.248-.8339 2.2206-2.0191 2.795-3.4058.5744-1.3866.7247-2.9125.4319-4.38453-.2929-1.47207-1.0156-2.82425-2.0769-3.88555s-2.4135-1.78406-3.8856-2.07687c-1.472-.29281-2.9979-.14253-4.3845.43184-1.3867.57438-2.5719 1.54704-3.4057 2.795-.8339 1.24796-1.279 2.71516-1.279 4.21611.0022 2.0119.8024 3.9409 2.2251 5.3636s3.3517 2.2229 5.3637 2.2251z"/><path d="m68.9444 43.4435-1.9455-15.5477c-.2303-1.8336-1.1214-3.5203-2.5063-4.744-1.3849-1.2236-3.1686-1.9002-5.0166-1.9028h-7.4942c-.8614.0021-1.7159.1538-2.5254.4484-.3621.1468-.6536.4276-.8139.7839s-.1769.7607-.0466 1.129c.1304.3683.3978.6722.7465.8483.3488.1762.752.211 1.1258.0974.4854-.1762.9973-.268 1.5136-.2715h7.4942c1.1102-.0007 2.1825.4038 3.0155 1.1376.8331.7339 1.3696 1.7466 1.5089 2.848l1.9414 15.5477c.0282.2134.0103.4304-.0523.6364s-.1686.3962-.3108.5579-.3173.2911-.5136.3795-.4093.1338-.6246.1331h-1.1146c-.3836-.0009-.7533.1438-1.0343.4049-.2809.2611-.4523.6192-.4794 1.0018l-1.419 19.8335h-9.3204l-1.0899-15.2844c-.01-.2018-.0602-.3995-.1475-.5816-.0874-.1822-.2103-.345-.3615-.4791-.1511-.134-.3275-.2365-.5188-.3015s-.3936-.0911-.5951-.0769c-.2015.0143-.3982.0686-.5784.1598-.1803.0913-.3405.2175-.4713.3715s-.2295.3325-.2904.5251c-.061.1926-.0828.3954-.0643.5966l1.1928 16.6911c.0289.3823.2007.7397.4812 1.0011.2804.2614.649.4077 1.0324.4097h12.1379c.3828-.0001.7515-.1453 1.0316-.4063s.4508-.6185.4779-1.0004l1.419-19.85c.6186-.0417 1.2223-.2092 1.7739-.4923.5516-.283 1.0397-.6757 1.4344-1.1539.3946-.4782.6876-1.0319.8608-1.6272.1733-.5953.2233-1.2198.1469-1.8351"/><path d="m20.5993 50.4186c-.1993-.0163-.3999.0076-.5898.0702-.19.0625-.3655.1625-.5161.294-.1507.1315-.2735.2919-.3612.4716-.0877.1798-.1385.3753-.1493.575l-1.0694 14.9347h-9.31628l-1.41081-19.8335c-.03095-.3826-.20461-.7396-.48652-1.0002-.2819-.2606-.65145-.4056-1.03533-.4065h-1.11055c-.21524 0-.42801-.0459-.62418-.1345s-.37125-.2179-.51362-.3793-.24878-.3513-.31216-.557-.08228-.4225-.05544-.6361l1.94551-15.5476c.13842-1.1018.67472-2.115 1.50797-2.8491.83325-.734 1.90602-1.1382 3.01647-1.1366h7.48174c.3868.0071.7711.0638 1.1435.1687.1928.051.3938.0636.5915.037.1977-.0267.3882-.092.5606-.1923.1725-.1002.3235-.2335.4444-.3921.121-.1586.2095-.3395.2606-.5323.051-.1928.0636-.3938.0369-.5915-.0266-.1977-.0919-.3882-.1922-.5607-.1002-.1724-.2335-.3234-.3921-.4444-.1586-.1209-.3395-.2094-.5323-.2605-.6241-.175-1.2686-.2663-1.9167-.2715h-7.49828c-1.84781.0035-3.63099.6804-5.01573 1.9039-1.38473 1.2234-2.27609 2.9097-2.50718 4.743l-1.9496272 15.5476c-.0751882.615-.02418723 1.2388.1498862 1.8335.174074.5946.467564 1.1475.862541 1.6248.39497.4774.88313.8692 1.43464 1.1515.55152.2823 1.15481.4492 1.773.4905l1.41903 19.8376c.02706.383.19827.7415.47914 1.0033.28088.2618.65053.4074 1.03449.4075h12.14609c.3837-.0011.7528-.147 1.0335-.4086.2806-.2616.4521-.6196.4801-1.0022l1.1681-16.3456c.0272-.4005-.1049-.7955-.3676-1.0991-.2627-.3035-.6347-.4909-1.0349-.5215"/><path d="m13.2528 6.07574c.9007 0 1.7812.26715 2.5301.76764.7488.5005 1.3324 1.21186 1.6769 2.0441.3445.83223.4344 1.74792.2584 2.63132-.176.8833-.6101 1.6946-1.2473 2.3312-.6371.6367-1.4488 1.07-2.3323 1.2452-.8836.1752-1.7992.0845-2.6311-.2608-.8319-.3452-1.54277-.9295-2.04259-1.6788s-.76617-1.63-.76536-2.5307c.00218-1.20659.48272-2.36303 1.33625-3.2158.8536-.85278 2.0104-1.33227 3.217-1.33336zm0 12.13786c1.5009 0 2.9681-.4451 4.2161-1.2789 1.2479-.8339 2.2206-2.0191 2.795-3.4058.5743-1.3866.7246-2.9125.4318-4.38453-.2928-1.47207-1.0156-2.82425-2.0769-3.88555s-2.4135-1.78406-3.8855-2.07687c-1.4721-.29281-2.9979-.14253-4.3846.43184-1.38665.57438-2.57185 1.54704-3.40571 2.795s-1.27893 2.71516-1.27893 4.21611c.00218 2.0119.8024 3.9409 2.22509 5.3636s3.35165 2.2229 5.36365 2.2251z"/><path d="m44.3442 45.1988c-.1384.1601-.3086.2897-.4998.3803-.1912.0907-.3992.1404-.6108.1462h-1.1558c-.3826-.0001-.7511.1443-1.0318.4044s-.4528.6166-.4818.9981l-1.674 22.6675h-9.3163l-1.6699-22.6675c-.03-.3812-.2023-.7371-.4828-.997s-.6485-.4047-1.0308-.4055h-1.1517c-.2122-.0055-.4209-.0551-.6129-.1457-.1919-.0907-.3628-.2204-.5018-.3808-.1928-.2245-.3364-.4869-.4214-.7703s-.1096-.5815-.0721-.875l2.0072-17.6371c.3084-2.6694 2.3321-4.6766 4.7259-4.6766h7.741c2.3897 0 4.4175 2.0072 4.7259 4.6766l2.0031 17.6289c.0356.2937.0098.5917-.0759.8749-.0857.2833-.2293.5456-.4218.7703zm3.5002-2.0031-2.0154-17.6207c-.473-4.2036-3.8046-7.3748-7.7327-7.3748h-7.7409c-3.9239.0082-7.2514 3.1918-7.7327 7.3831l-2.0113 17.6083c-.0866.7182-.0215 1.4466.191 2.1381.2126.6915.5679 1.3307 1.043 1.8763.3921.4492.8697.8159 1.405 1.0786.5352.2627 1.1175.4161 1.7127.4515l1.6782 22.6756c.0261.3823.1966.7403.4769 1.0015.2803.2613.6494.4061 1.0326.4052h12.1584c.3836.001.7532-.1437 1.0342-.4048.281-.2612.4523-.6192.4794-1.0019l1.6741-22.6756c.5954-.0345 1.1779-.1875 1.7133-.4503s1.0129-.6299 1.4044-1.0798c.4766-.5446.8329-1.1837 1.0456-1.8755.2126-.6918.2768-1.4206.1884-2.1389"/><path d="m34.2311 3.0396c.9009-.00081 1.7818.26565 2.5312.76565s1.3336 1.21108 1.6788 2.04324c.3451.83216.4356 1.74801.26 2.63163-.1755.88362-.6092 1.69528-1.2463 2.33238-.637.637-1.4487 1.0707-2.3323 1.2463-.8836.1755-1.7995.085-2.6316-.2601-.8322-.3451-1.5433-.9294-2.0433-1.6788-.5-.74939-.7664-1.63028-.7656-2.53118.0021-1.20583.4821-2.36165 1.3348-3.21431.8526-.85265 2.0085-1.33263 3.2143-1.33481zm0 12.1378c1.5011.0009 2.9687-.4435 4.2172-1.2769 1.2485-.8333 2.2218-2.0183 2.7968-3.4048.575-1.38663.7259-2.9126.4335-4.38494-.2923-1.47234-1.0148-2.8249-2.0759-3.88662-1.0611-1.06171-2.4133-1.784874-3.8855-2.07802s-2.9982-.14310461-4.3851.431147c-1.3869.574253-2.5724 1.546913-3.4064 2.794963s-1.2792 2.71541-1.2792 4.21649c.0032 2.01095.8033 3.93868 2.2248 5.36098 1.4216 1.4223 3.3489 2.2234 5.3598 2.2277z"/></g></svg>