<svg fill="none" height="73" viewBox="0 0 65 73" width="65" xmlns="http://www.w3.org/2000/svg"><g fill="#fff"><path d="m1.21338 72.82h62.01922c.3218 0 .6304-.1278.858-.3554.2275-.2275.3554-.5362.3554-.858v-70.39322c0-.321807-.1279-.630435-.3554-.857989-.2276-.227553-.5362-.355391-.858-.355391h-41.3234c-.3218 0-.6304.127838-.858.355391-.2275.227554-.3554.536182-.3554.857989v14.16752h-19.48242c-.318868 0-.624934.1255-.852003.3493-.227068.2239-.35688588.5282-.361377.847v55.0294c0 .3218.127838.6305.355391.858.227554.2276.536182.3554.857989.3554zm27.15582-2.4268h-12.4927v-8.0835h12.4927zm33.7184-52.6026v12.5098h-18.2691v-12.5098zm-18.2691 14.9365h18.2691v10.1514h-18.2691zm0 12.5782h18.2691v10.1685h-18.2691zm0 25.0879v-12.4927h18.2691v12.4927zm-20.6959-67.96644h38.965v12.95414h-38.965zm-20.69584 15.38094h38.96494v52.5855h-10.6299v-9.2969c.0023-.1599-.0275-.3188-.0877-.467-.0601-.1483-.1494-.2829-.2626-.3961-.1131-.1131-.2478-.2024-.396-.2626-.1483-.0601-.3071-.0899-.4671-.0876h-14.8853c-.1608-.0023-.3204.0274-.4696.0874-.1492.0599-.2849.1489-.3994.2618s-.2054.2475-.2675.3958c-.062.1484-.094.3075-.094.4683v9.2969h-11.00584z"/><path d="m6.18604 31.3604h31.85556c.16.0023.3188-.0275.467-.0877.1483-.0602.283-.1494.3961-.2626.1131-.1131.2024-.2478.2626-.3961.0602-.1482.09-.307.0877-.467v-9.0918c0-.3218-.1279-.6305-.3554-.858-.2276-.2276-.5362-.3554-.858-.3554h-31.85556c-.32181 0-.63044.1278-.85799.3554-.22756.2275-.35539.5362-.35539.858v9.0918c0 .3218.12783.6304.35539.858.22755.2275.53618.3554.85799.3554zm11.96296-2.4268v-6.7163h7.6733v6.665zm18.7988 0h-8.7842v-6.7163h8.6646zm-29.54838-6.7163h8.23728v6.665h-8.23728z"/><path d="m5.98096 44.8272h31.85554c.1593 0 .3171-.0314.4643-.0924.1473-.061.281-.1503.3937-.263s.202-.2464.263-.3937c.061-.1472.0924-.305.0924-.4643v-9.0918c0-.1594-.0314-.3172-.0924-.4644s-.1503-.2809-.263-.3936-.2464-.2021-.3937-.263c-.1472-.061-.305-.0924-.4643-.0924h-31.85554c-.15934 0-.31713.0314-.46434.0924-.14722.0609-.28098.1503-.39365.263s-.20205.2464-.26303.3936-.09236.305-.09236.4644v9.0918c0 .3218.12784.6304.35539.858.22755.2275.53618.3554.85799.3554zm11.96294-2.4268v-6.665h7.6733v6.665zm18.7989 0h-8.7842v-6.665h8.6645zm-29.54846-6.665h8.18606v6.665h-8.18606z"/><path d="m37.8365 58.294c.1593 0 .3171-.0314.4643-.0924.1473-.061.281-.1503.3937-.263s.202-.2465.263-.3937.0924-.305.0924-.4643v-9.1089c0-.1594-.0314-.3171-.0924-.4644-.061-.1472-.1503-.2809-.263-.3936s-.2464-.2021-.3937-.263c-.1472-.061-.305-.0924-.4643-.0924h-31.85554c-.32181 0-.63044.1278-.85799.3554-.22755.2275-.35539.5362-.35539.858v9.1089c0 .1593.03138.3171.09236.4643s.15036.281.26303.3937.24643.202.39365.263c.14721.061.305.0924.46434.0924zm-19.9781-2.4268v-6.6821h7.6734v6.6821zm18.7989 0h-8.6987v-6.6821h8.6645zm-29.46296-6.6821h8.18606v6.6821h-8.18606z"/></g></svg>