<svg fill="none" height="73" viewBox="0 0 28 73" width="28" xmlns="http://www.w3.org/2000/svg"><g fill="#fff"><path d="m27.2944 43.2028-1.9974-17.6152c-.1636-1.9647-1.0432-3.8009-2.4718-5.1596-1.4285-1.3587-3.3064-2.1453-5.2769-2.2102h-7.73136c-1.9686.0654-3.84439.8525-5.27011 2.2116-1.42572 1.359-2.30177 3.195-2.4613 5.1582l-2.0490812 17.6152c-.08578.7183-.0197475 1.4465.1938222 2.1377.213569.6911.569913 1.3297 1.045959 1.8744.3931.4479.87076.8139 1.40558 1.0769.53483.2629 1.1163.4178 1.71109.4556l1.72192 22.6604c.022.3822.18949.7415.46808 1.004.2786.2626.64715.4086 1.02998.408h12.05342c.3834-.0032.7518-.1499 1.0323-.4113s.4528-.6185.483-1.0007l1.7219-22.6604c.5952-.036 1.1773-.19 1.7124-.4531.535-.2631 1.0124-.63 1.4043-1.0794.4821-.5419.8448-1.1791 1.0643-1.8704s.2911-1.421.2099-2.1417zm-3.4438 1.9974c-.1413.1581-.3136.2855-.5061.3744-.1925.0888-.4012.1372-.6132.1422h-1.1537c-.3834.0031-.7517.1498-1.0322.4112-.2806.2614-.4529.6185-.4831 1.0008l-1.7219 22.6604h-9.31555l-1.72191-22.6604c-.02622-.3837-.19737-.7431-.47875-1.0053s-.65194-.4076-1.03654-.4067h-1.08481c-.21234-.0029-.42171-.0503-.61452-.1393-.19282-.089-.36478-.2176-.50472-.3773-.2021-.2342-.35133-.5093-.4375-.8065-.08617-.2971-.10727-.6094-.06186-.9154l2.01464-17.5463c.07803-1.2225.60114-2.374 1.47045-3.237.86932-.8629 2.02463-1.3776 3.24761-1.4467h7.74866c1.2229.0691 2.3782.5838 3.2476 1.4467.8693.863 1.3924 2.0145 1.4704 3.237l2.0147 17.6152c.0354.2951.0093.5943-.0767.8788-.0859.2845-.2298.5481-.4227.7742z"/><path d="m13.6913 15.1873c1.5019 0 2.97-.4453 4.2188-1.2798 1.2488-.8344 2.2221-2.0203 2.7968-3.4079.5748-1.38754.7252-2.91437.4322-4.38739-.293-1.47303-1.0163-2.82609-2.0783-3.88808s-2.415-1.785214-3.888-2.078217c-1.4731-.293002-2.9999-.1426228-4.3875.432123-1.38751.574744-2.57348 1.548044-3.40788 2.796814s-1.27976 2.71692-1.27976 4.21881c.00454 2.01256.80605 3.94144 2.22915 5.36454s3.35189 2.2246 5.36449 2.2291zm0-12.05341c.9069.00023 1.7931.27067 2.5455.77678.7525.50612 1.3371 1.22496 1.6792 2.06479s.4263 1.76256.2417 2.65041-.6296 1.70053-1.2781 2.33443c-.6486.6338-1.4713 1.0601-2.3631 1.2243-.8919.1642-1.8124.059-2.6442-.3023-.8318-.3612-1.537-.9621-2.02578-1.726-.48875-.76387-.73882-1.65603-.71829-2.56264.00456-1.20722.48732-2.36344 1.34257-3.21546.8552-.85203 2.0133-1.33041 3.2205-1.3304z"/></g></svg>