<svg fill="none" height="66" viewBox="0 0 66 66" width="66" xmlns="http://www.w3.org/2000/svg"><g fill="#fff"><path d="m64.5671 6.49847h-10.9923v-5.14532c0-.358876-.1426-.703056-.3963-.956821-.2538-.253765-.598-.396329-.9569-.396329h-7.9017c-.3604-.0000268-.7063.142002-.9628.395298-.2564.253296-.4027.597448-.407.957852v5.14532h-20.0467v-5.14532c.0004-.34759-.133-.682021-.3725-.93395s-.5667-.402035-.9139-.4192h-7.9017c-.3589 0-.7031.142564-.9568.396329-.2538.253765-.3964.597945-.3964.956821v5.14532h-11.00895c-.358876 0-.703056.14257-.956821.39633-.253765.25377-.396329.59795-.396329.95682v56.59848c-.0000268.3605.142002.7064.395298.9628s.597448.4027.957852.4071h63.21395c.3604-.0044.7045-.1507.9578-.4071s.3953-.6023.3953-.9628v-56.59848c0-.17769-.035-.35365-.103-.51782-.068-.16418-.1676-.31335-.2933-.439s-.2748-.22532-.439-.29333c-.1642-.068-.3401-.103-.5178-.103zm-18.894-3.79217h5.1787v10.2739h-5.1787zm-30.6381 0h5.1955v10.2739h-5.1955zm-12.3287 6.49848h9.6558v5.12862c0 .3589.1426.703.3964.9568.2537.2538.5979.3963.9568.3963h7.9017c.1777 0 .3537-.035.5179-.103.1641-.068.3133-.1676.4389-.2933.1257-.1256.2254-.2748.2934-.439s.103-.3401.103-.5178v-5.12862h20.0467v5.12862c.0044.3604.1506.7045.4071.9578.2564.2533.6023.3954.9627.3953h7.9018c.3589 0 .703-.1425.9568-.3963s.3963-.5979.3963-.9568v-5.12862h9.6391v10.02332h-60.5744zm60.5076 53.89222h-60.5076v-41.2127h60.5076z"/><path d="m10.7418 56.4323h8.2526c.3575-.0043.6992-.1483.952-.4011s.3968-.5945.4011-.952v-8.3027c0-.3589-.1425-.7031-.3963-.9568-.2538-.2538-.5979-.3964-.9568-.3964h-8.2526c-.3589 0-.703.1426-.9568.3964-.25376.2537-.39633.5979-.39633.9568v8.3528c.01298.3501.16125.6815.41362.9246.25241.243.58921.3787.93951.3784zm1.3532-8.2525h5.5295v5.5295h-5.5295z"/><path d="m28.8336 39.5243h8.2526c.3589 0 .703-.1426.9568-.3963.2538-.2538.3963-.598.3963-.9569v-8.2525c0-.3589-.1425-.7031-.3963-.9568-.2538-.2538-.5979-.3964-.9568-.3964h-8.2526c-.3589 0-.703.1426-.9568.3964-.2538.2537-.3963.5979-.3963.9568v8.2525c.0043.3576.1483.6992.4011.9521.2528.2528.5945.3968.952.4011zm1.3699-8.2526h5.5295v5.4795h-5.5295z"/><path d="m10.7418 39.5243h8.2526c.3575-.0043.6992-.1483.952-.4011.2528-.2529.3968-.5945.4011-.9521v-8.2525c0-.3589-.1425-.7031-.3963-.9568-.2538-.2538-.5979-.3964-.9568-.3964h-8.2526c-.3589 0-.703.1426-.9568.3964-.25376.2537-.39633.5979-.39633.9568v8.2525c0 .3589.14257.7031.39633.9569.2538.2537.5979.3963.9568.3963zm1.3532-8.2526h5.5295v5.4795h-5.5295z"/><path d="m28.8336 56.4323h8.2526c.3474-.004.68-.1416.9288-.3842s.3948-.5716.4076-.9188v-8.3528c0-.3589-.1425-.7031-.3963-.9568-.2538-.2538-.5979-.3964-.9568-.3964h-8.2359c-.3589 0-.703.1426-.9568.3964-.2538.2537-.3963.5979-.3963.9568v8.3528c.017.3487.1665.6778.418.92s.586.3792.9351.383zm1.3699-8.2525h5.5295v5.5295h-5.5295z"/><path d="m46.943 39.5243h8.1857c.3576-.0043.6992-.1483.9521-.4011.2528-.2529.3968-.5945.4011-.9521v-8.2525c0-.3589-.1426-.7031-.3963-.9568-.2538-.2538-.598-.3964-.9569-.3964h-8.1857c-.3589 0-.7031.1426-.9568.3964-.2538.2537-.3964.5979-.3964.9568v8.2525c0 .3589.1426.7031.3964.9569.2537.2537.5979.3963.9568.3963zm1.3531-8.2526h5.5296v5.4795h-5.5296z"/><path d="m46.943 56.4323h8.1857c.3576-.0043.6992-.1483.9521-.4011.2528-.2528.3968-.5945.4011-.952v-8.3027c0-.3589-.1426-.7031-.3963-.9568-.2538-.2538-.598-.3964-.9569-.3964h-8.1857c-.3589 0-.7031.1426-.9568.3964-.2538.2537-.3964.5979-.3964.9568v8.3528c.013.3501.1613.6815.4137.9246.2523.243.5891.3787.9395.3784zm1.3531-8.2525h5.5296v5.5295h-5.5296z"/></g></svg>