<svg fill="none" height="73" viewBox="0 0 33 73" width="33" xmlns="http://www.w3.org/2000/svg"><g fill="#fff"><path d="m23.2892 19.4183c-.0869-.3013-.2705-.5657-.5225-.7524-.252-.1866-.5584-.2852-.872-.2805h-11.6375c-.31218.0009-.61593.1016-.86681.2875-.25089.1858-.43575.447-.52758.7454l-8.79698 31.1251c-.06839618.2175-.0837698.4482-.044837.6728.0389327.2246.131042.4366.268635.6184.137215.1807.314146.3275.517126.429.202976.1015.426576.155.653506.1563h5.88761v18.9367c-.00003.3852.15177.7548.42248 1.0287s.6385.4301 1.0236.4346h14.56405c.1914 0 .3808-.0379.5574-.1117.1766-.0737.3368-.1818.4713-.3179s.2407-.2975.3123-.475c.0717-.1774.1074-.3673.1051-.5587v-18.9367h5.836c.3851-.0045.7528-.1607 1.0236-.4346.2707-.274.4225-.6436.4224-1.0287.0166-.1372.0166-.2759 0-.4132zm0 30.0922c-.3852 0-.7548.1518-1.0287.4225s-.4301.6385-.4346 1.0236v18.9367h-4.2866v-18.9367c-.0046-.3851-.1607-.7529-.4346-1.0236-.274-.2707-.6436-.4225-1.0287-.4225-.3835 0-.7514.1524-1.0225.4236-.2712.2712-.4236.639-.4236 1.0225v18.9367h-4.3727v-18.9367c-.0045-.3851-.1607-.7529-.43459-1.0236-.27393-.2707-.64354-.4225-1.02866-.4225h-5.28508l7.83293-28.2157h9.4684l7.8673 28.2157z"/><path d="m16.0766 15.1838c1.5023.0034 2.9718-.4389 4.2226-1.2711 1.2507-.8321 2.2265-2.0166 2.8037-3.4036.5773-1.38689.7301-2.91391.4391-4.38773s-1.0127-2.82818-2.0738-3.89165c-1.061-1.06347-2.4137-1.788242-3.8869-2.082576-1.4731-.294333-3.0005-.14499667-4.3887.429108-1.3883.574108-2.575 1.547168-3.40997 2.796018-.83498 1.24886-1.28067 2.71735-1.28068 4.21963 0 2.01052.79749 3.9389 2.21755 5.3622 1.42 1.4233 3.3466 2.2251 5.3571 2.2297zm0-12.05065c.9074-.00319 1.7951.26427 2.5497.76819s1.3417 1.2214 1.6864 2.06075c.3447.83934.4313 1.7624.2487 2.65121-.1826.8888-.6261 1.703-1.2738 2.3384-.6478.6354-1.4702 1.0633-2.3624 1.2289-.8921.1656-1.8133.0614-2.6459-.2993s-1.5388-.9615-2.0282-1.7255c-.4894-.76412-.7398-1.65677-.7193-2.5639 0-1.20537.4789-2.36136 1.3312-3.21368.8523-.85231 2.0083-1.33114 3.2136-1.33114z"/></g></svg>