<svg fill="none" height="50" viewBox="0 0 47 50" width="47" xmlns="http://www.w3.org/2000/svg"><g fill="#b5bd00"><path d="m35.9792 50.0004c-.2521-.0029-.4957-.0913-.6911-.2505l-.4666-.0433h-.121l-.7257-.1555-.9504-.0864h-.095l-2.065-.3801-1.5897-.0605-1.2096.1728c-.063.0089-.127.0089-.1901 0h-.4925c-.0946.0003-.1884-.0173-.2764-.0518l-1.1837-.3975c-.2089-.0682-.3925-.1977-.527-.3715l-.3283-.4147-.5616-.3888h-14.72242l-.42336.0864c-.16098.0326-.3273.0277-.4861-.0142-.1588-.042-.30583-.1199-.42972-.2277l-.66528-.6048-.64799-.2333c-.22887-.0801-.42381-.2354-.55295-.4406l-.10368-.0864-1.28734.0259-.23328.0864-.5184.4752c-.07474.0648-.15932.1173-.25055.1555l-.3888.1814c-.15683.0689-.32759.1-.49862.091-.17104-.009-.33759-.0579-.48633-.1428l-.12959.095c-.0583.0455-.12218.0832-.19008.1124l-.76031.3715c-.16549.0778-.34782.1131-.5304.1025s-.359619-.0666-.51503-.163c-.155731-.0968-.284243-.2317-.373426-.3919-.089184-.1603-.1361-.3406-.136328-.5239v-.2765l-.17279823-1.1923c-.00362369-.0489-.00362369-.098 0-.1469v-.6912c.00033213-.2801.10864023-.5493.30239623-.7516v-.9245s0-.0864 0-.1383l.095039-.7084c.029296-.2308.132326-.446.293756-.6135l.311041-.3196.34559-1.201c.0193-.059.04239-.1167.06912-.1728l.19872-.4061.11232-.622c-.0081-.0834-.0081-.1673 0-.2506l.15552-.432.09503-.6221c.01384-.0829.03703-.1641.06912-.2419l.12096-.2937.10368-.5357c.01676-.0861.04283-.1701.07776-.2506l.39743-.8639v-.2333c-.00235-.2598.08976-.5116.2592-.7085v-.0778c.01145-.1132.04061-.224.0864-.3283l.39744-.864c.07812-.1774.20369-.3299.36287-.4406l.56159-.4147.06048-.4493c.02261-.1894.0954-.3694.21083-.5213.11544-.1519.26934-.2702.44581-.3427l1.08862-.4493.69119-.6134.20736-.3283.20736-.4666.14688-.7257v-.864c-.00595-.0925-.00014-.1854.01728-.2765l.09504-.3369-.05184-.6999c-.01449-.245.05233-.488.19007-.6912l-.06912-.2851-.51839-.3974c-.14676-.1114-.26029-.2608-.32831-.432l-.23328-.6134-.25056-.3024c-.07344-.0862-.12922-.1861-.16416-.2938l-.36287-.9158s0-.0864 0-.1296l-.50112-1.8144c-.01312-.0888-.01312-.179 0-.2678v-.3715c.00123-.2335.07689-.4605.216-.648l.3024-.4061c.04245-.0654.09493-.1237.15552-.1728l.07775-.0864v-.3629l-.14687-.4752-.3024-.3974c-.07152-.0971-.12695-.205-.16416-.3197l-.73439-2.1945v-.1037l-.23328-.864-.76031-.9245-.0864-.1296-.30239-.4838-.36288-.432-.06912-.1037-.20735-.3542c-.12091-.209-.17233-.4511-.14688-.6912v-.17279c.01656-.13309.05756-.26197.12096-.38015l.09503-.16416c.11326-.20998.29236-.37693.50976-.4752l.36287-.15552.13824-.05183 1.11455-.31104.77759-.3456h.10368l.92447-.30239c.10908-.03407.22267-.05154.33695-.05184h.48384l.38015-.05184h.15552 1.51198l1.3478-.09504c.1233-.01693.2483-.01693.3715 0l.3111.09504h1.0281l.7344-.10368c.0602-.00863.1213-.00863.1815 0h.8639l2.0304-.06912h.1555l1.0541.0864c.1448.00674.2863.04508.4147.11232l.1383.06912c.121.06677.2293.15453.3196.25919.1877-.00029.3721.04912.5345.14321s.2969.2295.39.39247l.3024.50975c.0523.0823.0903.17286.1123.26784l.3024 1.13186c.004.0546.004.1095 0 .1641l.0951.6567.4147.6393c.0764.1152.1293.2444.1555.3802l.1382.6566.553.5357c.0332.0273.0623.0594.0864.095l1.1145 1.3565.4061.1296h.5011l1.2096-.3629.2419.0173.864-.1555c.0917-.0128.1848-.0128.2765 0l1.1491.0864h.2678v-.2679c.0122-.2523.1097-.4929.2765-.6825l.0691-.0692.0691-.1987.0692-.5616c-.0082-.0746-.0082-.1499 0-.2246l.1555-.4666c.0717-.2143.2084-.4011.3911-.5342.1827-.1332.4023-.2061.6284-.2088h2.0822c.1005-.1186.2265-.2129.3687-.2757.1422-.0629.2968-.0927.4521-.0872h1.5206c.1466.0046.2909.0382.4244.099s.2536.1476.3532.2553c.0987.1081.1748.2349.2238.3729s.0698.2844.0613.4306v.1641h2.0131c.1693.0013.3358.0427.486.1208s.2797.1907.378.3285l.1728.2419c.0454.069.0859.1412.121.216l.1987.4925c.0431.1046.0693.2155.0777.3283l.1383 1.8662.1296.6394c.0038.0662.0038.1325 0 .1987v.8208l.1555.9072c.0085.0833.0085.1672 0 .2505v.3456c-.0018.0824-.0164.164-.0432.242l-.1469.5011v.4838l.0519.1987.5097.7258c.0581.0887.1045.1846.1382.2851l.3802 1.175.3802.9245c.0875.1889.1117.401.0691.6048v.1814h2.9807l.5184-.1901c.1888-.0769.3958-.0979.5962-.0604h.1814l.2333-.1469c.1757-.1118.3793-.1717.5875-.1728h.1296c.2486-.0003.4897.0851.6826.2419l.19.1469c.1812.1459.3113.3456.3716.5702l.0604.2592c.0726.2635.0417.5448-.0864.7862.0171.1117.0171.2253 0 .337v.2765c-.0066.089-.027.1764-.0604.2592l-.0692.2073-.0432.6135c.0084.0601.0084.1212 0 .1814l-.1296.5529.0692.6999c.0086.0573.0086.1155 0 .1728v.7689c-.0029.1007-.0234.2001-.0605.2938l-.1123.3369v.2765l.1814.0605c.2406.0841.4438.2506.5735.4701.1296.2195.1775.4777.1351.7291s-.1724.4796-.3669.6444c-.1945.1647-.441.2554-.6959.2559h-6.696v10.3679l.0605.0432c.1201.0955.2175.2165.2851.3542l.0864.1555.553.3283c.0871.051.1658.1151.2333.1901l.3628.3802.5616.4233.1296.121.121.1296.4061.1901c.1645.0756.305.1952.406.3456l.1124.1555.3196.1641c.1623.0864.2998.2128.3996.3671.0998.1544.1585.3317.1706.5151s-.0228.3669-.1014.533c-.0786.1662-.1983.3095-.3478.4165l-.1642.1209c-.1131.0784-.2387.1368-.3715.1728l-.6998.1728-4.8556 1.2528h-.121l-.5789.0691zm-.8639-2.4451.7516.0691c.1721.0153.338.0716.4839.1642h.0518l3.456-.864-.5012-.3802-.1296-.1123-.3196-.3456-.6912-.406c-.1749-.101-.3161-.2513-.4061-.432l-.121-.216-.2851-.2247c-.13-.1032-.2348-.2346-.3066-.3843-.0719-.1497-.1088-.3137-.1081-.4797v-11.9403c0-.2864.1138-.5611.3163-.7637.2026-.2025.4773-.3163.7637-.3163h5.6937v-.5357c.0076-.1057.0279-.2101.0605-.311l.1209-.3369v-.5357l-.0777-.7949c-.0257-.1196-.0257-.2433 0-.3629l.1555-.6393v-.6739c.0047-.0969.0221-.1928.0518-.2852-.0791-.0059-.1573-.0204-.2332-.0431l-.1556-.0432-.3715.1382c-.1188.0445-.2446.0679-.3715.0691h-2.6784l-.1728.3283c-.1081.1975-.2738.3572-.4752.4579l-.1641.0864c-.2172.1057-.4634.1361-.6998.0864l-.4061-.0777c-.2368-.0492-.45-.1771-.6048-.3629l-.1037-.121c-.1675-.0467-.3215-.1326-.4493-.2505l-.0345-.0691c-.0944-.0869-.1732-.1891-.2333-.3024l-.0864-.1815c-.0716-.131-.1147-.2757-.1266-.4246-.012-.1489.0076-.2986.0575-.4394l.0432-.1296c.0513-.1618.1435-.3076.2678-.4233l.6739-.6826-.2592-.6134c.0035-.0287.0035-.0577 0-.0864l-.3369-1.0713-.5962-.7085c-.0752-.1043-.1308-.2214-.1641-.3456l-.1037-.5184c-.0127-.0975-.0127-.1962 0-.2938v-.7775c-.0125-.0947-.0125-.1905 0-.2852l.1641-.6048-.1468-.8639c-.0085-.0602-.0085-.1213 0-.1815v-.8035l-.1124-.5961c-.0041-.0403-.0041-.0808 0-.121l-.1296-1.6675h-2.4796c-.1463-.0014-.2908-.0329-.4246-.0923-.1337-.0594-.2539-.1456-.353-.2533-.1821-.198-.2838-.4568-.2851-.7258-.1452.0717-.3046.1101-.4666.1124h-1.9007v.2073c-.0081.0824-.0255.1635-.0519.2419l-.1814.5098c-.0403.1124-.0987.2174-.1728.311v.0519c.0041.0748.0041.1498 0 .2246l-.216.864c-.0578.2338-.1921.4415-.3815.5903-.1894.1487-.4231.2298-.6639.2305h-1.2096l-1.0887-.0864-.648.1209-1.2959.3888c-.1033.0126-.2078.0126-.3111 0h-.864c-.1115.0004-.2223-.0171-.3283-.0518l-.864-.2851c-.1949-.0635-.3664-.1839-.4924-.3456l-1.2787-1.5465-.7517-.7258c-.1546-.1528-.2599-.3484-.3024-.5616l-.1642-.7862-.3542-.5443c-.0321-.05-.0609-.1019-.0864-.1556l-.1382-.311c-.0419-.1026-.0709-.21-.0864-.3197l-.0692-.6652-.19-.7085c-.1458-.0169-.2864-.0641-.4128-.1385-.1265-.0744-.236-.17436-.3216-.29351l-.0778-.10368-.5702-.0432-2.0045.14688c-.0373.00429-.075.00429-.1123 0h-.8208l-.7257.10368h-.1642-1.2614c-.0946.0125-.1905.0125-.2851 0l-.2592-.07776-1.23554.0864h-1.52062l-.41472-.10368h-.57023l-.71711.23327-.78623.3283-.13824.0519-.43199.1209.26783.4234.81215.9936c.06769.0806.12301.1709.16416.2678l.19008.4493c.02403.0591.04424.1197.06048.1814l.13824.6566.65663 2.0391.31967.4147c.07947.1029.13816.2203.1728.3456l.25056.864c.02704.1015.04155.2059.0432.311v.9158c.00014.1542-.03298.3065-.0971.4467-.06411.1401-.15772.2648-.27442.3655l-.38879.3456.38879 1.5206.26784.6998.24192.2938c.05988.0782.11196.1622.15552.2505l.19007.4493.59616.4579c.19426.1482.33157.3587.38879.5962l.28512 1.1318c.0337.1476.03648.3005.00826.4492-.02825.1487-.08695.2899-.17242.4148l-.0864.1123v.5098c.01704.1232.01704.2482 0 .3715l-.11232.3715v.864c.00856.0775.00856.1557 0 .2333l-.20736.9417c-.0152.0715-.03839.1411-.06912.2074l-.27647.6393c-.01963.045-.04274.0883-.06912.1296l-.3024.4925c-.04409.067-.09319.1305-.14688.1901l-.86398.864c-.10227.1056-.22601.1881-.36288.2419l-.71711.2937v.1815c-.03206.2231-.13154.4311-.28512.5961l-.38015.3975-.16416.1382-.3456.2419-.22463.4493v.216c-.02124.2044-.09903.3989-.22464.5616v.0777c.00051.1558-.03497.3096-.10368.4493l-.44064.9504-.09503.5011c-.01499.0677-.03521.1342-.06048.1987l-.11232.2765-.0864.6048-.05184.1987-.14688.4147-.07776.6826c-.01724.1225-.05217.2418-.10368.3542l-.24191.4925-.432 1.3737c-.05185.1672-.14041.3207-.2592.4493l-.25055.2419v.2852 1.7279c.0085.066.0085.1328 0 .1988.27771-.0722.57269-.0319.82079.1123l.07776.0432.38879-.3283c.09477-.0814.20293-.1457.31968-.1901l.58751-.2074c.11287-.0445.23293-.0679.35424-.0691h1.48606.18144l.62207.0864c.1533.0233.29978.0794.42949.1643.1297.085.23959.1969.32218.3282l.12096.1814.49247.1728c.1241.0439.23852.1114.33696.1987l.46655.3975h.216 15.1544c.2187.0018.432.0679.6134.19l.9763.674c.0925.0609.1743.1369.2419.2246l.2247.2851.6825.216h.2506l1.2009-.1728h.1901l1.728.0605h.1555l2.0995.3974.959.0864h.121z"/><path d="m2.93176 6.78378c-.24184.00021-.47652-.08208-.66527-.23327l-.53568-.41472c-.18238-.1411-.313-.33854-.37151-.56159l-.09504-.40608c-.02133-.12001-.02133-.24285 0-.36287v-.42336l-.06912-.30239-.07776-.06912c-.119122-.1094-.213216-.24323-.275845-.39235-.062629-.14911-.092315-.30999-.087029-.47164.005324-.17036.050258-.33713.131241-.4871s.195793-.27901.335313-.37689l.86399-.61343.13824-.0864.37151-.15552.2592-.527035c.10907-.214266.28499-.387152.50112-.492474l.67391-.3196766c.13664-.0579827.28356-.0878644.43199-.0878644.14844 0 .29535.0298817.432.0878644l.57887.2159976c.25657.098977.46431.294309.57887.544313l.31968.630715c.06414.14262.0973.29722.0973.45359 0 .15638-.03316.31098-.0973.4536-.06123.14548-.15435.27535-.27249.38003-.11813.10468-.25827.18149-.41006.22476h-.06048l-.37152.2592-.31103.28511-.15552.53568-.14688.81215v.64799c-.01142.20133-.07898.39543-.19503.56035-.11605.16491-.27595.29403-.4616.37276l-.6048.25055c-.14272.05628-.29623.07989-.44927.06912z"/></g></svg>