<svg xmlns="http://www.w3.org/2000/svg" width="107.128" height="45.752" viewBox="0 0 107.128 45.752">
  <g id="Group_530" data-name="Group 530" transform="translate(712.906 555.597)">
    <path id="Path_405" data-name="Path 405" d="M-207.812-379.225a3.58,3.58,0,0,1-3.591,3.59,3.591,3.591,0,0,1-3.59-3.59,3.587,3.587,0,0,1,3.59-3.573,3.576,3.576,0,0,1,3.591,3.573Zm0,0" transform="translate(-419.77 -157.906)" fill="#ffb71e"/>
    <path id="Path_406" data-name="Path 406" d="M-102.838-379.225a3.591,3.591,0,0,1-3.59,3.59,3.58,3.58,0,0,1-3.59-3.59,3.576,3.576,0,0,1,3.59-3.573,3.587,3.587,0,0,1,3.59,3.573Zm0,0" transform="translate(-508.269 -157.906)" fill="#ffb71e"/>
    <path id="Path_407" data-name="Path 407" d="M-324.082-379.225a3.583,3.583,0,0,1-3.595,3.59,3.591,3.591,0,0,1-3.59-3.59,3.587,3.587,0,0,1,3.59-3.573,3.58,3.58,0,0,1,3.595,3.573Zm0,0" transform="translate(-321.744 -157.906)" fill="#ffb71e"/>
    <path id="Path_408" data-name="Path 408" d="M-448.047-379.225a3.583,3.583,0,0,1-3.595,3.59,3.591,3.591,0,0,1-3.59-3.59,3.587,3.587,0,0,1,3.59-3.573,3.58,3.58,0,0,1,3.595,3.573Zm0,0" transform="translate(-217.234 -157.906)" fill="#ffb71e"/>
    <path id="Path_409" data-name="Path 409" d="M-567.657-381.4a3.6,3.6,0,0,1-3.59,3.591,3.591,3.591,0,0,1-3.591-3.591,3.584,3.584,0,0,1,3.591-3.595,3.6,3.6,0,0,1,3.59,3.595Zm0,0" transform="translate(-116.399 -156.056)" fill="#ffb71e"/>
    <path id="Path_410" data-name="Path 410" d="M-686.846-381.4a3.591,3.591,0,0,1-3.59,3.591,3.6,3.6,0,0,1-3.59-3.591,3.594,3.594,0,0,1,3.59-3.595,3.583,3.583,0,0,1,3.59,3.595Zm0,0" transform="translate(-15.916 -156.056)" fill="#ffb71e"/>
    <path id="Path_411" data-name="Path 411" d="M-627.557-407.873a3.365,3.365,0,0,1-3.355,3.368,3.368,3.368,0,0,1-3.368-3.368,3.354,3.354,0,0,1,3.368-3.355,3.351,3.351,0,0,1,3.355,3.355Zm0,0" transform="translate(-66.286 -133.938)" fill="#ffb71e"/>
    <path id="Path_412" data-name="Path 412" d="M-506.622-410.665a3.347,3.347,0,0,1-3.351,3.355,3.362,3.362,0,0,1-3.368-3.355,3.373,3.373,0,0,1,3.368-3.368,3.359,3.359,0,0,1,3.351,3.368Zm0,0" transform="translate(-168.245 -131.573)" fill="#ffb71e"/>
    <path id="Path_413" data-name="Path 413" d="M-384.514-410.665a3.366,3.366,0,0,1-3.373,3.355,3.35,3.35,0,0,1-3.351-3.355,3.361,3.361,0,0,1,3.351-3.368,3.377,3.377,0,0,1,3.373,3.368Zm0,0" transform="translate(-271.186 -131.573)" fill="#ffb71e"/>
    <path id="Path_414" data-name="Path 414" d="M-265.547-410.665a3.35,3.35,0,0,1-3.351,3.355,3.366,3.366,0,0,1-3.373-3.355,3.377,3.377,0,0,1,3.373-3.368,3.361,3.361,0,0,1,3.351,3.368Zm0,0" transform="translate(-371.482 -131.573)" fill="#ffb71e"/>
    <path id="Path_415" data-name="Path 415" d="M-151.754-414.8a3.365,3.365,0,0,1-3.372,3.351,3.361,3.361,0,0,1-3.368-3.351,3.366,3.366,0,0,1,3.368-3.373,3.37,3.37,0,0,1,3.372,3.373Zm0,0" transform="translate(-467.401 -128.086)" fill="#ffb71e"/>
    <path id="Path_416" data-name="Path 416" d="M-205.893-438.649a3.151,3.151,0,0,1-3.146,3.15,3.152,3.152,0,0,1-3.15-3.15,3.151,3.151,0,0,1,3.15-3.146,3.15,3.15,0,0,1,3.146,3.146Zm0,0" transform="translate(-422.133 -108.168)" fill="#ffb71e"/>
    <path id="Path_417" data-name="Path 417" d="M-93.422-438.649a3.151,3.151,0,0,1-3.146,3.15,3.152,3.152,0,0,1-3.15-3.15,3.151,3.151,0,0,1,3.15-3.146,3.15,3.15,0,0,1,3.146,3.146Zm0,0" transform="translate(-516.953 -108.168)" fill="#ffb71e"/>
    <path id="Path_418" data-name="Path 418" d="M-325.189-440.926a3.155,3.155,0,0,1-3.15,3.15,3.152,3.152,0,0,1-3.15-3.15,3.151,3.151,0,0,1,3.15-3.146,3.154,3.154,0,0,1,3.15,3.146Zm0,0" transform="translate(-321.557 -106.248)" fill="#ffb71e"/>
    <path id="Path_419" data-name="Path 419" d="M-446.1-440.926a3.152,3.152,0,0,1-3.151,3.15,3.151,3.151,0,0,1-3.146-3.15,3.15,3.15,0,0,1,3.146-3.146,3.151,3.151,0,0,1,3.151,3.146Zm0,0" transform="translate(-219.622 -106.248)" fill="#ffb71e"/>
    <path id="Path_420" data-name="Path 420" d="M-565.733-444.619a3.155,3.155,0,0,1-3.15,3.15,3.143,3.143,0,0,1-3.15-3.15,3.143,3.143,0,0,1,3.15-3.146,3.154,3.154,0,0,1,3.15,3.146Zm0,0" transform="translate(-118.764 -103.135)" fill="#ffb71e"/>
    <path id="Path_421" data-name="Path 421" d="M-682-448.864a3.144,3.144,0,0,1-3.15,3.15,3.139,3.139,0,0,1-3.128-3.15,3.139,3.139,0,0,1,3.128-3.15,3.144,3.144,0,0,1,3.15,3.15Zm0,0" transform="translate(-20.761 -99.553)" fill="#ffb71e"/>
    <path id="Path_422" data-name="Path 422" d="M-625.047-474.889a2.819,2.819,0,0,1-2.828,2.828,2.83,2.83,0,0,1-2.823-2.828,2.825,2.825,0,0,1,2.823-2.806,2.815,2.815,0,0,1,2.828,2.806Zm0,0" transform="translate(-69.306 -77.902)" fill="#ffb71e"/>
    <path id="Path_451" data-name="Path 451" d="M-502.516-474.889a2.818,2.818,0,0,1-2.824,2.828,2.816,2.816,0,0,1-2.811-2.828,2.811,2.811,0,0,1,2.811-2.806,2.814,2.814,0,0,1,2.824,2.806Zm0,0" transform="translate(-172.621 -77.902)" fill="#ffb71e"/>
    <path id="Path_452" data-name="Path 452" d="M-384.742-474.889a2.815,2.815,0,0,1-2.806,2.828,2.819,2.819,0,0,1-2.828-2.828,2.815,2.815,0,0,1,2.828-2.806,2.81,2.81,0,0,1,2.806,2.806Zm0,0" transform="translate(-271.912 -77.902)" fill="#ffb71e"/>
    <path id="Path_453" data-name="Path 453" d="M-261.416-474.889a2.822,2.822,0,0,1-2.828,2.828,2.815,2.815,0,0,1-2.806-2.828,2.81,2.81,0,0,1,2.806-2.806,2.817,2.817,0,0,1,2.828,2.806Zm0,0" transform="translate(-375.883 -77.902)" fill="#ffb71e"/>
    <path id="Path_454" data-name="Path 454" d="M-144.725-474.889a2.819,2.819,0,0,1-2.828,2.828,2.815,2.815,0,0,1-2.806-2.828,2.81,2.81,0,0,1,2.806-2.806,2.815,2.815,0,0,1,2.828,2.806Zm0,0" transform="translate(-474.26 -77.902)" fill="#ffb71e"/>
    <path id="Path_455" data-name="Path 455" d="M-214.658-316.153a5.17,5.17,0,0,1-5.172,5.159,5.167,5.167,0,0,1-5.159-5.159,5.171,5.171,0,0,1,5.159-5.176,5.173,5.173,0,0,1,5.172,5.176Zm0,0" transform="translate(-411.342 -209.728)" fill="#ffb71e"/>
    <path id="Path_456" data-name="Path 456" d="M-224.7-250.615l-1.908,2.3-1.956-2.3-4.562.871v9.085h12.885l-.2-9.019Zm0,0" transform="translate(-404.485 -269.344)" fill="#ffb71e"/>
    <path id="Path_457" data-name="Path 457" d="M-333.958-316.153a5.17,5.17,0,0,1-5.172,5.159,5.17,5.17,0,0,1-5.159-5.159,5.173,5.173,0,0,1,5.159-5.176,5.173,5.173,0,0,1,5.172,5.176Zm0,0" transform="translate(-310.766 -209.728)" fill="#ffb71e"/>
    <path id="Path_458" data-name="Path 458" d="M-344-250.615l-1.908,2.3-1.956-2.3-4.562.937v9.019h12.885l-.27-9.019Zm0,0" transform="translate(-303.907 -269.344)" fill="#ffb71e"/>
    <path id="Path_459" data-name="Path 459" d="M-269.906-354.639a3.793,3.793,0,0,1-3.778,3.778,3.78,3.78,0,0,1-3.778-3.778,3.769,3.769,0,0,1,3.778-3.782,3.783,3.783,0,0,1,3.778,3.782Zm0,0" transform="translate(-367.105 -178.457)" fill="#ffb71e"/>
    <path id="Path_460" data-name="Path 460" d="M-274.494-306.67h-2.331l-1.381,1.682-1.447-1.682h-2.314a7.058,7.058,0,0,1,.614,2.858,7.244,7.244,0,0,1-1.551,4.427h9.346l-.018-.222a9.034,9.034,0,0,1-1.141-4.187,8.5,8.5,0,0,1,.6-2.858Zm0,0" transform="translate(-362.517 -222.086)" fill="#ffb71e"/>
    <path id="Path_461" data-name="Path 461" d="M-454.868-316.153a5.171,5.171,0,0,1-5.177,5.159,5.155,5.155,0,0,1-5.155-5.159,5.159,5.159,0,0,1,5.155-5.176,5.174,5.174,0,0,1,5.177,5.176Zm0,0" transform="translate(-208.831 -209.728)" fill="#ffb71e"/>
    <path id="Path_462" data-name="Path 462" d="M-464.912-250.615l-1.9,2.3-1.956-2.3-4.562.937v9.019h12.885l-.257-9.019Zm0,0" transform="translate(-201.972 -269.344)" fill="#ffb71e"/>
    <path id="Path_463" data-name="Path 463" d="M-390.844-354.639a3.791,3.791,0,0,1-3.778,3.778,3.782,3.782,0,0,1-3.778-3.778,3.772,3.772,0,0,1,3.778-3.782,3.781,3.781,0,0,1,3.778,3.782Zm0,0" transform="translate(-265.147 -178.457)" fill="#ffb71e"/>
    <path id="Path_464" data-name="Path 464" d="M-395.422-306.67h-2.318l-1.394,1.682-1.429-1.682h-2.314a7.055,7.055,0,0,1,.61,2.858,7.16,7.16,0,0,1-1.547,4.427h9.342l-.017-.222a9.026,9.026,0,0,1-1.137-4.187,8.491,8.491,0,0,1,.593-2.858Zm0,0" transform="translate(-260.583 -222.086)" fill="#ffb71e"/>
    <path id="Path_465" data-name="Path 465" d="M-93.941-317.674a5.172,5.172,0,0,1-5.176,5.176,5.156,5.156,0,0,1-5.155-5.176,5.151,5.151,0,0,1,5.155-5.155,5.167,5.167,0,0,1,5.176,5.155Zm0,0" transform="translate(-513.114 -208.463)" fill="#ffb71e"/>
    <path id="Path_466" data-name="Path 466" d="M-99.8-251.148l-4.187-.967-1.887,2.3-1.974-2.3-4.562,1.037v8.919h12.885Zm0,0" transform="translate(-506.256 -268.079)" fill="#ffb71e"/>
    <path id="Path_467" data-name="Path 467" d="M-150.939-356.143a3.771,3.771,0,0,1-3.778,3.778,3.78,3.78,0,0,1-3.778-3.778,3.78,3.78,0,0,1,3.778-3.778,3.771,3.771,0,0,1,3.778,3.778Zm0,0" transform="translate(-467.401 -177.193)" fill="#ffb71e"/>
    <path id="Path_468" data-name="Path 468" d="M-154.385-300.894l-.017-.24a9.018,9.018,0,0,1-1.142-4.187,9.059,9.059,0,0,1,.579-2.876h-2.688l-1.381,1.686-1.447-1.686h-2.3a7.343,7.343,0,0,1,.6,2.858,7.307,7.307,0,0,1-1.534,4.444Zm0,0" transform="translate(-463.001 -220.799)" fill="#ffb71e"/>
    <path id="Path_469" data-name="Path 469" d="M-572.753-315.269a5.156,5.156,0,0,1-5.159,5.159,5.158,5.158,0,0,1-5.172-5.159,5.17,5.17,0,0,1,5.172-5.172,5.167,5.167,0,0,1,5.159,5.172Zm0,0" transform="translate(-109.448 -210.476)" fill="#ffb71e"/>
    <path id="Path_470" data-name="Path 470" d="M-582.779-249.644l-1.9,2.283-1.956-2.283-4.58.784v9.176h12.885l-.257-9.176Zm0,0" transform="translate(-102.589 -270.162)" fill="#ffb71e"/>
    <path id="Path_471" data-name="Path 471" d="M-508.729-353.755a3.768,3.768,0,0,1-3.778,3.778,3.782,3.782,0,0,1-3.778-3.778,3.791,3.791,0,0,1,3.778-3.778,3.777,3.777,0,0,1,3.778,3.778Zm0,0" transform="translate(-165.763 -179.206)" fill="#ffb71e"/>
    <path id="Path_472" data-name="Path 472" d="M-513.2-305.7h-2.314l-1.394,1.669-1.429-1.669h-2.318a7.29,7.29,0,0,1,.614,2.859,7.258,7.258,0,0,1-1.547,4.427h9.325v-.24a8.943,8.943,0,0,1-1.137-4.17,8.959,8.959,0,0,1,.575-2.876Zm0,0" transform="translate(-161.293 -222.905)" fill="#ffb71e"/>
    <path id="Path_473" data-name="Path 473" d="M-693.691-315.269a5.155,5.155,0,0,1-5.155,5.159,5.162,5.162,0,0,1-5.176-5.159,5.173,5.173,0,0,1,5.176-5.172,5.166,5.166,0,0,1,5.155,5.172Zm0,0" transform="translate(-7.49 -210.476)" fill="#ffb71e"/>
    <path id="Path_474" data-name="Path 474" d="M-704.344-249.644l-1.908,2.283-1.974-2.283-4.68.784.135,9.176H-699.9l-.253-9.176Zm0,0" transform="translate(0 -270.162)" fill="#ffb71e"/>
    <path id="Path_475" data-name="Path 475" d="M-629.64-353.755a3.771,3.771,0,0,1-3.778,3.778,3.78,3.78,0,0,1-3.778-3.778,3.788,3.788,0,0,1,3.778-3.778,3.78,3.78,0,0,1,3.778,3.778Zm0,0" transform="translate(-63.829 -179.206)" fill="#ffb71e"/>
    <path id="Path_476" data-name="Path 476" d="M-634.134-305.7h-2.314l-1.381,1.669-1.447-1.669h-2.314a7.293,7.293,0,0,1,.614,2.859,7.235,7.235,0,0,1-1.551,4.427h9.346l-.017-.24a8.908,8.908,0,0,1-1.141-4.187,8.956,8.956,0,0,1,.579-2.859Zm0,0" transform="translate(-59.335 -222.905)" fill="#ffb71e"/>
  </g>
</svg>
