<svg fill="none" height="183" viewBox="0 0 778 183" width="778" xmlns="http://www.w3.org/2000/svg" xmlns:xlink="http://www.w3.org/1999/xlink"><linearGradient id="a" gradientUnits="userSpaceOnUse" x1="-360.612" x2="483.551" y1="-751.839" y2="266.684"><stop offset="0" stop-color="#ffa01d"/><stop offset=".22" stop-color="#ffa01d"/><stop offset=".44" stop-color="#32a4c9"/><stop offset=".74" stop-color="#0089c8"/><stop offset="1" stop-color="#0072b6"/></linearGradient><path d="m777.361 183s0-100.4274-65.53-116.9459c-26.449-6.6632-55.27-1.995-81.39 3.182-22.242 4.379-49.907 10.9724-69.866-1.3067-18.304-11.2816-25.322-33.4159-41.134-47.2511-26.02-22.75279-63.017-23.28149-95.178-16.17935-30.407 6.73305-59.727 19.57075-87.313 33.79495-10.757 5.5461-21.504 11.3714-33.178 14.5135-29.819 8.0398-61.252-10.9723-91.39-12.1793-46.268-1.8553-49.797 50.0141-97.282 59.8489-38.1229 7.891-62.6378-26.3233-98.129 28.928-12.30232 19.152-16.270156 53.595-15.971073 53.595z" fill="url(#a)"/><g fill="#fff"><path d="m190.36 117.336c4.272 0 8.352-2.976 8.352-9.216s-4.08-9.216-8.352-9.216c-4.296 0-8.376 2.976-8.376 9.216s4.08 9.216 8.376 9.216zm0-3.144c-2.76 0-4.464-2.352-4.464-6.072s1.704-5.976 4.464-5.976c2.736 0 4.464 2.256 4.464 5.976s-1.728 6.072-4.464 6.072zm16.423 3.072c3.384 0 4.968-1.896 5.784-3.888l-3.192-1.104c-.552 1.728-1.488 2.28-2.52 2.28-1.776 0-2.496-1.632-2.496-3.912 0-2.544.984-3.864 2.544-3.864 1.128 0 1.872.528 2.376 2.16l3.24-1.08c-.744-2.064-2.088-3.912-5.568-3.912-2.832 0-6.456 1.56-6.456 6.672 0 4.968 3.288 6.648 6.288 6.648zm13.096-.096c.84 0 2.256-.12 2.544-.192v-2.76c-.264.096-.84.144-1.272.144-1.392 0-1.776-.432-1.776-1.8v-5.544h3.288v-2.808h-3.288v-4.392h-3.84v4.392h-2.136v2.808h2.136v6.384c0 2.4.552 3.768 4.344 3.768zm8.394-14.328h2.544l3.576-4.152h-3.888zm-.72 14.352c1.896 0 3.288-.744 4.464-2.064 0 .72.12 1.344.288 1.872h3.84c-.264-.648-.36-1.584-.36-3.12v-4.92c0-3.288-1.44-5.016-4.944-5.016-3.192 0-5.112 1.128-6.384 2.28l1.632 2.208c1.176-.912 2.568-1.584 4.2-1.584 1.248 0 1.728.6 1.728 1.536v.312c-5.616.456-8.112 2.088-8.112 5.04 0 2.184 1.68 3.456 3.648 3.456zm1.536-2.904c-.84 0-1.416-.408-1.416-1.224 0-1.176 1.296-1.944 4.344-2.256v2.376c-.648.648-1.584 1.104-2.928 1.104zm12.58 2.736h3.888l4.56-12.816h-3.624l-2.688 8.52h-.048l-2.688-8.52h-3.984zm10.009-14.568h3.888v-3.096h-3.888zm.024 14.544h3.84v-12.792h-3.84zm12.766.264c3.096 0 6.528-1.68 6.528-6.648 0-5.016-3.432-6.672-6.528-6.672-3.12 0-6.552 1.656-6.552 6.672 0 4.968 3.456 6.648 6.552 6.648zm0-2.712c-1.968 0-2.688-1.776-2.688-3.912 0-2.304.84-3.864 2.688-3.864 1.92 0 2.664 1.728 2.664 3.864 0 2.328-.84 3.912-2.664 3.912zm22.799 2.784c4.464 0 6.576-2.496 7.44-6.072l-3.672-.816c-.624 2.424-1.656 3.744-3.744 3.744-2.688 0-4.176-2.352-4.176-6.096 0-3.672 1.44-5.952 4.128-5.952 2.088 0 2.952 1.392 3.528 3.432l3.696-1.08c-.768-3.192-2.712-5.592-7.2-5.592s-8.064 3.024-8.064 9.192c0 6.264 3.432 9.24 8.064 9.24zm12.708-.144c1.896 0 3.288-.744 4.464-2.064 0 .72.12 1.344.288 1.872h3.84c-.264-.648-.36-1.584-.36-3.12v-4.92c0-3.288-1.44-5.016-4.944-5.016-3.192 0-5.112 1.128-6.384 2.28l1.632 2.208c1.176-.912 2.568-1.584 4.2-1.584 1.248 0 1.728.6 1.728 1.536v.312c-5.616.456-8.112 2.088-8.112 5.04 0 2.184 1.68 3.456 3.648 3.456zm1.536-2.904c-.84 0-1.416-.408-1.416-1.224 0-1.176 1.296-1.944 4.344-2.256v2.376c-.648.648-1.584 1.104-2.928 1.104zm14.548 2.976c2.952 0 5.64-1.224 5.64-4.32 0-2.904-2.664-3.48-5.184-3.912-1.584-.288-2.28-.6-2.28-1.368 0-.696.624-1.128 1.728-1.128 1.2 0 2.472.504 3.768 1.392l1.512-2.184c-1.416-1.128-3-1.8-5.616-1.8-2.856 0-4.968 1.488-4.968 4.056 0 3 2.592 3.576 5.016 4.008 1.752.312 2.424.648 2.424 1.536 0 .84-.84 1.248-2.04 1.248-1.56 0-3.288-.648-4.44-1.656l-1.536 2.16c1.296 1.104 3.168 1.968 5.976 1.968zm13.156-.096c.84 0 2.256-.12 2.544-.192v-2.76c-.264.096-.84.144-1.272.144-1.392 0-1.776-.432-1.776-1.8v-5.544h3.288v-2.808h-3.288v-4.392h-3.84v4.392h-2.136v2.808h2.136v6.384c0 2.4.552 3.768 4.344 3.768zm10.698.096c2.232 0 4.08-.648 5.568-1.92l-1.488-2.304c-.864.792-2.28 1.536-3.792 1.536-1.608 0-2.784-.816-2.976-2.928h8.472v-.576c0-5.808-3.24-7.128-5.88-7.128s-6.432 1.704-6.432 6.672c0 4.944 3.192 6.648 6.528 6.648zm-2.64-7.896c.288-1.872 1.32-2.664 2.52-2.664 1.44 0 2.256.864 2.448 2.664zm10.804 7.632h3.84v-17.76h-3.84zm12.766.264c3.096 0 6.528-1.68 6.528-6.648 0-5.016-3.432-6.672-6.528-6.672-3.12 0-6.552 1.656-6.552 6.672 0 4.968 3.456 6.648 6.552 6.648zm0-2.712c-1.968 0-2.688-1.776-2.688-3.912 0-2.304.84-3.864 2.688-3.864 1.92 0 2.664 1.728 2.664 3.864 0 2.328-.84 3.912-2.664 3.912zm15.575 2.448h3.888v-6.312h2.52c3.552 0 7.296-.984 7.296-5.76 0-4.68-3.456-5.688-7.248-5.688h-6.456zm3.888-9.336v-5.232h2.664c2.448 0 3.336.936 3.336 2.592 0 1.704-.912 2.64-3.336 2.64zm14.779 9.528c1.895 0 3.288-.744 4.464-2.064 0 .72.12 1.344.288 1.872h3.84c-.264-.648-.36-1.584-.36-3.12v-4.92c0-3.288-1.44-5.016-4.944-5.016-3.192 0-5.112 1.128-6.384 2.28l1.632 2.208c1.176-.912 2.568-1.584 4.2-1.584 1.248 0 1.728.6 1.728 1.536v.312c-5.616.456-8.112 2.088-8.112 5.04 0 2.184 1.68 3.456 3.648 3.456zm1.536-2.904c-.84 0-1.416-.408-1.416-1.224 0-1.176 1.296-1.944 4.344-2.256v2.376c-.648.648-1.584 1.104-2.928 1.104zm13.131 2.976c2.232 0 3.648-1.272 4.416-2.256v1.992h3.864v-12.792h-3.864v8.688c-.864.744-1.752 1.296-2.784 1.296-1.08 0-1.512-.624-1.512-1.776v-8.208h-3.864v9.336c0 2.64 1.56 3.72 3.744 3.72zm11.356-.264h3.84v-17.76h-3.84zm12.767.264c3.096 0 6.528-1.68 6.528-6.648 0-5.016-3.432-6.672-6.528-6.672-3.12 0-6.552 1.656-6.552 6.672 0 4.968 3.456 6.648 6.552 6.648zm0-2.712c-1.968 0-2.688-1.776-2.688-3.912 0-2.304.84-3.864 2.688-3.864 1.92 0 2.664 1.728 2.664 3.864 0 2.328-.84 3.912-2.664 3.912zm-250.595 34.448h1.704v-7.872h4.032c3.744 0 6.384-1.464 6.384-5.04 0-3.264-2.352-4.848-6.216-4.848h-5.904zm1.704-9.384v-6.816h4.128c2.976 0 4.584.936 4.584 3.336 0 2.568-1.632 3.48-4.56 3.48zm20.246 9.72c3.552 0 5.856-2.184 6.72-5.688l-1.632-.36c-.768 2.976-2.424 4.512-5.064 4.512-3.456 0-5.712-2.88-5.712-7.8 0-4.56 2.232-7.536 5.664-7.536 2.712 0 4.032 1.464 4.824 4.272l1.632-.408c-.84-3.288-2.832-5.424-6.432-5.424-4.44 0-7.392 3.768-7.392 9.144 0 5.664 2.904 9.288 7.392 9.288zm8.837-.336h1.656l1.896-5.472h7.2l1.896 5.472h1.776l-6.288-17.832h-1.848zm4.08-6.984 3.048-8.832h.048l3.048 8.832z"/><path d="m502.824 117h11.736v-3.168h-7.824v-14.592h-3.912zm17.327.264c2.232 0 3.648-1.272 4.416-2.256v1.992h3.864v-12.792h-3.864v8.688c-.864.744-1.752 1.296-2.784 1.296-1.08 0-1.512-.624-1.512-1.776v-8.208h-3.864v9.336c0 2.64 1.56 3.72 3.744 3.72zm11.883-14.424h2.544l3.576-4.152h-3.888zm-.528 14.16h3.84v-12.792h-3.84zm11.951.264c2.952 0 5.64-1.224 5.64-4.32 0-2.904-2.664-3.48-5.184-3.912-1.584-.288-2.28-.6-2.28-1.368 0-.696.624-1.128 1.728-1.128 1.2 0 2.472.504 3.768 1.392l1.512-2.184c-1.416-1.128-3-1.8-5.616-1.8-2.856 0-4.968 1.488-4.968 4.056 0 3 2.592 3.576 5.016 4.008 1.752.312 2.424.648 2.424 1.536 0 .84-.84 1.248-2.04 1.248-1.56 0-3.288-.648-4.44-1.656l-1.536 2.16c1.296 1.104 3.168 1.968 5.976 1.968zm18.57-.264h3.912v-14.496h5.304v-3.264h-14.496v3.264h5.28zm17.05.264c2.232 0 4.08-.648 5.568-1.92l-1.488-2.304c-.864.792-2.28 1.536-3.792 1.536-1.608 0-2.784-.816-2.976-2.928h8.472v-.576c0-5.808-3.24-7.128-5.88-7.128s-6.432 1.704-6.432 6.672c0 4.944 3.192 6.648 6.528 6.648zm-2.64-7.896c.288-1.872 1.32-2.664 2.52-2.664 1.44 0 2.256.864 2.448 2.664zm10.804 7.632h3.84v-17.76h-3.84zm12.743.264c2.232 0 4.08-.648 5.568-1.92l-1.488-2.304c-.864.792-2.28 1.536-3.792 1.536-1.608 0-2.784-.816-2.976-2.928h8.472v-.576c0-5.808-3.24-7.128-5.88-7.128s-6.432 1.704-6.432 6.672c0 4.944 3.192 6.648 6.528 6.648zm-2.64-7.896c.288-1.872 1.32-2.664 2.52-2.664 1.44 0 2.256.864 2.448 2.664zm15.699 7.896c2.952 0 5.64-1.224 5.64-4.32 0-2.904-2.664-3.48-5.184-3.912-1.584-.288-2.28-.6-2.28-1.368 0-.696.624-1.128 1.728-1.128 1.2 0 2.472.504 3.768 1.392l1.512-2.184c-1.416-1.128-3-1.8-5.616-1.8-2.856 0-4.968 1.488-4.968 4.056 0 3 2.592 3.576 5.016 4.008 1.752.312 2.424.648 2.424 1.536 0 .84-.84 1.248-2.04 1.248-1.56 0-3.288-.648-4.44-1.656l-1.536 2.16c1.296 1.104 3.168 1.968 5.976 1.968zm-109.763 31.736h1.704v-7.872h4.032c3.744 0 6.384-1.464 6.384-5.04 0-3.264-2.352-4.848-6.216-4.848h-5.904zm1.704-9.384v-6.816h4.128c2.976 0 4.584.936 4.584 3.336 0 2.568-1.632 3.48-4.56 3.48zm20.246 9.72c3.552 0 5.856-2.184 6.72-5.688l-1.632-.36c-.768 2.976-2.424 4.512-5.064 4.512-3.456 0-5.712-2.88-5.712-7.8 0-4.56 2.232-7.536 5.664-7.536 2.712 0 4.032 1.464 4.824 4.272l1.632-.408c-.84-3.288-2.832-5.424-6.432-5.424-4.44 0-7.392 3.768-7.392 9.144 0 5.664 2.904 9.288 7.392 9.288zm10.253-.336h11.112v-1.56h-9.408v-7.056h6.648v-1.536h-6.648v-6.024h8.904v-1.584h-10.608z"/></g></svg>