<svg xmlns="http://www.w3.org/2000/svg" width="47.154" height="40" viewBox="0 0 47.154 40">
  <g id="Group_529" data-name="Group 529" transform="translate(0 -38.84)">
    <g id="Group_509" data-name="Group 509" transform="translate(36.701 60.435)">
      <g id="Group_508" data-name="Group 508" transform="translate(0 0)">
        <path id="Path_399" data-name="Path 399" d="M402.141,273.32h-3.647a9.486,9.486,0,0,1,.575,3.261v13.782a4.065,4.065,0,0,1-.234,1.361h6.029a4.089,4.089,0,0,0,4.084-4.084v-7.513A6.815,6.815,0,0,0,402.141,273.32Z" transform="translate(-398.494 -273.32)" fill="#ffb71e"/>
      </g>
    </g>
    <g id="Group_511" data-name="Group 511" transform="translate(0 60.435)">
      <g id="Group_510" data-name="Group 510">
        <path id="Path_400" data-name="Path 400" d="M9.879,276.582a9.486,9.486,0,0,1,.575-3.261H6.807A6.815,6.815,0,0,0,0,280.128v7.513a4.089,4.089,0,0,0,4.084,4.084h6.029a4.066,4.066,0,0,1-.234-1.361Z" transform="translate(0 -273.321)" fill="#ffb71e"/>
      </g>
    </g>
    <g id="Group_513" data-name="Group 513" transform="translate(12.602 56.889)">
      <g id="Group_512" data-name="Group 512" transform="translate(0 0)">
        <path id="Path_401" data-name="Path 401" d="M151.973,234.815h-8.337a6.815,6.815,0,0,0-6.807,6.807V255.4a1.361,1.361,0,0,0,1.361,1.361h19.228a1.361,1.361,0,0,0,1.361-1.361V241.622A6.815,6.815,0,0,0,151.973,234.815Z" transform="translate(-136.829 -234.815)" fill="#ffb71e"/>
      </g>
    </g>
    <g id="Group_515" data-name="Group 515" transform="translate(15.391 38.84)">
      <g id="Group_514" data-name="Group 514" transform="translate(0 0)">
        <path id="Path_402" data-name="Path 402" d="M175.3,38.84a8.185,8.185,0,1,0,8.186,8.186A8.2,8.2,0,0,0,175.3,38.84Z" transform="translate(-167.114 -38.84)" fill="#ffb71e"/>
      </g>
    </g>
    <g id="Group_517" data-name="Group 517" transform="translate(3.08 46.47)">
      <g id="Group_516" data-name="Group 516" transform="translate(0 0)">
        <path id="Path_403" data-name="Path 403" d="M39.565,121.689a6.119,6.119,0,1,0,6.122,6.122A6.129,6.129,0,0,0,39.565,121.689Z" transform="translate(-33.443 -121.689)" fill="#ffb71e"/>
      </g>
    </g>
    <g id="Group_519" data-name="Group 519" transform="translate(31.83 46.47)">
      <g id="Group_518" data-name="Group 518" transform="translate(0 0)">
        <path id="Path_404" data-name="Path 404" d="M351.729,121.689a6.122,6.122,0,1,0,6.122,6.122A6.129,6.129,0,0,0,351.729,121.689Z" transform="translate(-345.607 -121.689)" fill="#ffb71e"/>
      </g>
    </g>
  </g>
</svg>
