<svg fill="none" height="50" viewBox="0 0 48 50" width="48" xmlns="http://www.w3.org/2000/svg"><g fill="#b5bd00"><path d="m38.2693 4.17207c.6185 0 1.2231.18344 1.7373.5271s.9149.83211 1.1514 1.40355c.2366.57145.2983 1.20021.1775 1.80676-.1209.60654-.419 1.16361-.8565 1.60074s-.9948.73468-1.6015.85498c-.6066.1203-1.2354.058-1.8066-.1791-.5712-.23703-1.0593-.63819-1.4025-1.1527s-.5261-1.11925-.5255-1.73772c.0015-.82846.3314-1.62252.9175-2.20807s1.3804-.91479 2.2089-.91554zm0 8.33433c1.0306 0 2.038-.3056 2.8949-.8782.8569-.5725 1.5248-1.3863 1.9192-2.33847.3944-.95213.4976-1.99983.2965-3.01061s-.6973-1.93924-1.4261-2.66797c-.7287-.72874-1.6572-1.22501-2.6679-1.42606-1.0108-.20106-2.0585-.09787-3.0106.29652-.9522.39438-1.766 1.06225-2.3385 1.91915-.5726.8569-.8782 1.86434-.8782 2.89492.0015 1.38151.551 2.70602 1.5278 3.68292.9769.9768 2.3014 1.5263 3.6829 1.5278z"/><path d="m47.34 29.8304-1.3358-10.6756c-.1581-1.2591-.77-2.4172-1.7209-3.2574-.951-.8402-2.1757-1.3048-3.4446-1.3066h-5.1458c-.5915.0014-1.1782.1056-1.7341.3079-.2486.1008-.4488.2936-.5588.5382-.1101.2447-.1215.5224-.032.7753s.2731.4615.5126.5825c.2394.1209.5163.1448.773.0668.3332-.121.6848-.184 1.0393-.1864h5.1458c.7623-.0005 1.4985.2773 2.0706.7811.572.5039.9404 1.1993 1.036 1.9556l1.3331 10.6756c.0193.1466.007.2956-.0359.437-.043.1415-.1158.2721-.2134.3831-.0977.111-.2179.1998-.3527.2606-.1348.0607-.2811.0918-.4289.0914h-.7654c-.2633-.0007-.5171.0987-.7101.278-.1929.1793-.3106.4251-.3292.6878l-.9743 13.6185h-6.3998l-.7484-10.4948c-.0068-.1386-.0413-.2744-.1013-.3994-.06-.1251-.1443-.2369-.2481-.329-.1038-.092-.2249-.1624-.3563-.207-.1313-.0446-.2702-.0625-.4086-.0528-.1384.0098-.2734.0471-.3972.1097-.1237.0627-.2337.1494-.3235.2551-.0899.1057-.1577.2283-.1995.3606-.0418.1322-.0568.2715-.0441.4096l.819 11.4608c.0199.2625.1378.5079.3304.6874s.4457.2799.7089.2813h8.3344c.2628-.0001.516-.0998.7083-.279s.3096-.4247.3281-.6869l.9744-13.6298c.4248-.0286.8392-.1436 1.218-.338s.7139-.464.9849-.7923c.271-.3284.4721-.7086.5911-1.1174.119-.4087.1533-.8375.1008-1.26"/><path d="m14.1443 34.6192c-.1369-.0111-.2746.0053-.405.0482-.1304.043-.2509.1116-.3544.2019s-.1878.2004-.248.3239c-.0602.1234-.095.2576-.1025.3947l-.7343 10.2548h-6.39691l-.96872-13.6184c-.02125-.2628-.14049-.5079-.33406-.6868s-.44731-.2786-.7109-.2791h-.76255c-.14779-.0001-.29389-.0316-.42858-.0924-.1347-.0608-.25492-.1496-.35268-.2604-.09775-.1109-.17082-.2413-.21434-.3825-.04351-.1413-.05649-.2901-.03807-.4368l1.33587-10.6756c.09505-.7565.46329-1.4522 1.03543-1.9562.57214-.5041 1.30875-.7816 2.07123-.7805h5.13728c.2656.0049.5295.0438.7851.1158.1324.0351.2705.0437.4062.0254s.2665-.0631.385-.132c.1184-.0688.222-.1603.3051-.2692.083-.1089.1438-.2331.1789-.3655.035-.1324.0437-.2705.0254-.4062s-.0632-.2665-.132-.385c-.0688-.1184-.1603-.2221-.2693-.3051-.1089-.0831-.2331-.1438-.3655-.1789-.4285-.1201-.8711-.1828-1.3161-.1864h-5.14856c-1.26877.0024-2.49318.4672-3.44399 1.3072-.95082.8401-1.56285 1.998-1.72153 3.2568l-1.3386921 10.6756c-.0516271.4223-.01660787.8506.1029181 1.2589.119526.4083.321047.7879.592251 1.1157.271203.3278.606393.5968.985083.7907.37869.1938.79294.3084 1.21741.3367l.97437 13.6213c.01857.263.13613.5092.32899.6889.19286.1798.44668.2798.71032.2798h8.33993c.2635-.0007.5169-.1009.7097-.2805.1927-.1796.3104-.4254.3297-.6882l.802-11.2235c.0187-.275-.072-.5462-.2524-.7546-.1804-.2085-.4358-.3372-.7106-.3581"/><path d="m9.10036 4.17207c.61847 0 1.22304.18344 1.73724.5271s.9149.83211 1.1515 1.40355c.2365.57145.2983 1.20021.1774 1.80676-.1209.60654-.4189 1.16361-.8564 1.60074s-.9949.73468-1.60153.85498c-.60666.1203-1.23537.058-1.8066-.1791-.57123-.23703-1.05931-.63819-1.40251-1.1527s-.52608-1.11925-.52553-1.73772c.0015-.82846.33146-1.62252.91754-2.20807.58607-.58555 1.38043-.91479 2.20889-.91554zm0 8.33433c1.03054 0 2.03804-.3056 2.89494-.8782.8569-.5725 1.5248-1.3863 1.9191-2.33847.3944-.95213.4976-1.99983.2966-3.01061-.2011-1.01078-.6974-1.93924-1.4261-2.66797-.7287-.72874-1.6572-1.22501-2.668-1.42606-1.01076-.20106-2.05846-.09787-3.01059.29652-.95213.39438-1.76594 1.06225-2.3385 1.91915s-.87816 1.86434-.87816 2.89492c.00149 1.38151.55096 2.70602 1.52783 3.68292.97688.9768 2.30138 1.5263 3.68288 1.5278z"/><path d="m30.4483 31.0354c-.0949.1099-.2118.1989-.3431.2611-.1313.0623-.2742.0964-.4194.1004h-.7936c-.2628-.0001-.5158.0991-.7085.2777s-.3109.4233-.3308.6853l-1.1495 15.5644h-6.3969l-1.1466-15.5644c-.0206-.2617-.139-.5061-.3315-.6846-.1926-.1784-.4453-.2778-.7079-.2784h-.7907c-.1457-.0038-.2891-.0378-.4209-.1001-.1317-.0622-.2491-.1513-.3445-.2614-.1324-.1541-.231-.3343-.2894-.5289-.0583-.1946-.0752-.3993-.0495-.6008l1.3782-12.1104c.2118-1.8329 1.6014-3.2111 3.2451-3.2111h5.3152c1.6409 0 3.0332 1.3782 3.245 3.2111l1.3754 12.1047c.0245.2017.0067.4063-.0521.6008-.0588.1944-.1575.3746-.2896.5289zm2.4035-1.3754-1.3839-12.0991c-.3248-2.8863-2.6124-5.0638-5.3096-5.0638h-5.3152c-2.6943.0056-4.9791 2.1916-5.3096 5.0695l-1.381 12.0905c-.0595.4932-.0148.9933.1311 1.4682.146.4748.39.9137.7162 1.2883.2692.3084.5972.5602.9647.7406s.7673.2857 1.176.31l1.1523 15.57c.0179.2625.135.5083.3275.6877.1925.1793.4459.2788.709.2782h8.3485c.2633.0007.5172-.0987.7101-.278s.3106-.4252.3292-.6879l1.1494-15.57c.4089-.0236.8089-.1287 1.1765-.3092.3676-.1804.6955-.4325.9643-.7414.3273-.374.5719-.8128.7179-1.2878s.1901-.9755.1294-1.4687"/><path d="m23.5048 2.08711c.6186-.00056 1.2234.1824 1.738.52572s.9157.83158 1.1527 1.40297c.237.5714.2991 1.20025.1786 1.80698-.1206.60673-.4184 1.16407-.8558 1.60148s-.9947.73523-1.6015.85577c-.6067.12055-1.2356.0584-1.8069-.17859-.5714-.23698-1.0597-.63814-1.403-1.15271s-.5263-1.11942-.5257-1.73801c.0015-.82798.331-1.62161.9165-2.20708.5855-.58546 1.3791-.91503 2.2071-.91653zm0 8.33429c1.0307.0006 2.0384-.3045 2.8957-.87676.8572-.57222 1.5255-1.38583 1.9204-2.33791.3948-.95209.4984-1.99988.2976-3.01084-.2007-1.01097-.6968-1.93969-1.4254-2.66871-.7286-.72901-1.6571-1.225563-2.6679-1.426848-1.0109-.201286-2.0587-.09826152-3.011.296042-.9523.394304-1.7663 1.062176-2.339 1.919136-.5726.85695-.8783 1.8645-.8783 2.89521.0022 1.38079.5515 2.70443 1.5276 3.68106s2.2995 1.52662 3.6803 1.52962z"/></g></svg>