<svg id="Solid" xmlns="http://www.w3.org/2000/svg" width="26.702" height="26.702" viewBox="0 0 26.702 26.702">
  <path id="Path_46" data-name="Path 46" d="M146.752,43.473a1.3,1.3,0,0,0,1.831,0l4.883-4.883a1.295,1.295,0,1,0-1.831-1.831l-2.672,2.672V25.295a1.295,1.295,0,0,0-2.589,0V39.432L143.7,36.759a1.295,1.295,0,0,0-1.831,1.831Z" transform="translate(-134.317 -24)" fill="#fff"/>
  <path id="Path_47" data-name="Path 47" d="M49.321,232a1.34,1.34,0,0,0-1.381,1.295v9.926H26.762v-9.926a1.384,1.384,0,0,0-2.762,0v10.358a2.233,2.233,0,0,0,2.3,2.158H48.4a2.233,2.233,0,0,0,2.3-2.158V233.295A1.34,1.34,0,0,0,49.321,232Z" transform="translate(-24 -219.108)" fill="#fff"/>
</svg>
