<svg fill="none" height="27" viewBox="0 0 27 27" width="27" xmlns="http://www.w3.org/2000/svg" xmlns:xlink="http://www.w3.org/1999/xlink"><clipPath id="a"><path d="m0 0h26.702v26.702h-26.702z"/></clipPath><g clip-path="url(#a)" fill="#fff"><path d="m12.4346 19.4732c.2435.2415.5726.377.9155.377.343 0 .672-.1355.9155-.377l4.883-4.883c.1244-.1193.2238-.2622.2923-.4204.0684-.1582.1046-.3285.1064-.5008s-.0308-.3433-.0959-.5029-.1614-.3046-.2833-.4264c-.1219-.1219-.2668-.2182-.4264-.2834-.1596-.0651-.3306-.0977-.5029-.0959-.1724.0018-.3426.038-.5008.1065s-.3011.1678-.4204.2922l-2.672 2.6721v-14.13605c-.0094-.337093-.1498-.657237-.3916-.892354-.2417-.235118-.5657-.3666632-.9029-.3666632s-.6611.1315452-.9029.3666632c-.2417.235117-.3822.555261-.3916.892354v14.13695l-2.67399-2.673c-.24451-.2344-.57114-.3637-.90985-.3601s-.66254.1397-.90206.3792c-.23951.2396-.37565.5634-.37922.9021s.12572.6653.36014.9099z"/><path d="m25.321 12.8923c-.3548-.0111-.6994.119-.9583.3618s-.411.5784-.4227.9332v9.9259h-21.178v-9.9259c-.02312-.3506-.17867-.6792-.43511-.9193-.25645-.2401-.5946-.3737-.94589-.3737s-.689443.1336-.945888.3737-.4119944.5687-.435112.9193v10.358c.0195818.5909.272711 1.1499.703875 1.5544.431165.4046 1.005165.6216 1.596125.6036h22.1c.591.018 1.165-.199 1.5961-.6036.4312-.4045.6843-.9635.7039-1.5544v-10.358c-.0118-.3544-.1635-.6897-.422-.9324-.2584-.2428-.6026-.3732-.957-.3626z"/></g></svg>