<svg xmlns="http://www.w3.org/2000/svg" width="444.302" height="30.721" viewBox="0 0 444.302 30.721">
  <g id="Group_453" data-name="Group 453" transform="translate(-1333.698 -7425.776)">
    <g id="Group_257" data-name="Group 257" transform="translate(1333.698 7428.134)">
      <path id="Path_306" data-name="Path 306" d="M9.766,10.43a7.558,7.558,0,0,1-2.856,6.421A11.074,11.074,0,0,1-.041,18.817a17.6,17.6,0,0,1-5.83-.964,7.846,7.846,0,0,1-2.291-1.087l1.694-3.295A14.052,14.052,0,0,0-.3,15a6.207,6.207,0,0,0,3.427-.885A3.326,3.326,0,0,0,4.782,11.14,3.007,3.007,0,0,0,3.53,8.649,17.7,17.7,0,0,0-.742,6.839,14.869,14.869,0,0,1-5.581,4.467,6.607,6.607,0,0,1-7.839-.84,6.985,6.985,0,0,1-5.067-6.828,10.379,10.379,0,0,1,1.446-8.717,16.34,16.34,0,0,1,8.96-7.151L7.836-3.773A18.365,18.365,0,0,0,1.766-4.818a5.553,5.553,0,0,0-3.176.841A3.229,3.229,0,0,0-2.855-1.167,2.821,2.821,0,0,0-1.287,1.361,26.936,26.936,0,0,0,3.377,3.127,11.645,11.645,0,0,1,7.836,5.453,6.484,6.484,0,0,1,9.766,10.43" transform="translate(8.162 8.717)" fill="#fff"/>
    </g>
    <g id="Group_258" data-name="Group 258" transform="translate(1351.705 7430.104)">
      <path id="Path_307" data-name="Path 307" d="M7.84,13.2a14.938,14.938,0,0,1-5.83,1.406q-4.422,0-5.1-3.618a19.179,19.179,0,0,1-.242-3.455V-1.71H-6.552V-4.365l3.216-.6.683-5.349,4.182-.72v6.069H7.275L6.794-1.71H1.529V8.21a4.41,4.41,0,0,0,.321,2.014,1.9,1.9,0,0,0,1.81.848,10.822,10.822,0,0,0,3.174-.641Z" transform="translate(6.552 11.034)" fill="#fff"/>
    </g>
    <g id="Group_259" data-name="Group 259" transform="translate(1367.461 7435.771)">
      <path id="Path_308" data-name="Path 308" d="M8.321,10.641H4.262L3.9,8.471a7.5,7.5,0,0,1-5.546,2.574A4.943,4.943,0,0,1-5.669,9.356,6.54,6.54,0,0,1-6.954,5.095,5.109,5.109,0,0,1-3.295-.131a30.062,30.062,0,0,1,6.952-.885v-1a3.709,3.709,0,0,0-.644-2.55A3.557,3.557,0,0,0,.481-5.236a20.908,20.908,0,0,0-4.94.8L-5.3-7.206A18.1,18.1,0,0,1,2.131-8.893q4.1,0,5.388,2.212.8,1.4.8,5.344ZM3.658,6.028V1.4A14.118,14.118,0,0,0-.2,2,2.892,2.892,0,0,0-2.291,4.871,2.3,2.3,0,0,0,.284,7.507,5.76,5.76,0,0,0,3.658,6.028" transform="translate(6.954 8.893)" fill="#fff"/>
    </g>
    <g id="Group_260" data-name="Group 260" transform="translate(1386.153 7435.771)">
      <path id="Path_309" data-name="Path 309" d="M9.021,10.641H4.158V-.935a7.587,7.587,0,0,0-.321-2.653A1.992,1.992,0,0,0,1.748-4.873,8.908,8.908,0,0,0-2.676-3.147V10.641H-7.539V-8.491h4.18L-3-5.961Q.74-8.893,3.6-8.893q3.5,0,4.7,2.37a11.2,11.2,0,0,1,.723,4.7Z" transform="translate(7.539 8.893)" fill="#fff"/>
    </g>
    <g id="Group_261" data-name="Group 261" transform="translate(1405.929 7427.007)">
      <path id="Path_310" data-name="Path 310" d="M9.437,15.415H5.216l-.321-2.291a6.889,6.889,0,0,1-5.467,2.7,6.327,6.327,0,0,1-5.707-3.176A12.608,12.608,0,0,1-7.887,6.01,13.973,13.973,0,0,1-6.442-.784,5.984,5.984,0,0,1-.814-4.119,8.609,8.609,0,0,1,4.574-1.788v-10.37l4.863-.725ZM4.574,9.869V1.307A6.3,6.3,0,0,0,.915-.1q-3.736,0-3.739,5.988,0,5.911,3.539,5.909A4.946,4.946,0,0,0,4.574,9.869" transform="translate(7.887 12.883)" fill="#fff"/>
    </g>
    <g id="Group_262" data-name="Group 262" transform="translate(1426.669 7435.771)">
      <path id="Path_311" data-name="Path 311" d="M8.321,10.641H4.262L3.9,8.471a7.484,7.484,0,0,1-5.544,2.574,4.935,4.935,0,0,1-4.02-1.689A6.516,6.516,0,0,1-6.954,5.095,5.111,5.111,0,0,1-3.295-.131a30.042,30.042,0,0,1,6.952-.885v-1a3.709,3.709,0,0,0-.644-2.55A3.557,3.557,0,0,0,.481-5.236a20.94,20.94,0,0,0-4.942.8l-.846-2.774A18.12,18.12,0,0,1,2.131-8.893q4.1,0,5.386,2.212.8,1.4.8,5.344ZM3.658,6.028V1.4A14.118,14.118,0,0,0-.2,2,2.892,2.892,0,0,0-2.291,4.871,2.3,2.3,0,0,0,.281,7.507,5.76,5.76,0,0,0,3.658,6.028" transform="translate(6.954 8.893)" fill="#fff"/>
    </g>
    <g id="Group_263" data-name="Group 263" transform="translate(1445.361 7435.772)">
      <path id="Path_312" data-name="Path 312" d="M6.284,2.364A9.081,9.081,0,0,0-.389,4.976V17.558H-5.252V-1.574h4.18L-.71,1.6A10.413,10.413,0,0,1,1.5-.452,8.139,8.139,0,0,1,6.284-1.976Z" transform="translate(5.252 1.976)" fill="#fff"/>
    </g>
    <g id="Group_264" data-name="Group 264" transform="translate(1457.942 7427.007)">
      <path id="Path_313" data-name="Path 313" d="M9.437,15.415H5.216l-.321-2.291a6.889,6.889,0,0,1-5.467,2.7,6.327,6.327,0,0,1-5.707-3.176A12.608,12.608,0,0,1-7.887,6.01,13.973,13.973,0,0,1-6.442-.784,5.983,5.983,0,0,1-.812-4.119,8.6,8.6,0,0,1,4.574-1.788v-10.37l4.863-.725ZM4.574,9.869V1.307A6.3,6.3,0,0,0,.915-.1q-3.74,0-3.736,5.988,0,5.911,3.536,5.909A4.949,4.949,0,0,0,4.574,9.869" transform="translate(7.887 12.883)" fill="#fff"/>
    </g>
    <g id="Group_265" data-name="Group 265" transform="translate(1487.044 7428.494)">
      <path id="Path_314" data-name="Path 314" d="M10.16,10.642a6.361,6.361,0,0,1-4.343,6.471q-2.049.8-7.717.8H-8.491V-8.894h7.435q5.107,0,7.156.843Q9.554-6.6,9.556-2.221q0,5.423-5.586,6.35,6.188.646,6.19,6.513M4.653-1.659A3.265,3.265,0,0,0,3.247-4.712,9.141,9.141,0,0,0-.935-5.358H-3.507V2.524h2.049A10.03,10.03,0,0,0,2.8,1.88Q4.652,1,4.653-1.659m.321,11.677A3.534,3.534,0,0,0,2.843,6.383,10.949,10.949,0,0,0-.935,5.939H-3.507v8.441h1.85a12.282,12.282,0,0,0,4.622-.567q2.01-.969,2.01-3.8" transform="translate(8.491 8.894)" fill="#fff"/>
    </g>
    <g id="Group_266" data-name="Group 266" transform="translate(1507.504 7435.771)">
      <path id="Path_315" data-name="Path 315" d="M8.321,10.641H4.259L3.9,8.471a7.5,7.5,0,0,1-5.546,2.574A4.943,4.943,0,0,1-5.669,9.356,6.528,6.528,0,0,1-6.954,5.095,5.109,5.109,0,0,1-3.3-.131a30.067,30.067,0,0,1,6.954-.885v-1a3.732,3.732,0,0,0-.644-2.55A3.56,3.56,0,0,0,.481-5.236a20.94,20.94,0,0,0-4.942.8l-.846-2.774A18.118,18.118,0,0,1,2.129-8.893q4.1,0,5.386,2.212.8,1.4.806,5.344ZM3.658,6.028V1.4A14.138,14.138,0,0,0-.2,2,2.892,2.892,0,0,0-2.291,4.871,2.3,2.3,0,0,0,.281,7.507,5.76,5.76,0,0,0,3.658,6.028" transform="translate(6.954 8.893)" fill="#fff"/>
    </g>
    <g id="Group_267" data-name="Group 267" transform="translate(1526.998 7435.771)">
      <path id="Path_316" data-name="Path 316" d="M9.022,10.641H4.159V-.935a7.628,7.628,0,0,0-.323-2.653A2,2,0,0,0,1.745-4.873,8.917,8.917,0,0,0-2.677-3.147V10.641H-7.54V-8.491h4.18L-3-5.961Q.743-8.893,3.594-8.893q3.493,0,4.7,2.37a11.226,11.226,0,0,1,.725,4.7Z" transform="translate(7.54 8.893)" fill="#fff"/>
    </g>
    <path id="Path_318" data-name="Path 318" d="M0,.394V27.967H4.865v-9l6.952,9h5.588L9.368,17.957l7.517-9.12H11.727l-6.862,8.52V-.329Z" transform="translate(1547.818 7427.337)" fill="#fff"/>
    <path id="Path_319" data-name="Path 319" d="M8.808,0,4.3,5.687H8.413L14.776,0ZM-.848,7.009-7.361,30.277H9.761l1.417-5.061H.338l1.206-4.307h7.35L10.269,16H2.915L3.973,12.23h10.3l1.461-5.221Z" transform="translate(1594.343 7425.776)" fill="#fff"/>
    <g id="Group_271" data-name="Group 271" transform="translate(1616.236 7432.786)">
      <path id="Path_320" data-name="Path 320" d="M3.545,0h8.707c4.962,0,9.759,1.039,7.835,7.923S12.371,15.85,7.816,15.85H5.331L3.255,23.268H-2.963ZM9.373,11.071c2.924,0,4.05-1.228,4.542-2.99s.051-2.99-2.873-2.99h-2.7L6.671,11.071Z" transform="translate(2.963)" fill="#fff"/>
    </g>
    <g id="Group_272" data-name="Group 272" transform="translate(1639.448 7432.347)">
      <path id="Path_321" data-name="Path 321" d="M.34,6.578C2.723-1.945,9.535-5.5,15.154-5.5c5.595,0,10.412,3.552,8.028,12.075S13.994,18.652,8.4,18.652C2.776,18.652-2.043,15.1.34,6.578m16.56,0c1.2-4.277.072-6.884-3.2-6.884-3.295,0-5.878,2.607-7.077,6.884S6.508,13.62,9.807,13.62c3.266,0,5.9-2.765,7.093-7.042" transform="translate(0.284 5.497)" fill="#fff"/>
    </g>
    <g id="Group_273" data-name="Group 273" transform="translate(1662.702 7432.348)">
      <path id="Path_322" data-name="Path 322" d="M0,10.123l5.458-2.9a5.132,5.132,0,0,0,5.109,3.523c1.918,0,3.521-.565,3.925-2.014.413-1.476-1.285-2.045-3.42-2.61C7.547,5.154,2.759,4.179,4.237-1.106,5.564-5.853,9.88-8.46,15.158-8.46c4.931,0,7.242,2.293,8.459,4.558L18.445-.445A5.679,5.679,0,0,0,13.7-3.368c-1.79,0-2.869.6-3.176,1.7C10.091-.131,11.756.434,13.893,1c3.545.909,8.312,2.074,6.849,7.295C19.7,12.01,16.063,15.689,8.9,15.689c-5.311,0-7.813-2.39-8.9-5.566" transform="translate(0 8.46)" fill="#fff"/>
    </g>
    <g id="Group_274" data-name="Group 274" transform="translate(1684.667 7432.348)">
      <path id="Path_323" data-name="Path 323" d="M0,10.123l5.458-2.9a5.132,5.132,0,0,0,5.109,3.523c1.918,0,3.521-.565,3.925-2.014.413-1.476-1.285-2.045-3.42-2.61C7.547,5.154,2.759,4.179,4.235-1.106,5.566-5.853,9.88-8.46,15.158-8.46c4.931,0,7.242,2.293,8.459,4.558L18.445-.445A5.679,5.679,0,0,0,13.7-3.368c-1.79,0-2.869.6-3.176,1.7C10.091-.131,11.756.434,13.893,1c3.545.909,8.312,2.074,6.849,7.295C19.7,12.01,16.063,15.689,8.9,15.689c-5.311,0-7.813-2.39-8.9-5.566" transform="translate(0 8.46)" fill="#fff"/>
    </g>
    <path id="Path_325" data-name="Path 325" d="M6.532,0,2.02,5.687H6.134L12.5,0ZM1.049,7.009-5.459,30.277H.825L7.336,7.009Z" transform="translate(1712.476 7425.776)" fill="#fff"/>
    <path id="Path_326" data-name="Path 326" d="M8.7,0-.438,15.123H-.5L-.921,0H-7.267l1.384,23.363H.087L14.54,0Z" transform="translate(1729.749 7432.786)" fill="#fff"/>
    <path id="Path_327" data-name="Path 327" d="M3.547,0-2.964,23.268H14.158l1.419-5.061H4.737l1.2-4.307h7.356l1.371-4.907H7.314L8.37,5.221H18.677L20.139,0Z" transform="translate(1743.225 7432.786)" fill="#fff"/>
    <path id="Path_328" data-name="Path 328" d="M3.545,0-2.963,23.268H13.092l1.417-5.061H4.736L9.828,0Z" transform="translate(1763.492 7432.786)" fill="#fff"/>
  </g>
</svg>
