<svg fill="none" height="27" viewBox="0 0 1400 27" width="1400" xmlns="http://www.w3.org/2000/svg" xmlns:xlink="http://www.w3.org/1999/xlink"><clipPath id="a"><path d="m0 0h1400v27h-1400z"/></clipPath><g clip-path="url(#a)" fill="#fff"><path d="m1035.13 18.8557c.07 1.071-.12 2.1429-.54 3.1236-.43.9806-1.08 1.8407-1.9 2.5061-1.74 1.2396-3.83 1.8465-5.95 1.7237-1.7.0084-3.38-.2774-4.99-.8452-.7-.2066-1.36-.5285-1.96-.953l1.45-2.889c1.64.854 3.44 1.3126 5.28 1.3406 1.03.0385 2.05-.2312 2.93-.7759.45-.2638.81-.6454 1.06-1.1045s.37-.9787.36-1.5039c0-.4256-.09-.8466-.28-1.2269-.18-.3804-.46-.7088-.79-.9571-1.15-.6911-2.38-1.2246-3.66-1.587-1.49-.429-2.9-1.1338-4.14-2.0797-.64-.5754-1.15-1.2931-1.49-2.099-.33-.806-.48-1.67918-.44-2.55397-.06-1.00761.13-2.01416.54-2.93011s1.04-1.7129 1.83-2.31996c1.62-1.17588 3.59-1.75909 5.57-1.65621 2.22-.0719 4.43.39875 6.43 1.37302l-.96 2.96171c-1.67-.60283-3.42-.91259-5.19-.91622-.96-.04071-1.91.21633-2.72.73736-.4.26771-.72.63488-.93 1.0663-.22.43142-.32.91261-.31 1.39741 0 .46084.13.91255.37 1.30417.23.3916.57.7076.97.9123 1.29.6415 2.62 1.1598 4 1.5484 1.4.3869 2.7 1.0829 3.81 2.0393.56.5656 1 1.2473 1.29 1.9996.28.7524.41 1.5583.36 2.3641z"/><path d="m1047.52 25.0425c-1.57.7522-3.27 1.1715-4.99 1.2327-2.53 0-3.98-1.0574-4.37-3.1721-.16-1.0013-.23-2.0152-.21-3.0293v-8.1039h-2.75v-2.32783l2.75-.52606.59-4.68982 3.57-.63127v5.32109h4.92l-.41 2.85389h-4.51v8.6975c-.04.6025.05 1.2073.28 1.7658.16.2591.4.466.67.5973s.58.182.88.1462c.93-.0467 1.84-.2362 2.71-.562z"/><path d="m1061.76 25.8904h-3.48l-.31-1.9026c-.59.6966-1.32 1.2576-2.14 1.6464-.81.3889-1.7.5969-2.6.6104-.65.0395-1.3-.0734-1.89-.3302-.6-.2567-1.13-.6504-1.56-1.1506-.78-1.0753-1.17-2.3972-1.1-3.7359-.06-1.0144.22-2.0206.79-2.8533.57-.8326 1.39-1.4423 2.35-1.7287 1.94-.4954 3.94-.7558 5.94-.7759v-.8768c.09-.7892-.1-1.5845-.55-2.2358-.62-.471-1.39-.6811-2.16-.5874-1.43.0596-2.85.2951-4.23.7014l-.72-2.4286c1.99-.9498 4.16-1.45401 6.36-1.47913 2.34 0 3.87.64647 4.61 1.93943.46.8183.68 2.3801.68 4.6854zm-3.99-4.0445v-4.0577c-1.12.0179-2.23.1949-3.31.5261-.52.1559-.99.4881-1.31.944-.33.4559-.49 1.0095-.48 1.5732-.04.3099-.02.6268.07.9256.1.2988.26.5713.47.7956.22.2244.48.3946.77.497s.59.1342.9.0929c1.07-.0967 2.09-.5523 2.89-1.2967"/><path d="m1078.85 25.8904h-4.16v-10.1494c.04-.7859-.05-1.5735-.28-2.3261-.13-.3652-.38-.6745-.7-.8786-.32-.2042-.71-.2915-1.08-.248-1.38.1441-2.68.6672-3.79 1.5133v12.0888h-4.16v-16.77427h3.58l.3 2.21817c2.14-1.71374 4.02-2.57063 5.65-2.57063 2 0 3.34.69265 4.02 2.07793.5 1.3124.71 2.7177.62 4.1208z"/><path d="m1096.43 25.8908h-3.61l-.28-2.0087c-.55.736-1.26 1.3323-2.07 1.7428s-1.7.6242-2.61.6245c-.98.0348-1.96-.2061-2.82-.6968-.86-.4906-1.57-1.2125-2.06-2.0878-.97-1.7733-1.45-3.7872-1.38-5.82-.08-2.0606.35-4.1094 1.24-5.9567.44-.9138 1.13-1.6768 1.98-2.19603.86-.51922 1.84-.77218 2.84-.72802 1.72.10673 3.35.83006 4.61 2.04375v-9.09207l4.16-.63565zm-4.16-4.8625v-7.5069c-.89-.7419-1.99-1.1741-3.13-1.2336-2.14 0-3.2 1.75-3.2 5.25 0 3.4551 1.01 5.182 3.03 5.1809.63-.008 1.26-.1642 1.84-.4569.57-.2928 1.07-.7145 1.46-1.2335z"/><path d="m1112.42 25.8904h-3.47l-.31-1.9026c-.59.6971-1.32 1.2584-2.14 1.6473-.81.3889-1.7.5966-2.6.6095-.65.0397-1.3-.0733-1.89-.33-.6-.2568-1.13-.6505-1.55-1.1508-.79-1.0739-1.18-2.3965-1.11-3.7359-.06-1.0144.22-2.0204.78-2.853.57-.8326 1.4-1.4423 2.35-1.729 1.95-.4956 3.95-.756 5.95-.7759v-.8768c.09-.7892-.1-1.5845-.55-2.2358-.62-.471-1.4-.6811-2.17-.5874-1.43.0597-2.85.2952-4.22.7014l-.73-2.4321c2-.94894 4.17-1.45195 6.37-1.47563 2.34 0 3.87.64647 4.61 1.93943.45.8183.68 2.3801.68 4.6854zm-3.99-4.0445v-4.0577c-1.12.0179-2.23.1949-3.3.5261-.53.1559-.99.4881-1.31.944-.33.4559-.49 1.0095-.48 1.5732-.04.3096-.02.6263.07.9249.1.2986.25.5708.47.7952.21.2243.47.3945.76.4971s.6.1348.9.0939c1.08-.0962 2.1-.5518 2.89-1.2967"/><path d="m1125.22 12.5689c-1.06-.0351-2.11.1499-3.09.5436s-1.87.9879-2.62 1.7465v11.0315h-4.16v-16.77427h3.57l.31 2.78287c.54-.6906 1.18-1.2966 1.89-1.7991 1.2-.87634 2.63-1.344 4.1-1.33623z"/><path d="m1140.94 25.8908h-3.62l-.27-2.0087c-.55.736-1.26 1.3323-2.07 1.7428s-1.7.6242-2.61.6245c-.98.0348-1.96-.2061-2.82-.6968-.86-.4906-1.57-1.2125-2.06-2.0878-.97-1.7733-1.45-3.7872-1.38-5.82-.08-2.0606.34-4.1094 1.24-5.9567.44-.9141 1.13-1.6774 1.98-2.19667.86-.51925 1.84-.772 2.84-.72738 1.72.10647 3.35.82987 4.61 2.04375v-9.09207l4.16-.63565zm-4.16-4.8625v-7.5069c-.89-.7419-1.99-1.1741-3.14-1.2336-2.13 0-3.2 1.75-3.19 5.25 0 3.4551 1.01 5.182 3.02 5.1809.64-.0082 1.27-.1644 1.84-.4572.58-.2928 1.08-.7144 1.47-1.2332"/><path d="m1166.98 19.5133c.08 1.234-.24 2.4611-.91 3.4882-.68 1.027-1.66 1.7958-2.81 2.1853-1.17.4676-3.37.7014-6.6.7014h-5.64v-23.50343h6.36c2.91 0 4.95.24637 6.12.73911 1.97.84812 2.96 2.55197 2.96 5.11154 0 3.16978-1.59 5.02558-4.78 5.56748 3.53.3776 5.3 2.281 5.3 5.7104zm-4.71-10.78513c.05-.51602-.03-1.0377-.24-1.5092-.22-.47151-.55-.87509-.97-1.16757-1.13-.47299-2.36-.66698-3.58-.56639h-2.2v6.91069h1.76c1.24.0843 2.48-.1084 3.64-.5647 1.06-.5143 1.58-1.5486 1.59-3.10283zm.27 10.23803c.07-.6615-.07-1.3285-.4-1.9025-.33-.5739-.83-1.0244-1.42-1.2846-1.05-.322-2.14-.4538-3.24-.3893h-2.2v7.4008h1.59c1.33.0942 2.68-.0745 3.95-.4971 1.15-.5664 1.72-1.677 1.72-3.3317"/><path d="m1181.6 25.8904h-3.48l-.31-1.9026c-.59.6966-1.32 1.2576-2.14 1.6464-.81.3889-1.7.5969-2.6.6104-.65.0395-1.3-.0734-1.89-.3302-.6-.2567-1.13-.6504-1.56-1.1506-.78-1.0749-1.17-2.3971-1.1-3.7359-.06-1.0139.22-2.0196.78-2.8522.57-.8326 1.4-1.4425 2.35-1.7298 1.95-.4955 3.95-.7559 5.95-.7759v-.8768c.09-.7891-.11-1.5837-.55-2.2358-.62-.4701-1.39-.6801-2.16-.5874-1.44.0597-2.85.2952-4.23.7014l-.73-2.4321c2-.94875 4.17-1.45175 6.37-1.47563 2.34 0 3.87.64647 4.61 1.93943.45.8183.68 2.3801.69 4.6854zm-3.99-4.0445v-4.0577c-1.12.0181-2.23.1951-3.31.5261-.52.1559-.99.4881-1.31.944-.33.4559-.49 1.0095-.48 1.5732-.04.3096-.02.6263.07.9249.1.2986.26.5708.47.7952.21.2243.48.3945.77.4971.28.1026.59.1348.9.0939 1.07-.0962 2.09-.5518 2.89-1.2967"/><path d="m1199.38 25.8904h-4.16v-10.1494c.04-.786-.05-1.5734-.28-2.3261-.13-.3648-.38-.6736-.7-.8776-.33-.204-.71-.2916-1.09-.249-1.37.1448-2.68.6678-3.78 1.5133v12.0888h-4.16v-16.77427h3.57l.31 2.21817c2.14-1.71374 4.02-2.57063 5.64-2.57063 2 0 3.34.69265 4.03 2.07793.49 1.3124.7 2.7176.62 4.1208z"/><path d="m1203.02 1.71398v24.17502h4.17v-7.8909l5.95 7.8909h4.78l-6.88-8.7764 6.43-7.99609h-4.41l-5.87 7.47009v-15.50652z"/><path d="m1250.37 0-3.85 4.98617h3.52l5.44-4.98617zm-8.26 6.14525-5.57 20.40055h14.65l1.21-4.4373h-9.27l1.03-3.7762h6.29l1.17-4.304h-6.29l.91-3.3055h8.81l1.25-4.57755z"/><path d="m1267.14 6.14648h7.45c4.25 0 8.35.91096 6.71 6.94662-1.65 6.0357-6.61 6.9501-10.51 6.9501h-2.12l-1.78 6.5039h-5.32zm4.99 9.70672c2.5 0 3.46-1.0767 3.88-2.6216.42-1.5448.05-2.6215-2.45-2.6215h-2.32l-1.43 5.2431z"/><path d="m1281.97 16.3493c2.04-7.47263 7.87-10.58953 12.67-10.58953 4.79 0 8.91 3.11427 6.87 10.58693-2.04 7.4727-7.86 10.5887-12.65 10.5887-4.81 0-8.93-3.1143-6.89-10.5861zm14.17 0c1.03-3.7499.06-6.0356-2.74-6.0356-2.82 0-5.03 2.2857-6.06 6.0356-1.02 3.75-.09 6.1742 2.73 6.1742 2.79 0 5.05-2.4242 6.07-6.1742"/><path d="m1301.33 22.0566 4.67-2.5426c.3.9333.89 1.7404 1.68 2.2982.79.5577 1.74.8354 2.7.7906 1.64 0 3.01-.4953 3.36-1.7658.35-1.2941-1.1-1.793-2.93-2.2883-3.02-.8487-7.12-1.7036-5.85-6.3373 1.14-4.162 4.83-6.44773 9.35-6.44773 4.22 0 6.19 2.01043 7.23 3.9963l-4.42 3.03093c-.41-.7487-.99-1.3779-1.7-1.8268-.72-.4489-1.53-.7023-2.36-.7359-1.53 0-2.46.526-2.72 1.4905-.37 1.3476 1.05 1.8429 2.88 2.3392 3.04.797 7.12 1.8184 5.86 6.396-.89 3.2572-4 6.4828-10.13 6.4828-4.54 0-6.69-2.0955-7.62-4.8801"/><path d="m1320.13 22.0566 4.67-2.5426c.3.9333.89 1.7404 1.68 2.2982.79.5577 1.73.8354 2.69.7906 1.64 0 3.01-.4953 3.36-1.7658.35-1.2941-1.1-1.793-2.93-2.2883-3.01-.8487-7.11-1.7036-5.85-6.3373 1.14-4.162 4.83-6.44773 9.35-6.44773 4.22 0 6.2 2.01043 7.24 3.9963l-4.43 3.03093c-.4-.7487-.99-1.3779-1.7-1.8268s-1.52-.7023-2.36-.7359c-1.53 0-2.45.526-2.72 1.4905-.37 1.3476 1.06 1.8429 2.89 2.3392 3.03.797 7.11 1.8184 5.86 6.396-.89 3.2572-4.01 6.4828-10.14 6.4828-4.54 0-6.68-2.0955-7.61-4.8801"/><path d="m1349.52 0-3.86 4.98617h3.52l5.44-4.98617zm-4.69 6.14525-5.57 20.40055h5.37l5.58-20.40055z"/><path d="m1366.15 6.14648-7.82 13.25932h-.05l-.36-13.25932h-5.43l1.18 20.48392h5.11l12.37-20.48392z"/><path d="m1373.28 6.14648-5.57 20.40062h14.65l1.21-4.4373h-9.27l1.02-3.7763h6.3l1.17-4.3023h-6.29l.9-3.3071h8.82l1.26-4.57762z"/><path d="m1390.62 6.14648-5.57 20.40062h13.74l1.21-4.4373h-8.36l4.35-15.96332z"/><path d="m14.1489 2.38281-14.1489 24.61609h988.666v-24.61609z"/></g></svg>