<svg xmlns="http://www.w3.org/2000/svg" xmlns:xlink="http://www.w3.org/1999/xlink" width="41.732" height="37.202" viewBox="0 0 41.732 37.202">
  <defs>
    <clipPath id="clip-path">
      <path id="Path_393" data-name="Path 393" d="M0,27.094H41.732v-37.2H0Z" transform="translate(0 10.108)" fill="#00c1ff"/>
    </clipPath>
  </defs>
  <g id="Group_491" data-name="Group 491" transform="translate(0 10.108)">
    <g id="Group_493" data-name="Group 493" transform="translate(0 -10.108)" clip-path="url(#clip-path)">
      <g id="Group_491-2" data-name="Group 491" transform="translate(18.421 14.88)">
        <path id="Path_391" data-name="Path 391" d="M5.342,2.71A3.7,3.7,0,0,1,1.673,6.431,3.7,3.7,0,0,1-1.993,2.71,3.7,3.7,0,0,1,1.673-1.011,3.7,3.7,0,0,1,5.342,2.71" transform="translate(1.993 1.011)" fill="#00c1ff"/>
      </g>
      <g id="Group_492" data-name="Group 492" transform="translate(0.001 0.001)">
        <path id="Path_392" data-name="Path 392" d="M.89,22.577H2.112v2.481a3.7,3.7,0,0,0,3.669,3.721h31.95A3.7,3.7,0,0,0,41.4,25.058V-4.706a3.7,3.7,0,0,0-3.666-3.717H5.781A3.7,3.7,0,0,0,2.112-4.706v2.481H.89A1.23,1.23,0,0,0-.332-.985V6.457A1.23,1.23,0,0,0,.89,7.7H2.112v4.961H.89A1.227,1.227,0,0,0-.332,13.9v7.442A1.23,1.23,0,0,0,.89,22.577M33.981,7.7a1.224,1.224,0,1,1,2.447,0v4.961a1.224,1.224,0,1,1-2.447,0Zm-18.34,2.481A6.224,6.224,0,0,1,16.66,6.762L11.11,1.131a1.249,1.249,0,0,1,0-1.752,1.209,1.209,0,0,1,1.73,0l5.55,5.631a5.994,5.994,0,0,1,6.731,0l5.55-5.631a1.209,1.209,0,0,1,1.73,0,1.255,1.255,0,0,1,0,1.752l-5.55,5.631a6.244,6.244,0,0,1,0,6.827l5.55,5.631a1.255,1.255,0,0,1,0,1.752,1.209,1.209,0,0,1-1.73,0l-5.55-5.627a6.012,6.012,0,0,1-6.731,0l-5.55,5.627a1.209,1.209,0,0,1-1.73,0,1.249,1.249,0,0,1,0-1.752l5.55-5.631a6.221,6.221,0,0,1-1.019-3.412" transform="translate(0.332 8.423)" fill="#00c1ff"/>
      </g>
    </g>
  </g>
</svg>
