<svg xmlns="http://www.w3.org/2000/svg" xmlns:xlink="http://www.w3.org/1999/xlink" width="40.001" height="39.555" viewBox="0 0 40.001 39.555">
  <defs>
    <clipPath id="clip-path">
      <path id="Path_390" data-name="Path 390" d="M0,28.216H40V-11.339H0Z" transform="translate(0 11.339)" fill="#00c1ff"/>
    </clipPath>
  </defs>
  <g id="Group_488" data-name="Group 488" transform="translate(0 11.339)">
    <g id="Group_490" data-name="Group 490" transform="translate(0 -11.339)" clip-path="url(#clip-path)">
      <g id="Group_488-2" data-name="Group 488" transform="translate(0 0.002)">
        <path id="Path_388" data-name="Path 388" d="M0,4.81a6.745,6.745,0,0,0,4.591,6.352V31.977a1.3,1.3,0,0,0,1.183,1.165H16.067L14.48,34.377a1.615,1.615,0,0,0-.638,1.263,1.887,1.887,0,0,0,.638,1.4A2.155,2.155,0,0,0,16,37.618,2.185,2.185,0,0,0,17.519,37c5.3-5.09,5.3-5.121,5.3-5.121a2.048,2.048,0,0,0,.576-1.556,2.023,2.023,0,0,0-.708-1.4c0-.031-5.166-4.957-5.166-4.957a2.178,2.178,0,0,0-3.038,0,2.017,2.017,0,0,0-.638,1.458,2.173,2.173,0,0,0,.638,1.524l1.587,1.619H10.7a1.012,1.012,0,0,1-1.047-1V11.033a7.046,7.046,0,0,0,4.423-6.258A6.854,6.854,0,0,0,7.053-1.933,6.931,6.931,0,0,0,0,4.81M7.053,2.183A2.671,2.671,0,0,1,9.788,4.81,2.671,2.671,0,0,1,7.053,7.437,2.673,2.673,0,0,1,4.319,4.81,2.673,2.673,0,0,1,7.053,2.183" transform="translate(0 1.933)" fill="#00c1ff"/>
      </g>
      <g id="Group_489" data-name="Group 489" transform="translate(16.705 0.034)">
        <path id="Path_389" data-name="Path 389" d="M16.618,23.381a6.847,6.847,0,0,0-4.692-6.356V-3.787a1.031,1.031,0,0,0-.98-1.071H.616L2.2-6.12a1.691,1.691,0,0,0,.642-1.3,1.89,1.89,0,0,0-.642-1.4A2.171,2.171,0,0,0,.683-9.4a2.185,2.185,0,0,0-1.517.617L-6.1-3.724a2.038,2.038,0,0,0-.576,1.559A2.023,2.023,0,0,0-5.966-.773L-.8,4.188a2.2,2.2,0,0,0,1.517.617,2.158,2.158,0,0,0,1.521-.586,2.017,2.017,0,0,0,.638-1.458,2.1,2.1,0,0,0-.638-1.493L.616-.319h5.4a.792.792,0,0,1,.844.907V17.123a6.961,6.961,0,0,0-4.319,6.258,6.854,6.854,0,0,0,7.019,6.712,6.929,6.929,0,0,0,7.057-6.712M9.665,26.007a2.629,2.629,0,1,1,0-5.253,2.629,2.629,0,1,1,0,5.253" transform="translate(6.678 9.396)" fill="#00c1ff"/>
      </g>
    </g>
  </g>
</svg>
