<svg fill="none" height="50" viewBox="0 0 19 50" width="19" xmlns="http://www.w3.org/2000/svg"><g fill="#b5bd00"><path d="m18.7411 29.6642-1.3715-12.0951c-.1123-1.349-.7163-2.6098-1.6972-3.5427s-2.2703-1.473-3.6232-1.5176h-5.30863c-1.35169.0449-2.63966.5854-3.61859 1.5185-.97894.9332-1.58046 2.1938-1.69 3.5418l-1.4069533 12.0951c-.0588988.4932-.0135591.9932.1330833 1.4678.146642.4745.391318.913.718183 1.287.269917.3075.597887.5588.965107.7394.36723.1806.76649.2869 1.17488.3128l1.18232 15.5593c.0151.2624.13011.5091.3214.6894s.44434.2805.70721.2801h8.27619c.2633-.0022.5162-.1029.7088-.2824s.3109-.4247.3316-.6871l1.1824-15.5593c.4086-.0246.8083-.1304 1.1757-.311.3674-.1807.6952-.4327.9642-.7412.3311-.3721.5801-.8096.7308-1.2843.1508-.4746.1999-.9757.1442-1.4705zm-2.3647 1.3714c-.097.1086-.2153.1961-.3474.2571-.1322.061-.2755.0942-.4211.0976h-.7921c-.2633.0022-.5162.1029-.7088.2824s-.311.4247-.3317.6871l-1.1823 15.5593h-6.39629l-1.18232-15.5593c-.018-.2634-.13552-.5102-.32872-.6902s-.44764-.2799-.71171-.2793h-.74486c-.1458-.0019-.28956-.0345-.42195-.0956-.1324-.0611-.25047-.1494-.34656-.2591-.13876-.1608-.24122-.3497-.30039-.5537s-.07366-.4184-.04248-.6286l1.38331-12.0477c.05358-.8394.41275-1.6301 1.00965-2.2226s1.39016-.9459 2.22989-.9933h5.32043c.8397.0474 1.633.4008 2.2299.9933s.956 1.3832 1.0096 2.2226l1.3833 12.095c.0243.2026.0064.4081-.0526.6034-.059.1954-.1578.3764-.2902.5316z"/><path d="m9.40053 10.428c1.03127 0 2.03927-.3058 2.89677-.87871.8574-.57292 1.5257-1.38723 1.9203-2.33997.3947-.95273.4979-2.0011.2967-3.01251-.2011-1.01142-.6977-1.94047-1.4269-2.66966-.7292-.729193-1.6583-1.225778-2.6697-1.426962-1.01139-.201184-2.05975-.09792886-3.01249.296707-.95273.394635-1.76705 1.062925-2.33997 1.920365s-.87872 1.86551-.87872 2.89675c.00313 1.38188.55346 2.70627 1.5306 3.68341.97714.97713 2.30153 1.52748 3.68341 1.53058zm0-8.27619c.62267.00016 1.23117.18585 1.74777.53336.5167.34751.9181.84109 1.153 1.41774s.2927 1.21022.166 1.81984c-.1268.60963-.4323 1.16766-.8776 1.60288-.4453.43521-1.0102.72788-1.62258.84064-.61236.11276-1.24444.04051-1.81556-.20755-.57112-.24805-1.05538-.66065-1.39097-1.18514-.33559-.52448-.50729-1.13707-.49319-1.75957.00312-.82891.3346-1.6228.92184-2.20782s1.38237-.9135 2.21129-.91349z"/></g></svg>