<svg fill="none" height="50" viewBox="0 0 23 50" width="23" xmlns="http://www.w3.org/2000/svg"><g fill="#b5bd00"><path d="m15.991 13.3324c-.0597-.2069-.1857-.3885-.3588-.5166-.173-.1282-.3834-.1959-.5987-.1926h-7.9906c-.21438.0006-.42294.0697-.59521.1973-.17226.1276-.2992.307-.36225.5119l-6.0402394 21.3713c-.04696261.1493-.0575186.3077-.0307863.4619.0267323.1543.0899767.2999.1844517.4247.094216.1241.215702.2249.355073.2946.139372.0696.292897.1064.448721.1073h4.04258v13.0024c-.00001.2645.10422.5183.29009.7063.18588.1881.43841.2954.70283.2985h10.00004c.1314 0 .2615-.0261.3828-.0767.1212-.0507.2312-.1249.3236-.2183.0923-.0935.1652-.2043.2144-.3262.0492-.1218.0737-.2522.0722-.3836v-13.0024h4.0071c.2644-.0032.5169-.1104.7028-.2985s.2901-.4418.2901-.7063c.0114-.0942.0114-.1895 0-.2837zm0 20.6621c-.2645 0-.5183.1042-.7063.2901-.1881.1859-.2954.4384-.2985.7028v13.0025h-2.9433v-13.0025c-.0031-.2644-.1103-.5169-.2984-.7028s-.4419-.2901-.7063-.2901c-.2633 0-.5159.1046-.7021.2908s-.2908.4388-.2908.7021v13.0025h-3.0024v-13.0025c-.00311-.2644-.11034-.5169-.29843-.7028s-.44187-.2901-.70631-.2901h-3.62887l5.3783-19.3737h6.50121l5.402 19.3737z"/><path d="m11.0389 10.4256c1.0315.0024 2.0405-.3014 2.8993-.87275.8588-.57137 1.5288-1.38468 1.9251-2.33699.3964-.95231.5013-2.0008.3015-3.01276-.1998-1.01197-.6954-1.94191-1.4239-2.67211-.7286-.730212-1.6574-1.227859-2.6689-1.429957-1.0115-.202097-2.0602-.09955858-3.01341.294637-.95321.394196-1.76804 1.06233-2.34135 1.91982-.57332.8575-.87935 1.86581-.87935 2.89731 0 1.38048.54758 2.70459 1.52262 3.68184.97503.97725 2.2979 1.52786 3.67839 1.53096zm0-8.27429c.623-.00219 1.2325.18145 1.7506.52745.5181.34601.9213.83865 1.158 1.41497.2367.57631.2961 1.21012.1707 1.82039-.1254.61028-.4299 1.1693-.8746 1.60561-.4448.43631-1.0095.73009-1.6221.84379-.6125.11369-1.2451.04214-1.81676-.20551-.57168-.24766-1.05653-.66017-1.39256-1.1848-.33604-.52463-.508-1.13755-.49389-1.76041 0-.82763.32877-1.62137.914-2.20659.58522-.58523 1.37891-.914 2.20661-.914z"/></g></svg>