<svg fill="none" height="1117" viewBox="0 0 1728 1117" width="1728" xmlns="http://www.w3.org/2000/svg" xmlns:xlink="http://www.w3.org/1999/xlink"><linearGradient id="a" gradientUnits="userSpaceOnUse" x1="1248.85" x2="1914.96" y1="1108.75" y2="13.6879"><stop offset="0" stop-color="#9ba300"/><stop offset=".22" stop-color="#9ba300"/><stop offset=".44" stop-color="#32a2c7"/><stop offset=".74" stop-color="#0087c6"/><stop offset="1" stop-color="#0072b4"/></linearGradient><clipPath id="b"><path d="m0 0h1728v1117h-1728z"/></clipPath><g clip-path="url(#b)"><path d="m0 0h1728v1117h-1728z" fill="#fff"/><path d="m0 0h1728v1117h-1728z" fill="#b5bd00" fill-opacity=".05"/><path d="m1462.43 1117c-27.43-28.5-23.41-61-20.93-76.5 4.25-26.54 16.77-35.37 36.95-52.546 12.59-10.704 27.94-18.68 39.04-30.968 7.85-8.692 13.36-20.141 12.4-31.809-.7-8.701-4.88-16.715-9.31-24.233-9.24-15.705-19.94-30.504-31.96-44.201-10.55-11.993-22.2-23.27-30.15-37.122-7.95-13.853-11.75-31.227-5.37-45.881 16.08-36.865 75.44-52.473 102.46-81.591 28.99-31.198 17.34-62.825-26.77-66.784-57.1-5.19-114.05 9.436-171.11 3.645-61.87-6.307-131.04-49.745-106.49-119.725 7.27-20.722 17.17-42.446 11.82-63.731-4.09-16.152-16.47-28.917-29.79-38.926-16.62-12.498-34.88-22.611-49.14-38.038-21.21-22.935-29.38-55.011-26.53-85.731 3.45-36.345 18.96-70.49 44.06-96.999 30.21-31.761 85.97-64.485 95.73-109.9553 6.69-31.1594-16.32-57.1766-38.38-75.9047h469.54v1117z" fill="url(#a)"/></g></svg>