<svg fill="none" height="68" viewBox="0 0 68 68" width="68" xmlns="http://www.w3.org/2000/svg"><g fill="#b5bd00"><path d="m65.0881 43.3479h-16.7188v-5.7803h5.0479c.366-.0203.7103-.18.9622-.4463s.3923-.619.3923-.9855c0-.3666-.1404-.7192-.3923-.9855s-.5962-.426-.9622-.4464h-38.8914c-.366.0204-.7103.1801-.9622.4464-.252.2663-.3923.6189-.3923.9855 0 .3665.1403.7192.3923.9855.2519.2663.5962.426.9622.4463h5.0523v5.7759h-16.71883v-40.48423h62.21563zm-25.376 12.9594v-18.7397h5.7803v16.1187c0 .6951-.2762 1.3618-.7677 1.8533-.4915.4916-1.1582.7677-1.8533.7677zm-17.2836-2.621v-16.1187h14.4331v18.7397h-11.7989c-.6951 0-1.3618-.2761-1.8533-.7677-.4915-.4915-.7677-1.1582-.7677-1.8533zm38.1986 11.4018h-53.31125v-18.8809h12.26225v7.5012c.0081 1.4501.5893 2.8381 1.6167 3.8614 1.0275 1.0233 2.4178 1.5989 3.8679 1.6012h17.8219c1.4539-.0023 2.8476-.5809 3.8757-1.609s1.6067-2.4218 1.609-3.8757v-7.5012h12.2578zm7.3203-20.2973v-43.36117c-.0012-.3788-.1522-.741757-.42-1.009614-.2679-.267857-.6309-.41885223-1.0097-.420016h-65.08807c-.37916 0-.742791.150622-1.0109.41873-.268108.268109-.41873.63174-.41873 1.0109v43.34797c0 .3791.150622.7428.41873 1.0109.268109.2681.63174.4187 1.0109.4187h3.02695v20.2973c-.00234.1892.03291.377.10371.5525s.17574.3352.30873.4698c.13298.1347.29138.2415.46599.3145.17461.0729.36197.1105.5512.1105h56.17489c.3789-.0012.7418-.1522 1.0097-.42.2678-.2679.4188-.6309.42-1.0097v-20.2972h3.0269c.3788-.0012.7418-.1522 1.0097-.4201.2678-.2678.4188-.6308.42-1.0096"/><path d="m45.5056 26.059h-33.87v-14.4243h33.87zm1.4297-17.28361h-36.7293c-.3788.00116-.74176.15216-1.00962.42002-.26785.26785-.41885.63081-.42001 1.00959v17.2836c0 .3796.15048.7437.41846 1.0125s.6316.4204 1.01117.4216h36.7293c.3799-.0012.744-.1527 1.0127-.4214.2687-.2686.4201-.6327.4213-1.0127v-17.2836c-.0012-.37954-.1528-.74316-.4216-1.01115-.2688-.26798-.6329-.41846-1.0124-.41846z"/><path d="m57.7368 8.77564h-2.1401c-.366.02033-.7103.18004-.9622.44633-.2519.2663-.3923.61895-.3923.98553 0 .3666.1404.7192.3923.9855s.5962.426.9622.4463h2.1577c.1947.0108.3896-.0182.5727-.0852.1831-.0671.3507-.1708.4923-.3049.1417-.134.2546-.2955.3317-.4746s.1169-.3721.1169-.5671-.0398-.388-.1169-.56712-.19-.34063-.3317-.47465c-.1416-.13402-.3092-.23774-.4923-.30481s-.378-.09609-.5727-.08528"/><path d="m57.7367 17.4209h-2.14c-.3815 0-.7474.1516-1.0172.4213-.2697.2698-.4213.6357-.4213 1.0172s.1516.7473.4213 1.0171c.2698.2698.6357.4213 1.0172.4213h2.1577c.3791 0 .7428-.1506 1.0109-.4187s.4187-.6318.4187-1.0109c0-.3792-.1506-.7428-.4187-1.0109s-.6318-.4188-1.0109-.4188"/><path d="m57.7367 26.0654h-2.1401c-.3791 0-.7428.1507-1.0109.4188s-.4187.6317-.4187 1.0109c0 .3791.1506.7428.4187 1.0109s.6318.4187 1.0109.4187h2.1577c.3792 0 .7428-.1506 1.0109-.4187s.4188-.6318.4188-1.0109c0-.3792-.1507-.7428-.4188-1.0109s-.6317-.4188-1.0109-.4188"/></g></svg>