<svg fill="none" height="238" viewBox="0 0 390 238" width="390" xmlns="http://www.w3.org/2000/svg" xmlns:xlink="http://www.w3.org/1999/xlink"><linearGradient id="a" gradientUnits="userSpaceOnUse" x1="396.5" x2="49" y1="243" y2="20"><stop offset="0" stop-color="#9aa200"/><stop offset=".22" stop-color="#9aa200"/><stop offset=".44" stop-color="#32a1c6"/><stop offset=".74" stop-color="#0086c5"/><stop offset="1" stop-color="#0072b3"/></linearGradient><clipPath id="b"><path d="m0-125h390v371h-390z"/></clipPath><g clip-path="url(#b)"><path d="m-32 243.18s23.92003-243.410316 156.26-241.82029c132.34 1.59002 294.63 124.40029 334.49 38.30009 39.86-86.1-1.27-243.1198 294.69-192.9998v130.7798s-158.35-83.0898-204.54-7.74c-21.44 34.99997-41.24 78-75.59 102.48-19.74 14.05-41.77 19.21-65.84 16.61-20.47-2.2-40.59-8-61.17-8-50.2-.0001-86.09 37.0002-118.77 70.4802-14.8 15.17-28.87 31.69-39.5 50.11-1.34 2.28-18.18 41.8-12.7 41.8z" fill="url(#a)"/></g></svg>