<svg fill="none" height="844" viewBox="0 0 390 844" width="390" xmlns="http://www.w3.org/2000/svg" xmlns:xlink="http://www.w3.org/1999/xlink"><linearGradient id="a"><stop offset="0" stop-color="#ffa01d"/><stop offset=".22" stop-color="#ffa01d"/><stop offset=".44" stop-color="#32a4c9"/><stop offset=".74" stop-color="#0089c8"/><stop offset="1" stop-color="#0072b6"/></linearGradient><linearGradient id="b" gradientUnits="userSpaceOnUse" x1="91.3215" x2="725.333" xlink:href="#a" y1="-745.543" y2="-618.776"/><linearGradient id="c" gradientUnits="userSpaceOnUse" x1="373.812" x2="1031.84" xlink:href="#a" y1="-329.793" y2="464.151"/><mask id="d" height="844" maskUnits="userSpaceOnUse" width="390" x="0" y="0"><path d="m0 0h390v844h-390z" fill="url(#b)"/></mask><path d="m0 0h390v844h-390z" fill="#fff"/><path d="m0 0h390v844h-390z" fill="#ffb81d" fill-opacity=".05"/><g mask="url(#d)"><path d="m150-26.9378h403.786c2.331 0 8.611 14.7735 9.458 16.4918 6.972 14.00213 11.92 28.9249 14.695 44.3204 3.233 18.4279 3.583 39.5073-1.811 57.5387-7.079 23.7149-19.047 45.2919-24.417 69.7769s-10.437 68.635 10.041 88.478c2.006 2.092 4.58 3.552 7.405 4.199 14.37 2.705 40.038-23.164 50.296-31.165 18.006-14.034 35.483-28.73 53.497-42.765 24.721-19.252 49.612-40.992 80.153-50.268 44.545-13.538 69.288 16.577 108.525 28.971 12.753 4.036 27.277 4.354 38.965-2.162 6.893-3.833 12.388-9.789 17.035-16.165 19.187-26.289 26.337-60.3066 32.693-91.6496.778-4.0355 9.932-75.6634 9.613-75.6634h145.886c-103.03 46.8552-123.567 176.317-209.509 241.732-23.539 18.032-49.277 41.281-79.103 47.664-11.416 2.45-24.985-.179-31.404-9.937-7.724-11.733-4.367-27.315-11.804-39.593-6.823-11.251-18.185-19.501-31.326-21.367-11.844-1.687-23.92.778-35.258 4.557-35.406 11.803-63.554 36.467-90.403 61.426-20.524 19.097-36.237 42.812-63.149 53.923-9.139 3.771-19.428 5.84-28.933 3.165-39.633-11.142-19.762-87.925-10.335-114.222 8.167-22.79 19.148-44.437 27.898-67.002 3.56-9.151 6.792-18.661 7.111-28.442 1.259-38.1548-42.174-50.4012-73.05-45.6737-41.102 6.2981-59.947 53.5107-81.66 83.3927-11.509 15.846-26.034 30.674-44.716 36.544-33.579 10.552-56.069-13.809-59.838-45.269-3.287-27.665-.529-56.4497-16.646-80.8648-16.118-24.4151-40.411-43.11513-65.527-57.80305-15.768-9.27615-38.957-22.16795-58.168-22.16795z" fill="url(#c)"/></g></svg>