<svg fill="none" height="74" viewBox="0 0 74 74" width="74" xmlns="http://www.w3.org/2000/svg"><g fill="#b5bd00"><path d="m47.8836 33.4042h22.8732v12.685c-.0045.7511-.307 1.4698-.8409 1.9982-.534.5283-1.2558.8231-2.007.8197h-20.0253zm0-9.2847h20.0253c.7505-.0034 1.4716.2909 2.0055.8183.5338.5274.8368 1.245.8424 1.9954v3.3961h-22.8732zm-3.1092 45.8237h-41.66524v-59.7549h8.77924v6.2097h-.7922c-.4078 0-.7988.162-1.0872.4503-.28829.2884-.45028.6794-.45028 1.0872 0 .4077.16199.7988.45028 1.0871.2884.2883.6794.4503 1.0872.4503h25.8368c.4077 0 .7988-.162 1.0871-.4503.2884-.2883.4503-.6794.4503-1.0871 0-.4078-.1619-.7988-.4503-1.0872-.2883-.2883-.6794-.4503-1.0871-.4503h-.7923v-6.2097h8.6337zm-29.7854-66.72267h18.0383v13.17747h-18.0383zm58.8641 42.86867v-19.156c-.0113-1.5701-.6447-3.0717-1.7614-4.1756-1.1167-1.1038-2.6255-1.7198-4.1956-1.713h-20.0125v-12.39804c-.0012-.20303-.0423-.40385-.121-.59099s-.1936-.35694-.3379-.49971c-.1444-.14276-.3154-.2557-.5034-.33235s-.3893-.11553-.5923-.1144h-10.1883v-5.56736c-.0005-.20338-.0412-.40466-.1197-.592298-.0785-.187636-.1932-.357943-.3376-.501162-.1445-.143219-.3157-.256536-.504-.333457-.1883-.0769219-.3899-.11593659-.5933-.11480901h-21.1388c-.4104-.00228164-.805.15828501-1.0972.44649201-.2922.288208-.4583.680534-.4617 1.090954v5.56736h-10.33382c-.20339-.00113-.405.03789-.593277.11481-.188281.07692-.359534.19024-.503947.33345-.144412.14322-.259146.31353-.337628.50117-.0784813.18763-.11916772.38891-.119728.5923v62.83834c.00112168.203.0422221.4038.120955.591.078732.1871.193555.3569.337911.4997.144357.1428.31542.2557.503423.3323.188001.0767.389261.1156.592291.1144h44.77442c.203.0012.4043-.0377.5923-.1144.188-.0766.359-.1895.5034-.3323.1443-.1428.2592-.3126.3379-.4997.0787-.1872.1198-.388.121-.591v-19.5029h20.0253c1.5709.0068 3.0803-.6098 4.1972-1.7145 1.1168-1.1048 1.7497-2.6074 1.7599-4.1783"/><path d="m35.3778 36.1363h-22.7276v-7.3746h22.7276zm1.5546-10.441h-25.8368c-.203-.0011-.4043.0378-.5923.1144-.188.0767-.3591.1896-.50342.3324-.14435.1428-.25918.3126-.33791.4997s-.11983.388-.12095.591v10.4538c.00112.203.04222.4038.12095.591.07873.1871.19356.3569.33791.4997.14432.1427.31542.2557.50342.3323.188.0767.3893.1155.5923.1144h25.8368c.203.0011.4043-.0377.5923-.1144.188-.0766.3591-.1896.5034-.3323.1444-.1428.2592-.3126.3379-.4997.0788-.1872.1199-.388.121-.591v-10.4624c-.0045-.4085-.1706-.7987-.4619-1.0851-.2913-.2865-.6841-.4461-1.0927-.4438"/><path d="m13.4472 45.4199h-2.3512c-.4077 0-.7988.162-1.0871.4503-.28833.2884-.45031.6794-.45031 1.0872 0 .4077.16198.7988.45031 1.0871.2883.2883.6794.4503 1.0871.4503h2.3512c.4077 0 .7988-.162 1.0871-.4503s.4503-.6794.4503-1.0871c0-.4078-.162-.7988-.4503-1.0872-.2883-.2883-.6794-.4503-1.0871-.4503"/><path d="m25.1913 45.4199h-2.3511c-.4078 0-.7988.162-1.0872.4503-.2883.2884-.4503.6794-.4503 1.0872 0 .4077.162.7988.4503 1.0871.2884.2883.6794.4503 1.0872.4503h2.3511c.4078 0 .7988-.162 1.0872-.4503.2883-.2883.4503-.6794.4503-1.0871 0-.4078-.162-.7988-.4503-1.0872-.2884-.2883-.6794-.4503-1.0872-.4503"/><path d="m36.9331 45.4199h-2.3468c-.4078 0-.7988.162-1.0872.4503-.2883.2884-.4503.6794-.4503 1.0872 0 .4077.162.7988.4503 1.0871.2884.2883.6794.4503 1.0872.4503h2.3468c.4078 0 .7988-.162 1.0872-.4503.2883-.2883.4503-.6794.4503-1.0871 0-.4078-.162-.7988-.4503-1.0872-.2884-.2883-.6794-.4503-1.0872-.4503"/><path d="m13.4472 53.5322h-2.3512c-.4077 0-.7988.162-1.0871.4503-.28833.2884-.45031.6794-.45031 1.0872 0 .4077.16198.7988.45031 1.0871.2883.2883.6794.4503 1.0871.4503h2.3512c.4077 0 .7988-.162 1.0871-.4503s.4503-.6794.4503-1.0871c0-.4078-.162-.7988-.4503-1.0872-.2883-.2883-.6794-.4503-1.0871-.4503"/><path d="m25.1913 53.5322h-2.3511c-.4078 0-.7988.162-1.0872.4503-.2883.2884-.4503.6794-.4503 1.0872 0 .4077.162.7988.4503 1.0871.2884.2883.6794.4503 1.0872.4503h2.3511c.4078 0 .7988-.162 1.0872-.4503.2883-.2883.4503-.6794.4503-1.0871 0-.4078-.162-.7988-.4503-1.0872-.2884-.2883-.6794-.4503-1.0872-.4503"/><path d="m36.9331 53.5322h-2.3468c-.4078 0-.7988.162-1.0872.4503-.2883.2884-.4503.6794-.4503 1.0872 0 .4077.162.7988.4503 1.0871.2884.2883.6794.4503 1.0872.4503h2.3468c.4078 0 .7988-.162 1.0872-.4503.2883-.2883.4503-.6794.4503-1.0871 0-.4078-.162-.7988-.4503-1.0872-.2884-.2883-.6794-.4503-1.0872-.4503"/><path d="m13.4472 61.6689h-2.3512c-.4077 0-.7988.162-1.0871.4504-.28833.2883-.45031.6793-.45031 1.0871 0 .4077.16198.7988.45031 1.0871.2883.2884.6794.4503 1.0871.4503h2.3512c.4077 0 .7988-.1619 1.0871-.4503.2883-.2883.4503-.6794.4503-1.0871 0-.4078-.162-.7988-.4503-1.0871-.2883-.2884-.6794-.4504-1.0871-.4504"/><path d="m25.1913 61.6689h-2.3511c-.4078 0-.7988.162-1.0872.4504-.2883.2883-.4503.6793-.4503 1.0871 0 .4077.162.7988.4503 1.0871.2884.2884.6794.4503 1.0872.4503h2.3511c.4078 0 .7988-.1619 1.0872-.4503.2883-.2883.4503-.6794.4503-1.0871 0-.4078-.162-.7988-.4503-1.0871-.2884-.2884-.6794-.4504-1.0872-.4504"/><path d="m36.9331 61.6689h-2.3468c-.4078 0-.7988.162-1.0872.4504-.2883.2883-.4503.6793-.4503 1.0871 0 .4077.162.7988.4503 1.0871.2884.2884.6794.4503 1.0872.4503h2.3468c.4078 0 .7988-.1619 1.0872-.4503.2883-.2883.4503-.6794.4503-1.0871 0-.4078-.162-.7988-.4503-1.0871-.2884-.2884-.6794-.4504-1.0872-.4504"/></g></svg>