<svg fill="none" height="10" viewBox="0 0 340 10" width="340" xmlns="http://www.w3.org/2000/svg"><g fill="#fff"><path d="m204.495 6.98554c.026.39655-.044.79344-.202 1.15653s-.4.68151-.705.9279c-.646.45897-1.424.68367-2.209.63821-.631.0031-1.257-.10271-1.853-.31294-.26-.07651-.506-.19569-.728-.35286l.538-1.06965c.608.31618 1.278.48597 1.96.49636.383.01423.762-.08559 1.09-.2873.164-.09765.3-.23894.393-.40893.092-.17.138-.36239.133-.55683.002-.15759-.033-.31345-.102-.45427s-.171-.26241-.296-.35438c-.426-.25585-.882-.45341-1.358-.58757-.554-.15885-1.075-.4198-1.538-.77001-.239-.21307-.428-.47879-.552-.7772-.125-.2984-.181-.6217-.165-.94559-.022-.37308.047-.74576.201-1.08489.154-.33914.387-.63421.679-.85898.604-.435371 1.333-.651309 2.07-.613216.825-.026624 1.643.147639 2.388.508366l-.357 1.09659c-.62-.22321-1.272-.3379-1.929-.33924-.356-.01507-.708.0801-1.009.27301-.147.09912-.266.23507-.347.3948-.08.15974-.119.3379-.113.5174 0 .17063.047.33788.135.48288s.214.26199.364.33778c.475.2375.972.42942 1.482.57329.521.14325 1.004.40095 1.417.75508.209.20941.371.46179.477.74036.106.27858.152.57696.136.8753z"/><path d="m209.094 9.27129c-.581.27851-1.211.43378-1.852.45642-.937 0-1.478-.39149-1.621-1.17449-.059-.37073-.085-.74612-.077-1.12159v-3.00052h-1.023v-.86188l1.022-.19478.217-1.73642 1.329-.23373v1.97015h1.826l-.153 1.05666h-1.673v3.22029c-.017.22309.018.447.102.6538.061.09595.147.17253.249.22115.102.04863.214.06737.326.05413.344-.01729.685-.08744 1.009-.20808z"/><path d="m214.383 9.58539h-1.29l-.115-.70444c-.22.25791-.491.46562-.795.60959-.303.14397-.633.22098-.968.226-.24.01463-.48-.02719-.702-.12225-.221-.09506-.419-.24081-.576-.42604-.291-.39813-.435-.88757-.409-1.38324-.023-.37559.079-.74813.291-1.05643.211-.30829.519-.53401.872-.64006.723-.18343 1.464-.27984 2.209-.2873v-.32462c.033-.29221-.039-.58667-.204-.8278-.232-.17441-.519-.25218-.805-.2175-.532.02205-1.059.10924-1.57.2597l-.267-.89921c.74-.35167 1.545-.53835 2.361-.54765.869 0 1.44.23936 1.713.71807.169.30299.254.88126.254 1.73481zm-1.482-1.4975v-1.50237c-.416.00661-.828.07216-1.226.19478-.197.05773-.369.18072-.489.34952-.121.16879-.182.37376-.176.58248-.018.11474-.009.23209.026.34273.035.11063.094.2115.173.29458.08.08308.177.14608.285.18399.107.03792.222.0497.334.03441.4-.03582.776-.20449 1.073-.48012z"/><path d="m220.731 9.58539h-1.545v-3.75787c.016-.29098-.019-.58259-.102-.86124-.05-.13521-.142-.24972-.262-.32531s-.262-.10791-.402-.09183c-.51.05338-.996.24703-1.406.5603v4.47595h-1.546v-6.21075h1.329l.114.82131c.792-.63454 1.491-.95181 2.097-.95181.742 0 1.24.25646 1.494.76937.183.48591.261 1.00622.23 1.52574z"/><path d="m227.259 9.58667h-1.341l-.102-.74372c-.204.27249-.467.49329-.769.64528-.301.15199-.632.23111-.968.23121-.366.01289-.728-.0763-1.048-.25798-.319-.18167-.584-.44894-.766-.77303-.361-.65659-.538-1.40224-.511-2.15487-.031-.76294.127-1.52155.459-2.20552.163-.33831.419-.62083.737-.81307.317-.19225.683-.28591 1.052-.26955.64.03951 1.246.30733 1.712.7567v-3.366375l1.545-.235354zm-1.545-1.80038v-2.77945c-.33-.2747-.738-.4347-1.163-.45675-.791 0-1.187.64795-1.188 1.94386 0 1.27925.375 1.91865 1.125 1.91822.237-.00293.471-.06077.683-.16917.213-.1084.398-.26454.543-.45671z"/><path d="m233.199 9.58539h-1.289l-.116-.70444c-.219.25809-.49.46592-.793.60991-.304.14399-.634.22089-.968.22568-.24.01468-.48-.02713-.702-.1222-.221-.09506-.418-.24085-.576-.42609-.291-.39761-.437-.88729-.41-1.38324-.023-.37557.079-.74805.291-1.05632.211-.30827.518-.53401.872-.64017.723-.18348 1.464-.2799 2.209-.2873v-.32462c.033-.29221-.039-.58667-.204-.8278-.232-.17441-.52-.25218-.805-.2175-.532.0221-1.059.10929-1.571.2597l-.269-.90051c.742-.35134 1.547-.53758 2.364-.54635.869 0 1.439.23936 1.712.71807.169.30299.254.88126.254 1.73481zm-1.481-1.4975v-1.50237c-.416.00661-.829.07216-1.227.19478-.196.05773-.368.18072-.488.34952-.121.16879-.183.37376-.176.58248-.018.11465-.009.2319.026.34245.034.11055.094.21136.173.29441.079.08306.176.14609.284.18408.107.03798.222.04989.334.03477.4-.03561.777-.2043 1.074-.48012z"/><path d="m237.951 4.65305c-.391-.01299-.781.05548-1.146.20125-.364.14578-.696.3658-.975.64668v4.08445h-1.545v-6.21075h1.328l.115 1.03036c.201-.25568.438-.48008.702-.66613.444-.32446.976-.49761 1.521-.49473z"/><path d="m243.789 9.58667h-1.341l-.102-.74372c-.205.27249-.468.49329-.769.64528s-.633.23111-.969.23121c-.365.01289-.727-.0763-1.047-.25798-.319-.18167-.584-.44894-.766-.77303-.362-.65659-.538-1.40224-.511-2.15487-.031-.76294.126-1.52155.459-2.20552.163-.33844.419-.62105.737-.81331.317-.19226.683-.28584 1.052-.26931.64.03942 1.246.30726 1.712.7567v-3.366375l1.545-.235354zm-1.545-1.80038v-2.77945c-.33-.2747-.738-.4347-1.163-.45675-.792 0-1.188.64795-1.187 1.94386 0 1.27925.374 1.91865 1.123 1.91822.238-.003.471-.06087.684-.16927.212-.10839.398-.2645.543-.45661z"/><path d="m253.46 7.22471c.031.45691-.088.91124-.338 1.29152-.25.38027-.617.66491-1.042.80914-.434.17313-1.252.2597-2.453.2597h-2.094v-8.702258h2.363c1.082 0 1.84.091221 2.274.273658.732.31402 1.098.94488 1.098 1.89257 0 1.17364-.592 1.86076-1.775 2.06138 1.311.13981 1.967.84457 1.967 2.11429zm-1.75-3.99323c.02-.19105-.01-.38421-.089-.55878-.079-.17458-.202-.32401-.358-.4323-.421-.17513-.876-.24695-1.329-.20971h-.817v2.55871h.651c.46.03121.922-.04012 1.353-.20906.392-.19045.589-.5734.589-1.14886zm.102 3.79066c.026-.24489-.026-.49186-.148-.70438-.122-.21251-.307-.37928-.529-.47563-.389-.11924-.796-.16802-1.201-.14414h-.817v2.74017h.588c.496.03489.995-.02759 1.469-.18406.425-.20971.638-.6209.638-1.23358"/><path d="m258.89 9.58539h-1.291l-.114-.70444c-.22.25791-.49.46562-.794.60959s-.634.22098-.969.226c-.24.01463-.48-.02719-.701-.12225-.222-.09506-.419-.24081-.577-.42604-.291-.39798-.435-.88753-.408-1.38324-.024-.37538.078-.74776.289-1.05602.211-.30827.519-.53411.872-.64047.723-.18346 1.465-.27988 2.21-.2873v-.32462c.032-.29216-.041-.58638-.205-.8278-.231-.17407-.518-.25183-.804-.2175-.531.0221-1.059.10929-1.57.2597l-.269-.90051c.741-.35127 1.546-.53751 2.363-.54635.869 0 1.439.23936 1.712.71807.169.30299.255.88126.256 1.73481zm-1.482-1.4975v-1.50237c-.415.00669-.828.07224-1.226.19478-.196.05773-.368.18072-.489.34952-.12.16879-.182.37376-.176.58248-.017.11465-.008.2319.026.34245.035.11055.094.21136.173.29441.08.08306.177.14609.284.18408.108.03798.222.04989.335.03477.399-.03561.776-.2043 1.073-.48012z"/><path d="m265.493 9.58539h-1.546v-3.75787c.016-.29101-.019-.58257-.103-.86124-.049-.13506-.142-.24939-.262-.32493s-.262-.10798-.402-.09221c-.51.05363-.995.24726-1.406.5603v4.47595h-1.545v-6.21075h1.328l.115.82131c.793-.63454 1.491-.95181 2.095-.95181.741 0 1.238.25646 1.494.76937.183.48593.261 1.00619.231 1.52574z"/><path d="m266.848.635095v8.950915h1.546v-2.92163l2.209 2.92163h1.776l-2.554-3.2495 2.389-2.9606h-1.639l-2.181 2.76582v-5.741339z"/><path d="m284.433 0-1.433 1.84615h1.307l2.022-1.84615zm-3.069 2.27531-2.07 7.5534h5.441l.451-1.64293h-3.445l.383-1.39817h2.336l.437-1.59359h-2.337l.336-1.22384h3.273l.465-1.69487z"/><path d="m290.659 2.27344h2.767c1.577 0 3.101.33728 2.49 2.57201-.612 2.23473-2.452 2.57331-3.9 2.57331h-.79l-.66 2.40808h-1.976zm1.852 3.59393c.929 0 1.287-.39864 1.443-.97063.157-.57199.016-.97063-.913-.97063h-.858l-.531 1.94126z"/><path d="m296.166 6.0517c.757-2.76679 2.922-3.92084 4.708-3.92084 1.778 0 3.309 1.15307 2.551 3.91986-.757 2.76679-2.92 3.92051-4.697 3.92051-1.788 0-3.319-1.15307-2.562-3.91953zm5.263 0c.381-1.38843.023-2.23473-1.017-2.23473-1.047 0-1.868.8463-2.249 2.23473-.381 1.38842-.037 2.28601 1.012 2.28601 1.038 0 1.875-.89759 2.254-2.28601z"/><path d="m303.358 8.16729 1.734-.94141c.112.34556.331.64441.624.85092s.644.30932 1 .29274c.61 0 1.119-.18342 1.248-.6538.131-.47915-.409-.66386-1.087-.84727-1.121-.31424-2.642-.63075-2.173-2.3464.422-1.541 1.794-2.3873 3.471-2.3873 1.567 0 2.302.74436 2.688 1.47964l-1.643 1.12223c-.151-.27721-.368-.51017-.632-.67638-.265-.16621-.566-.26006-.876-.2725-.569 0-.912.19478-1.01.55187-.137.49895.392.68236 1.071.8661 1.127.29509 2.642.67327 2.177 2.36815-.331 1.20598-1.487 2.40028-3.764 2.40028-1.687 0-2.483-.77585-2.828-1.80687z"/><path d="m310.338 8.16729 1.735-.94141c.111.34556.33.64441.623.85092.294.20651.645.30932 1.001.29274.609 0 1.119-.18342 1.247-.6538.131-.47915-.408-.66386-1.087-.84727-1.12-.31424-2.642-.63075-2.173-2.3464.423-1.541 1.794-2.3873 3.472-2.3873 1.567 0 2.301.74436 2.688 1.47964l-1.644 1.12223c-.15-.27721-.368-.51017-.632-.67638s-.566-.26006-.876-.2725c-.569 0-.912.19478-1.009.55187-.138.49895.391.68236 1.071.8661 1.126.29509 2.641.67327 2.176 2.36815-.331 1.20598-1.487 2.40028-3.763 2.40028-1.688 0-2.483-.77585-2.829-1.80687z"/><path d="m321.252 0-1.434 1.84615h1.308l2.023-1.84615zm-1.742 2.27531-2.069 7.5534h1.997l2.07-7.5534z"/><path d="m327.43 2.27344-2.904 4.90932h-.019l-.134-4.90932h-2.017l.44 7.58424h1.897l4.593-7.58424z"/><path d="m330.075 2.27344-2.069 7.5534h5.441l.451-1.64293h-3.445l.382-1.39817h2.337l.436-1.59294h-2.336l.336-1.22449h3.275l.465-1.69487z"/><path d="m336.516 2.27344-2.069 7.5534h5.103l.45-1.64293h-3.106l1.618-5.91047z"/><path d="m5.25458.884766-5.25458 9.114204h187.24v-9.114204z"/></g></svg>