<svg fill="none" height="1117" viewBox="0 0 1728 1117" width="1728" xmlns="http://www.w3.org/2000/svg" xmlns:xlink="http://www.w3.org/1999/xlink"><linearGradient id="a"><stop offset="0" stop-color="#9aa200"/><stop offset=".22" stop-color="#9aa200"/><stop offset=".44" stop-color="#32a1c6"/><stop offset=".74" stop-color="#0086c5"/><stop offset="1" stop-color="#0072b3"/></linearGradient><linearGradient id="b" gradientUnits="userSpaceOnUse" x1="257.721" x2="1187.81" xlink:href="#a" y1="1141.95" y2="-45.1206"/><linearGradient id="c" gradientUnits="userSpaceOnUse" x1="971.844" x2="1773.91" xlink:href="#a" y1="1434.49" y2="409.63"/><clipPath id="d"><path d="m0 0h1728v1117h-1728z"/></clipPath><g clip-path="url(#d)"><path d="m0 0h1728v1117h-1728z" fill="#fff"/><path d="m0 0h1728v1117h-1728z" fill="#b5bd00" fill-opacity=".05"/><path d="m335.999-10.0002s102.201 164.4102 217.279 182.0662c115.077 17.656 281.255-78.2869 423.973-39.138 142.719 39.149 367.549 191.816 539.609 138.964s211.14 41.108 211.14 41.108v-123.359s-89.16-21.227-217.23 38.836c-168.81 79.167-183.56-101.473-371.25-136.7034-187.698-35.2307-310.846 29.3644-361.68 5.8776-50.834-23.4871-84.068-107.6514-84.068-107.6514z" fill="url(#b)"/><path d="m942.674 1157.05s23.92-243.41 156.256-241.82c132.34 1.59 294.63 124.4 334.49 38.3s-1.27-243.12 294.69-193v130.78s-158.35-83.09-204.54-7.74c-21.44 35-41.24 78-75.59 102.48-19.74 14.05-41.77 19.21-65.84 16.61-20.47-2.2-40.59-8-61.17-8-50.2 0-86.09 37-118.77 70.48-14.8 15.17-28.87 31.69-39.5 50.11-1.34 2.28-18.18 41.8-12.7 41.8z" fill="url(#c)"/></g></svg>