<svg xmlns="http://www.w3.org/2000/svg" xmlns:xlink="http://www.w3.org/1999/xlink" width="60" height="65" viewBox="0 0 60 65">
  <defs>
    <clipPath id="clip-path">
      <path id="Path_350" data-name="Path 350" d="M0,.671H18.7V-28.346H0Z" transform="translate(0 28.346)" fill="#01285b"/>
    </clipPath>
  </defs>
  <g id="Group_540" data-name="Group 540" transform="translate(-278 -2482)">
    <path id="Path_577" data-name="Path 577" d="M0,0H60L40,65H0Z" transform="translate(278 2482)" fill="#ffb71e"/>
    <g id="Group_434" data-name="Group 434" transform="translate(292.324 2499.391)">
      <g id="Group_331" data-name="Group 331" transform="translate(0 0)" clip-path="url(#clip-path)">
        <g id="Group_328" data-name="Group 328" transform="translate(5.951 18.334)">
          <path id="Path_347" data-name="Path 347" d="M.128,0A1.506,1.506,0,0,0-1.184,1.1.845.845,0,0,1-2,1.714.845.845,0,0,1-2.811,1.1,1.506,1.506,0,0,0-4.123,0,1.237,1.237,0,0,0-5.4,1.28c0,.895.967,1.69,2.82,3.133l.58.453.58-.453C.436,2.969,1.4,2.174,1.4,1.28A1.237,1.237,0,0,0,.128,0" transform="translate(5.398)" fill="#01285b"/>
        </g>
        <g id="Group_329" data-name="Group 329" transform="translate(0 11.958)">
          <path id="Path_348" data-name="Path 348" d="M.216,0A9.362,9.362,0,0,0-9.135,9.351v6.857a.85.85,0,0,0,.85.851h17a.85.85,0,0,0,.85-.851V9.351A9.362,9.362,0,0,0,.216,0M1.842,12.129c-.35.272-.711.555-1.094.861a.847.847,0,0,1-.531.186.847.847,0,0,1-.531-.186c-.383-.306-.744-.589-1.094-.861-2.018-1.571-3.475-2.708-3.475-4.474A2.946,2.946,0,0,1-1.909,4.676,2.846,2.846,0,0,1,.216,5.6a2.846,2.846,0,0,1,2.125-.926A2.946,2.946,0,0,1,5.317,7.655c0,1.767-1.458,2.9-3.475,4.474" transform="translate(9.135)" fill="#01285b"/>
        </g>
        <g id="Group_330" data-name="Group 330" transform="translate(3.401)">
          <path id="Path_349" data-name="Path 349" d="M.275.139A6.006,6.006,0,0,0-5.675-5.868,6.006,6.006,0,0,0-11.626.139,5.958,5.958,0,0,0-5.675,6.089,5.958,5.958,0,0,0,.275.139" transform="translate(11.626 5.868)" fill="#01285b"/>
        </g>
      </g>
    </g>
  </g>
</svg>
