<svg width="390" height="371" viewBox="0 0 390 371" fill="none" xmlns="http://www.w3.org/2000/svg">
<g clip-path="url(#clip0_275_3979)">
<path d="M-32.0003 165.781C-10.4658 145.056 14.091 148.094 25.8028 149.967C45.8577 153.174 52.5302 162.639 65.506 177.884C73.5943 187.398 79.6208 198.996 88.9058 207.386C95.473 213.318 104.124 217.477 112.94 216.757C119.514 216.223 125.57 213.066 131.25 209.722C143.117 202.737 154.3 194.65 164.649 185.567C173.71 177.603 182.231 168.794 192.698 162.79C203.165 156.786 216.293 153.91 227.365 158.732C255.22 170.885 267.014 215.733 289.015 236.153C312.588 258.059 336.485 249.25 339.477 215.92C343.398 172.78 332.347 129.748 336.723 86.63C341.488 39.8859 374.31 -12.3795 427.187 6.16678C442.844 11.6593 459.259 19.1412 475.341 15.0975C487.546 12.0125 497.191 2.65647 504.753 -7.40594C514.197 -19.9695 521.838 -33.7657 533.495 -44.5417C550.825 -60.5652 575.061 -66.7352 598.273 -64.5872C625.735 -61.978 651.535 -50.2581 671.565 -31.2934C695.563 -8.46553 720.289 33.6654 754.647 41.0392C778.191 46.0921 797.849 28.7063 812 12.0413L811.999 366.825L-32.0006 366.825L-32.0003 165.781Z" fill="url(#paint0_linear_275_3979)"/>
</g>
<defs>
<linearGradient id="paint0_linear_275_3979" x1="-25.7645" y1="4.40081" x2="801.656" y2="507.709" gradientUnits="userSpaceOnUse">
<stop stop-color="#9BA300"/>
<stop offset="0.22" stop-color="#9BA300"/>
<stop offset="0.44" stop-color="#32A2C7"/>
<stop offset="0.74" stop-color="#0087C6"/>
<stop offset="1" stop-color="#0072B4"/>
</linearGradient>
<clipPath id="clip0_275_3979">
<rect width="390" height="371" fill="white"/>
</clipPath>
</defs>
</svg>
