<svg fill="none" height="285" viewBox="0 0 390 285" width="390" xmlns="http://www.w3.org/2000/svg" xmlns:xlink="http://www.w3.org/1999/xlink"><linearGradient id="a" gradientUnits="userSpaceOnUse" x1="407.173" x2="27.4767" y1="22.7441" y2="319.899"><stop offset="0" stop-color="#ff681d"/><stop offset=".22" stop-color="#ff8034"/><stop offset=".44" stop-color="#32a0c5"/><stop offset=".74" stop-color="#0085c4"/><stop offset="1" stop-color="#0072b2"/></linearGradient><path d="m390 168.303c-17.601-5.11-35.008-12.54-53.344-7.165-20.639 6.037-38.84 19.406-57.862 29.051-9.269 4.703-30.417 15.247-35.656-.843-1.083-3.337-.498-7.092 1.205-10.161 6.145-11.091 20.469-9.405 30.706-13.724 13.934-5.87 26.279-16.414 35.36-28.369 6.528-8.597 11.383-18.559 19.103-26.219 7.59-7.534 17.664-11.9548 27.703-15.2153 10.639-3.4637 21.638-5.7052 32.785-6.681v-88.174229c-58.499-5.663941-88.063 38.369129-113.853 81.771729-25.791 43.4028-57.152 48.4358-93.727 36.4848-40.961-13.383-62.276-67.9255-103.1632-72.3389-40.8877-4.4135-79.25680478 62.9029-79.25680478 62.9029l-.00000766 175.171h390.00001244z" fill="url(#a)"/></svg>