<svg fill="none" height="50" viewBox="0 0 35 50" width="35" xmlns="http://www.w3.org/2000/svg"><g fill="#b5bd00"><path d="m14.8433 16.0732h-10.28832c-1.22227.0157-2.38839.5157-3.24233 1.3903-.853954.8747-1.325947 2.0524-1.31236478 3.2747v24.597c-.01358222 1.2223.45841078 2.4001 1.31236478 3.2747.85394.8746 2.02006 1.3746 3.24233 1.3903h10.28832c1.2223-.0157 2.3884-.5157 3.2424-1.3903.8539-.8746 1.3259-2.0524 1.3123-3.2747v-24.597c.0136-1.2223-.4584-2.4-1.3123-3.2747-.854-.8746-2.0201-1.3746-3.2424-1.3903zm-5.13991 2.6548h-2.12043v-.9584h4.24084v.9584zm8.00671 26.6115c.0137.7724-.2796 1.5187-.8154 2.0752s-1.2705.8778-2.0429.8934h-10.29682c-.77202-.0167-1.50603-.3384-2.04163-.8946-.5356-.5563-.82923-1.3019-.81672-2.074v-24.5971c-.01251-.7721.28112-1.5177.81672-2.074.5356-.5562 1.26961-.8779 2.04163-.8946h1.34011v1.8066c0 .225.08936.4407.24843.5998.15906.1591.3748.2484.59975.2484h5.93723c.2249 0 .4407-.0893.5997-.2484.1591-.1591.2485-.3748.2485-.5998v-1.8108h1.3146c.7724.0156 1.5071.3369 2.0429.8934s.8291 1.3028.8155 2.0752z"/><path d="m22.4761 8.05762h-10.2798c-.606.00664-1.2047.13258-1.7619.37062-.55729.23804-1.06221.58352-1.48594 1.01671-.42374.43319-.758.94565-.98369 1.50795-.22569.5624-.33839 1.1637-.33167 1.7697v1.4419c0 .2249.08936.4407.24842.5997.15906.1591.3748.2484.59975.2484s.44069-.0893.59975-.2484c.15906-.159.24842-.3748.24842-.5997v-1.4419c-.01363-.7724.27963-1.5187.81546-2.0752.5358-.5566 1.2705-.87784 2.0429-.89344h1.3359v1.80664c0 .2249.0893.4407.2484.5997.1591.1591.3748.2484.5997.2484h5.9373c.2249 0 .4406-.0893.5997-.2484.1591-.159.2484-.3748.2484-.5997v-1.80664h1.3189c.7728.01561 1.5079.33674 2.0444.89314s.8307 1.3027.8182 2.0755v24.597c.0114.7725-.2832 1.5181-.8195 2.0743-.5362.5561-1.2707.8776-2.0431.8943h-1.3528c-.225 0-.4407.0894-.5998.2484-.159.1591-.2484.3748-.2484.5998 0 .2249.0894.4407.2484.5997.1591.1591.3748.2485.5998.2485h1.3528c.6065-.0061 1.2059-.1316 1.7639-.3694.558-.2377 1.0637-.583 1.4882-1.0162s.7595-.9458.986-1.5085c.2264-.5626.3397-1.1644.3336-1.7709v-24.597c.0061-.6065-.1072-1.2083-.3336-1.771-.2265-.5626-.5615-1.07521-.986-1.50839-.4245-.43319-.9302-.77852-1.4882-1.01626s-1.1574-.36324-1.7639-.36933zm-3.0322 2.65478h-4.2409v-.95844h4.2409z"/><path d="m30.1321 0h-10.2969c-1.2241.0134267-2.3928.512334-3.2493 1.38707-.8564.87474-1.3305 2.05374-1.3181 3.27788v1.62002c0 .22495.0894.44068.2484.59975.1591.15906.3748.24842.5998.24842.2249 0 .4407-.08936.5997-.24842.1591-.15907.2485-.3748.2485-.59975v-1.62002c-.0125-.77209.2811-1.51775.8167-2.07401.5356-.55625 1.2696-.87788 2.0416-.89459h1.3401v1.80661c0 .22495.0894.44068.2484.59975.1591.15906.3748.24842.5998.24842h5.9372c.225 0 .4407-.08936.5998-.24842.159-.15907.2484-.3748.2484-.59975v-1.80661h1.3359c.7723.0156 1.507.33688 2.0428.89338.5359.55651.8291 1.30281.8155 2.07522v24.59705c.0125.7721-.2811 1.5177-.8167 2.074s-1.2696.8779-2.0416.8946h-1.2723c-.2249 0-.4407.0894-.5997.2484-.1591.1591-.2485.3748-.2485.5998 0 .2249.0894.4407.2485.5997.159.1591.3748.2484.5997.2484h1.2723c1.2219-.0167 2.3873-.5171 3.241-1.3915.8538-.8744 1.3261-2.0514 1.3137-3.2734v-24.59705c.0124-1.22196-.4599-2.39905-1.3137-3.27343-.8537-.874375-2.0191-1.3747512-3.241-1.39152zm-3.0323 2.65478h-4.2408v-.95843h4.2408z"/></g></svg>