<svg width="1728" height="1117" viewBox="0 0 1728 1117" fill="none" xmlns="http://www.w3.org/2000/svg">
<g clip-path="url(#clip0_213_165)">
<rect width="1728" height="1117" fill="white"/>
<rect y="0.0800781" width="1728" height="1117" fill="#FFB81D" fill-opacity="0.05"/>
<path d="M743.818 0.0797992H1261.82C1264.81 0.0797992 1272.87 19.0321 1273.95 21.2366C1282.9 39.1994 1289.25 58.3432 1292.81 78.0935C1296.95 101.734 1297.4 128.776 1290.48 151.908C1281.4 182.331 1266.05 210.012 1259.16 241.423C1252.27 272.834 1245.77 329.471 1272.04 354.927C1274.61 357.611 1277.92 359.484 1281.54 360.314C1299.97 363.785 1332.9 330.598 1346.06 320.334C1369.16 302.329 1391.58 283.477 1414.69 265.472C1446.4 240.774 1478.34 212.884 1517.52 200.984C1574.66 183.618 1606.4 222.251 1656.74 238.151C1673.1 243.328 1691.73 243.737 1706.73 235.378C1715.57 230.46 1722.62 222.819 1728.58 214.64C1753.19 180.915 1762.37 137.275 1770.52 97.0658C1771.52 91.8888 1783.26 0 1782.85 0H1970C1837.83 60.1088 1811.49 226.191 1701.23 310.11C1671.04 333.242 1638.02 363.067 1599.75 371.256C1585.11 374.398 1567.7 371.027 1559.47 358.508C1549.56 343.456 1553.87 323.466 1544.32 307.716C1535.57 293.282 1521 282.699 1504.14 280.305C1488.94 278.14 1473.45 281.302 1458.91 286.15C1413.49 301.292 1377.38 332.932 1342.93 364.952C1316.6 389.45 1296.44 419.874 1261.92 434.128C1250.2 438.966 1237 441.619 1224.8 438.188C1173.96 423.894 1199.45 325.391 1211.54 291.656C1222.02 262.42 1236.11 234.65 1247.33 205.703C1251.9 193.962 1256.05 181.763 1256.46 169.214C1258.07 120.267 1202.35 104.557 1162.74 110.622C1110.02 118.701 1085.84 179.269 1057.99 217.603C1043.22 237.931 1024.59 256.954 1000.62 264.485C957.543 278.021 928.691 246.769 923.856 206.411C919.639 170.92 923.178 133.993 902.502 102.672C881.825 71.3505 850.66 47.3609 818.439 28.5183C798.211 16.6182 768.462 0.0797992 743.818 0.0797992Z" fill="url(#paint0_linear_213_165)"/>
</g>
<defs>
<linearGradient id="paint0_linear_213_165" x1="1030.94" y1="-388.443" x2="1875.1" y2="630.08" gradientUnits="userSpaceOnUse">
<stop stop-color="#FFA01D"/>
<stop offset="0.22" stop-color="#FFA01D"/>
<stop offset="0.44" stop-color="#32A4C9"/>
<stop offset="0.74" stop-color="#0089C8"/>
<stop offset="1" stop-color="#0072B6"/>
</linearGradient>
<clipPath id="clip0_213_165">
<rect width="1728" height="1117" fill="white"/>
</clipPath>
</defs>
</svg>
