<svg fill="none" height="845" viewBox="0 0 390 845" width="390" xmlns="http://www.w3.org/2000/svg" xmlns:xlink="http://www.w3.org/1999/xlink"><linearGradient id="a"><stop offset="0" stop-color="#ffa01d"/><stop offset=".22" stop-color="#ffa01d"/><stop offset=".44" stop-color="#32a4c9"/><stop offset=".74" stop-color="#0089c8"/><stop offset="1" stop-color="#0072b6"/></linearGradient><linearGradient id="b" gradientUnits="userSpaceOnUse" x1="93.3215" x2="727.333" xlink:href="#a" y1="-745.543" y2="-618.776"/><linearGradient id="c" gradientUnits="userSpaceOnUse" x1="403.429" x2="1061.46" xlink:href="#a" y1="-377.793" y2="416.151"/><clipPath id="d"><path d="m0 0h390v845h-390z"/></clipPath><mask id="e" height="844" maskUnits="userSpaceOnUse" width="390" x="2" y="0"><path d="m2 0h390v844h-390z" fill="url(#b)"/></mask><g clip-path="url(#d)"><path d="m0 0h390v845h-390z" fill="#fff"/><path d="m2 0h390v844h-390z" fill="#ffb81d" fill-opacity=".05"/><g mask="url(#e)"><path d="m179.617-74.9378h403.786c2.332 0 8.611 14.7735 9.458 16.4918 6.972 14.0021 11.92 28.9249 14.695 44.3204 3.233 18.42791 3.583 39.5073-1.81 57.5387-7.08 23.7152-19.048 45.2922-24.418 69.7769-5.37 24.485-10.437 68.635 10.041 88.478 2.006 2.092 4.581 3.552 7.406 4.199 14.369 2.705 40.037-23.164 50.295-31.165 18.006-14.034 35.484-28.73 53.497-42.765 24.721-19.252 49.612-40.9923 80.153-50.2685 44.545-13.5371 69.288 16.5774 108.525 28.9715 12.753 4.036 27.277 4.354 38.965-2.162 6.893-3.833 12.388-9.7889 17.035-16.1648 19.187-26.289 26.337-60.3068 32.694-91.649819.777-4.035481 9.931-75.663381 9.613-75.663381h145.878c-103.03 46.8552-123.56 176.317-209.502 241.732-23.539 18.032-49.277 41.281-79.103 47.664-11.416 2.45-24.985-.179-31.404-9.937-7.724-11.733-4.367-27.315-11.804-39.593-6.823-11.251-18.185-19.501-31.326-21.367-11.843-1.687-23.92.778-35.258 4.557-35.406 11.803-63.553 36.467-90.403 61.426-20.524 19.097-36.237 42.812-63.149 53.923-9.139 3.771-19.428 5.84-28.932 3.165-39.634-11.142-19.763-87.925-10.336-114.222 8.167-22.79 19.148-44.437 27.899-67.0017 3.559-9.1517 6.792-18.6612 7.11-28.4427 1.259-38.1544-42.174-50.40082-73.049-45.6733-41.103 6.2981-59.948 53.511-81.661 83.3922-11.509 15.8465-26.033 30.6745-44.715 36.5445-33.58 10.552-56.07-13.809-59.839-45.2686-3.287-27.6652-.528-56.4501-16.646-80.86519-16.118-24.41511-40.41-43.11511-65.527-57.80301-15.768-9.2762-38.957-22.168-58.168-22.168z" fill="url(#c)"/></g><g fill="#fff"><path d="m33.24 801.224c2.848 0 5.568-1.984 5.568-6.144s-2.72-6.144-5.568-6.144c-2.864 0-5.584 1.984-5.584 6.144s2.72 6.144 5.584 6.144zm0-2.096c-1.84 0-2.976-1.568-2.976-4.048s1.136-3.984 2.976-3.984c1.824 0 2.976 1.504 2.976 3.984s-1.152 4.048-2.976 4.048zm10.7921 2.048c2.256 0 3.312-1.264 3.856-2.592l-2.128-.736c-.368 1.152-.992 1.52-1.68 1.52-1.184 0-1.664-1.088-1.664-2.608 0-1.696.656-2.576 1.696-2.576.752 0 1.248.352 1.584 1.44l2.16-.72c-.496-1.376-1.392-2.608-3.712-2.608-1.888 0-4.304 1.04-4.304 4.448 0 3.312 2.192 4.432 4.192 4.432zm8.731-.064c.56 0 1.504-.08 1.696-.128v-1.84c-.176.064-.56.096-.848.096-.928 0-1.184-.288-1.184-1.2v-3.696h2.192v-1.872h-2.192v-2.928h-2.56v2.928h-1.424v1.872h1.424v4.256c0 1.6.368 2.512 2.896 2.512zm5.5962-9.552h1.696l2.384-2.768h-2.592zm-.48 9.568c1.2639 0 2.192-.496 2.976-1.376 0 .48.08.896.192 1.248h2.56c-.176-.432-.24-1.056-.24-2.08v-3.28c0-2.192-.96-3.344-3.296-3.344-2.128 0-3.408.752-4.256 1.52l1.088 1.472c.784-.608 1.712-1.056 2.8-1.056.832 0 1.152.4 1.152 1.024v.208c-3.744.304-5.408 1.392-5.408 3.36 0 1.456 1.12 2.304 2.432 2.304zm1.024-1.936c-.56 0-.944-.272-.944-.816 0-.784.864-1.296 2.896-1.504v1.584c-.432.432-1.056.736-1.952.736zm8.3863 1.824h2.592l3.04-8.544h-2.416l-1.792 5.68h-.032l-1.792-5.68h-2.656zm6.6726-9.712h2.5921v-2.064h-2.5921zm.0161 9.696h2.56v-8.528h-2.56zm8.5111.176c2.064 0 4.352-1.12 4.352-4.432 0-3.344-2.288-4.448-4.352-4.448-2.08 0-4.368 1.104-4.368 4.448 0 3.312 2.304 4.432 4.368 4.432zm0-1.808c-1.312 0-1.792-1.184-1.792-2.608 0-1.536.56-2.576 1.792-2.576 1.28 0 1.776 1.152 1.776 2.576 0 1.552-.56 2.608-1.776 2.608zm15.1989 1.856c2.9757 0 4.3837-1.664 4.9597-4.048l-2.448-.544c-.4157 1.616-1.1037 2.496-2.4957 2.496-1.792 0-2.784-1.568-2.784-4.064 0-2.448.9599-3.968 2.752-3.968 1.392 0 1.968.928 2.3517 2.288l2.464-.72c-.512-2.128-1.808-3.728-4.7997-3.728-2.992 0-5.376 2.016-5.376 6.128 0 4.176 2.288 6.16 5.376 6.16zm8.4727-.096c1.263 0 2.192-.496 2.976-1.376 0 .48.08.896.192 1.248h2.56c-.176-.432-.24-1.056-.24-2.08v-3.28c0-2.192-.96-3.344-3.296-3.344-2.128 0-3.408.752-4.256 1.52l1.088 1.472c.784-.608 1.712-1.056 2.8-1.056.832 0 1.152.4 1.152 1.024v.208c-3.744.304-5.408 1.392-5.408 3.36 0 1.456 1.12 2.304 2.432 2.304zm1.024-1.936c-.56 0-.944-.272-.944-.816 0-.784.864-1.296 2.896-1.504v1.584c-.432.432-1.056.736-1.952.736zm9.698 1.984c1.968 0 3.76-.816 3.76-2.88 0-1.936-1.776-2.32-3.456-2.608-1.056-.192-1.52-.4-1.52-.912 0-.464.416-.752 1.152-.752.8 0 1.648.336 2.512.928l1.008-1.456c-.944-.752-2-1.2-3.744-1.2-1.904 0-3.312.992-3.312 2.704 0 2 1.728 2.384 3.344 2.672 1.168.208 1.616.432 1.616 1.024 0 .56-.56.832-1.36.832-1.04 0-2.192-.432-2.96-1.104l-1.024 1.44c.864.736 2.112 1.312 3.984 1.312zm8.615-.064c.56 0 1.504-.08 1.696-.128v-1.84c-.176.064-.56.096-.848.096-.928 0-1.185-.288-1.185-1.2v-3.696h2.193v-1.872h-2.193v-2.928h-2.559v2.928h-1.424v1.872h1.424v4.256c0 1.6.368 2.512 2.896 2.512zm7.132.064c1.488 0 2.72-.432 3.712-1.28l-.992-1.536c-.576.528-1.52 1.024-2.528 1.024-1.072 0-1.856-.544-1.984-1.952h5.648v-.384c0-3.872-2.16-4.752-3.92-4.752s-4.288 1.136-4.288 4.448c0 3.296 2.128 4.432 4.352 4.432zm-1.76-5.264c.192-1.248.88-1.776 1.68-1.776.96 0 1.504.576 1.632 1.776zm7.202 5.088h2.56v-11.84h-2.56zm8.511.176c2.064 0 4.352-1.12 4.352-4.432 0-3.344-2.288-4.448-4.352-4.448-2.08 0-4.368 1.104-4.368 4.448 0 3.312 2.304 4.432 4.368 4.432zm0-1.808c-1.312 0-1.792-1.184-1.792-2.608 0-1.536.56-2.576 1.792-2.576 1.28 0 1.776 1.152 1.776 2.576 0 1.552-.56 2.608-1.776 2.608zm10.383 1.632h2.592v-4.208h1.68c2.368 0 4.864-.656 4.864-3.84 0-3.12-2.304-3.792-4.832-3.792h-4.304zm2.592-6.224v-3.488h1.776c1.632 0 2.224.624 2.224 1.728 0 1.136-.608 1.76-2.224 1.76zm9.446 6.352c1.264 0 2.192-.496 2.976-1.376 0 .48.08.896.192 1.248h2.56c-.176-.432-.24-1.056-.24-2.08v-3.28c0-2.192-.96-3.344-3.296-3.344-2.128 0-3.408.752-4.256 1.52l1.088 1.472c.784-.608 1.712-1.056 2.8-1.056.832 0 1.152.4 1.152 1.024v.208c-3.744.304-5.408 1.392-5.408 3.36 0 1.456 1.12 2.304 2.432 2.304zm1.024-1.936c-.56 0-.944-.272-.944-.816 0-.784.864-1.296 2.896-1.504v1.584c-.432.432-1.056.736-1.952.736zm8.755 1.984c1.488 0 2.432-.848 2.944-1.504v1.328h2.576v-8.528h-2.576v5.792c-.576.496-1.168.864-1.856.864-.72 0-1.008-.416-1.008-1.184v-5.472h-2.576v6.224c0 1.76 1.04 2.48 2.496 2.48zm7.57-.176h2.56v-11.84h-2.56zm8.511.176c2.064 0 4.352-1.12 4.352-4.432 0-3.344-2.288-4.448-4.352-4.448-2.08 0-4.368 1.104-4.368 4.448 0 3.312 2.304 4.432 4.368 4.432zm0-1.808c-1.312 0-1.792-1.184-1.792-2.608 0-1.536.56-2.576 1.792-2.576 1.28 0 1.776 1.152 1.776 2.576 0 1.552-.56 2.608-1.776 2.608zm-166.344 27.632h1.136v-5.248h2.688c2.496 0 4.256-.976 4.256-3.36 0-2.176-1.568-3.232-4.144-3.232h-3.936zm1.136-6.256v-4.544h2.752c1.984 0 3.056.624 3.056 2.224 0 1.712-1.088 2.32-3.04 2.32zm13.4973 6.48c2.368 0 3.904-1.456 4.48-3.792l-1.088-.24c-.512 1.984-1.616 3.008-3.376 3.008-2.304 0-3.808-1.92-3.808-5.2 0-3.04 1.488-5.024 3.776-5.024 1.808 0 2.688.976 3.216 2.848l1.088-.272c-.56-2.192-1.888-3.616-4.288-3.616-2.96 0-4.928 2.512-4.928 6.096 0 3.776 1.936 6.192 4.928 6.192zm5.8915-.224h1.104l1.264-3.648h4.8l1.264 3.648h1.184l-4.192-11.888h-1.232zm2.72-4.656 2.032-5.888h.032l2.032 5.888z"/><path d="m291.95 801h7.824v-2.112h-5.216v-9.728h-2.608zm11.551.176c1.488 0 2.432-.848 2.944-1.504v1.328h2.576v-8.528h-2.576v5.792c-.576.496-1.168.864-1.856.864-.72 0-1.008-.416-1.008-1.184v-5.472h-2.576v6.224c0 1.76 1.04 2.48 2.496 2.48zm7.923-9.616h1.696l2.384-2.768h-2.592zm-.352 9.44h2.56v-8.528h-2.56zm7.967.176c1.968 0 3.76-.816 3.76-2.88 0-1.936-1.776-2.32-3.456-2.608-1.056-.192-1.52-.4-1.52-.912 0-.464.416-.752 1.152-.752.8 0 1.648.336 2.512.928l1.008-1.456c-.944-.752-2-1.2-3.744-1.2-1.904 0-3.312.992-3.312 2.704 0 2 1.728 2.384 3.344 2.672 1.168.208 1.616.432 1.616 1.024 0 .56-.56.832-1.36.832-1.04 0-2.192-.432-2.96-1.104l-1.024 1.44c.864.736 2.112 1.312 3.984 1.312zm11.896-.176h2.608v-9.664h3.536v-2.176h-9.664v2.176h3.52zm9.367.176c1.488 0 2.72-.432 3.712-1.28l-.992-1.536c-.576.528-1.52 1.024-2.528 1.024-1.072 0-1.856-.544-1.984-1.952h5.648v-.384c0-3.872-2.16-4.752-3.92-4.752s-4.288 1.136-4.288 4.448c0 3.296 2.128 4.432 4.352 4.432zm-1.76-5.264c.192-1.248.88-1.776 1.68-1.776.96 0 1.504.576 1.632 1.776zm7.202 5.088h2.56v-11.84h-2.56zm8.495.176c1.488 0 2.72-.432 3.712-1.28l-.992-1.536c-.576.528-1.52 1.024-2.528 1.024-1.072 0-1.856-.544-1.984-1.952h5.648v-.384c0-3.872-2.16-4.752-3.92-4.752s-4.288 1.136-4.288 4.448c0 3.296 2.128 4.432 4.352 4.432zm-1.76-5.264c.192-1.248.88-1.776 1.68-1.776.96 0 1.504.576 1.632 1.776zm10.31 5.264c1.968 0 3.76-.816 3.76-2.88 0-1.936-1.776-2.32-3.456-2.608-1.056-.192-1.52-.4-1.52-.912 0-.464.416-.752 1.152-.752.8 0 1.648.336 2.512.928l1.008-1.456c-.944-.752-2-1.2-3.744-1.2-1.904 0-3.312.992-3.312 2.704 0 2 1.728 2.384 3.344 2.672 1.168.208 1.616.432 1.616 1.024 0 .56-.56.832-1.36.832-1.04 0-2.192-.432-2.96-1.104l-1.024 1.44c.864.736 2.112 1.312 3.984 1.312zm-25.394 25.824h1.136v-5.248h2.688c2.496 0 4.256-.976 4.256-3.36 0-2.176-1.568-3.232-4.144-3.232h-3.936zm1.136-6.256v-4.544h2.752c1.984 0 3.056.624 3.056 2.224 0 1.712-1.088 2.32-3.04 2.32zm13.497 6.48c2.368 0 3.904-1.456 4.48-3.792l-1.088-.24c-.512 1.984-1.616 3.008-3.376 3.008-2.304 0-3.808-1.92-3.808-5.2 0-3.04 1.488-5.024 3.776-5.024 1.808 0 2.688.976 3.216 2.848l1.088-.272c-.56-2.192-1.888-3.616-4.288-3.616-2.96 0-4.928 2.512-4.928 6.096 0 3.776 1.936 6.192 4.928 6.192zm6.836-.224h7.408v-1.04h-6.272v-4.704h4.432v-1.024h-4.432v-4.016h5.936v-1.056h-7.072z"/></g></g></svg>