<svg width="390" height="845" viewBox="0 0 390 845" fill="none" xmlns="http://www.w3.org/2000/svg">
<g clip-path="url(#clip0_218_689)">
<rect width="390" height="845" fill="white"/>
<rect x="2" width="390" height="844" fill="#FFB81D" fill-opacity="0.05"/>
<mask id="mask0_218_689" style="mask-type:alpha" maskUnits="userSpaceOnUse" x="2" y="0" width="390" height="844">
<rect x="2" width="390" height="844" fill="url(#paint0_linear_218_689)"/>
</mask>
<g mask="url(#mask0_218_689)">
<path d="M123.617 -26.9378H527.403C529.735 -26.9378 536.014 -12.1643 536.861 -10.446C543.833 3.55613 548.781 18.4789 551.556 33.8744C554.789 52.3023 555.139 73.3817 549.746 91.4131C542.666 115.128 530.698 136.705 525.328 161.19C519.958 185.675 514.891 229.825 535.369 249.668C537.375 251.76 539.95 253.22 542.775 253.867C557.144 256.572 582.812 230.703 593.07 222.702C611.076 208.668 628.554 193.972 646.567 179.937C671.288 160.685 696.179 138.945 726.72 129.669C771.265 116.131 796.008 146.246 835.245 158.64C847.998 162.676 862.522 162.994 874.21 156.478C881.103 152.645 886.598 146.689 891.245 140.313C910.432 114.024 917.582 80.0064 923.939 48.6634C924.716 44.6279 933.87 -27 933.552 -27H1079.43C976.402 19.8552 955.871 149.317 869.928 214.732C846.389 232.764 820.651 256.013 790.825 262.396C779.409 264.846 765.84 262.217 759.421 252.459C751.697 240.726 755.054 225.144 747.617 212.866C740.794 201.615 729.432 193.365 716.291 191.499C704.448 189.812 692.371 192.277 681.033 196.056C645.627 207.859 617.48 232.523 590.63 257.482C570.106 276.579 554.393 300.294 527.481 311.405C518.342 315.176 508.053 317.245 498.549 314.57C458.915 303.428 478.786 226.645 488.213 200.348C496.38 177.558 507.361 155.911 516.112 133.346C519.671 124.195 522.904 114.685 523.222 104.904C524.481 66.7492 481.048 54.5028 450.173 59.2303C409.07 65.5284 390.225 112.741 368.512 142.623C357.003 158.469 342.479 173.297 323.797 179.167C290.217 189.719 267.727 165.358 263.958 133.898C260.671 106.233 263.43 77.4483 247.312 53.0332C231.194 28.6181 206.902 9.91807 181.785 -4.76985C166.017 -14.046 142.828 -26.9378 123.617 -26.9378Z" fill="url(#paint1_linear_218_689)"/>
</g>
<path d="M33.24 801.224C36.088 801.224 38.808 799.24 38.808 795.08C38.808 790.92 36.088 788.936 33.24 788.936C30.376 788.936 27.656 790.92 27.656 795.08C27.656 799.24 30.376 801.224 33.24 801.224ZM33.24 799.128C31.4 799.128 30.264 797.56 30.264 795.08C30.264 792.6 31.4 791.096 33.24 791.096C35.064 791.096 36.216 792.6 36.216 795.08C36.216 797.56 35.064 799.128 33.24 799.128ZM44.0321 801.176C46.2881 801.176 47.3441 799.912 47.8881 798.584L45.7601 797.848C45.3921 799 44.7681 799.368 44.0801 799.368C42.8961 799.368 42.4161 798.28 42.4161 796.76C42.4161 795.064 43.0721 794.184 44.1121 794.184C44.8641 794.184 45.3601 794.536 45.6961 795.624L47.8561 794.904C47.3601 793.528 46.4641 792.296 44.1441 792.296C42.2561 792.296 39.8401 793.336 39.8401 796.744C39.8401 800.056 42.0321 801.176 44.0321 801.176ZM52.7631 801.112C53.3231 801.112 54.2671 801.032 54.4591 800.984V799.144C54.2831 799.208 53.8991 799.24 53.6111 799.24C52.6831 799.24 52.4271 798.952 52.4271 798.04V794.344H54.6191V792.472H52.4271V789.544H49.8671V792.472H48.4431V794.344H49.8671V798.6C49.8671 800.2 50.2351 801.112 52.7631 801.112ZM58.3593 791.56H60.0553L62.4393 788.792H59.8473L58.3593 791.56ZM57.8793 801.128C59.1432 801.128 60.0713 800.632 60.8553 799.752C60.8553 800.232 60.9353 800.648 61.0473 801H63.6073C63.4313 800.568 63.3673 799.944 63.3673 798.92V795.64C63.3673 793.448 62.4073 792.296 60.0713 792.296C57.9433 792.296 56.6633 793.048 55.8153 793.816L56.9033 795.288C57.6873 794.68 58.6153 794.232 59.7033 794.232C60.5353 794.232 60.8553 794.632 60.8553 795.256V795.464C57.1113 795.768 55.4473 796.856 55.4473 798.824C55.4473 800.28 56.5673 801.128 57.8793 801.128ZM58.9033 799.192C58.3433 799.192 57.9593 798.92 57.9593 798.376C57.9593 797.592 58.8233 797.08 60.8553 796.872V798.456C60.4233 798.888 59.7993 799.192 58.9033 799.192ZM67.2896 801.016H69.8816L72.9216 792.472H70.5056L68.7136 798.152H68.6816L66.8896 792.472H64.2336L67.2896 801.016ZM73.9622 791.304H76.5543V789.24H73.9622V791.304ZM73.9783 801H76.5383V792.472H73.9783V801ZM82.4894 801.176C84.5534 801.176 86.8414 800.056 86.8414 796.744C86.8414 793.4 84.5534 792.296 82.4894 792.296C80.4094 792.296 78.1214 793.4 78.1214 796.744C78.1214 800.056 80.4254 801.176 82.4894 801.176ZM82.4894 799.368C81.1774 799.368 80.6974 798.184 80.6974 796.76C80.6974 795.224 81.2574 794.184 82.4894 794.184C83.7694 794.184 84.2654 795.336 84.2654 796.76C84.2654 798.312 83.7054 799.368 82.4894 799.368ZM97.6883 801.224C100.664 801.224 102.072 799.56 102.648 797.176L100.2 796.632C99.7843 798.248 99.0963 799.128 97.7043 799.128C95.9123 799.128 94.9203 797.56 94.9203 795.064C94.9203 792.616 95.8802 791.096 97.6723 791.096C99.0643 791.096 99.6403 792.024 100.024 793.384L102.488 792.664C101.976 790.536 100.68 788.936 97.6883 788.936C94.6963 788.936 92.3123 790.952 92.3123 795.064C92.3123 799.24 94.6003 801.224 97.6883 801.224ZM106.161 801.128C107.424 801.128 108.353 800.632 109.137 799.752C109.137 800.232 109.217 800.648 109.329 801H111.889C111.713 800.568 111.649 799.944 111.649 798.92V795.64C111.649 793.448 110.689 792.296 108.353 792.296C106.225 792.296 104.945 793.048 104.097 793.816L105.185 795.288C105.969 794.68 106.897 794.232 107.985 794.232C108.817 794.232 109.137 794.632 109.137 795.256V795.464C105.393 795.768 103.729 796.856 103.729 798.824C103.729 800.28 104.849 801.128 106.161 801.128ZM107.185 799.192C106.625 799.192 106.241 798.92 106.241 798.376C106.241 797.592 107.105 797.08 109.137 796.872V798.456C108.705 798.888 108.081 799.192 107.185 799.192ZM116.883 801.176C118.851 801.176 120.643 800.36 120.643 798.296C120.643 796.36 118.867 795.976 117.187 795.688C116.131 795.496 115.667 795.288 115.667 794.776C115.667 794.312 116.083 794.024 116.819 794.024C117.619 794.024 118.467 794.36 119.331 794.952L120.339 793.496C119.395 792.744 118.339 792.296 116.595 792.296C114.691 792.296 113.283 793.288 113.283 795C113.283 797 115.011 797.384 116.627 797.672C117.795 797.88 118.243 798.104 118.243 798.696C118.243 799.256 117.683 799.528 116.883 799.528C115.843 799.528 114.691 799.096 113.923 798.424L112.899 799.864C113.763 800.6 115.011 801.176 116.883 801.176ZM125.498 801.112C126.058 801.112 127.002 801.032 127.194 800.984V799.144C127.018 799.208 126.634 799.24 126.346 799.24C125.418 799.24 125.161 798.952 125.161 798.04V794.344H127.354V792.472H125.161V789.544H122.602V792.472H121.178V794.344H122.602V798.6C122.602 800.2 122.97 801.112 125.498 801.112ZM132.63 801.176C134.118 801.176 135.35 800.744 136.342 799.896L135.35 798.36C134.774 798.888 133.83 799.384 132.822 799.384C131.75 799.384 130.966 798.84 130.838 797.432H136.486V797.048C136.486 793.176 134.326 792.296 132.566 792.296C130.806 792.296 128.278 793.432 128.278 796.744C128.278 800.04 130.406 801.176 132.63 801.176ZM130.87 795.912C131.062 794.664 131.75 794.136 132.55 794.136C133.51 794.136 134.054 794.712 134.182 795.912H130.87ZM138.072 801H140.632V789.16H138.072V801ZM146.583 801.176C148.647 801.176 150.935 800.056 150.935 796.744C150.935 793.4 148.647 792.296 146.583 792.296C144.503 792.296 142.215 793.4 142.215 796.744C142.215 800.056 144.519 801.176 146.583 801.176ZM146.583 799.368C145.271 799.368 144.791 798.184 144.791 796.76C144.791 795.224 145.351 794.184 146.583 794.184C147.863 794.184 148.359 795.336 148.359 796.76C148.359 798.312 147.799 799.368 146.583 799.368ZM156.966 801H159.558V796.792H161.238C163.606 796.792 166.102 796.136 166.102 792.952C166.102 789.832 163.798 789.16 161.27 789.16H156.966V801ZM159.558 794.776V791.288H161.334C162.966 791.288 163.558 791.912 163.558 793.016C163.558 794.152 162.95 794.776 161.334 794.776H159.558ZM169.004 801.128C170.268 801.128 171.196 800.632 171.98 799.752C171.98 800.232 172.06 800.648 172.172 801H174.732C174.556 800.568 174.492 799.944 174.492 798.92V795.64C174.492 793.448 173.532 792.296 171.196 792.296C169.068 792.296 167.788 793.048 166.94 793.816L168.028 795.288C168.812 794.68 169.74 794.232 170.828 794.232C171.66 794.232 171.98 794.632 171.98 795.256V795.464C168.236 795.768 166.572 796.856 166.572 798.824C166.572 800.28 167.692 801.128 169.004 801.128ZM170.028 799.192C169.468 799.192 169.084 798.92 169.084 798.376C169.084 797.592 169.948 797.08 171.98 796.872V798.456C171.548 798.888 170.924 799.192 170.028 799.192ZM178.783 801.176C180.271 801.176 181.215 800.328 181.727 799.672V801H184.303V792.472H181.727V798.264C181.151 798.76 180.559 799.128 179.871 799.128C179.151 799.128 178.863 798.712 178.863 797.944V792.472H176.287V798.696C176.287 800.456 177.327 801.176 178.783 801.176ZM186.353 801H188.913V789.16H186.353V801ZM194.864 801.176C196.928 801.176 199.216 800.056 199.216 796.744C199.216 793.4 196.928 792.296 194.864 792.296C192.784 792.296 190.496 793.4 190.496 796.744C190.496 800.056 192.8 801.176 194.864 801.176ZM194.864 799.368C193.552 799.368 193.072 798.184 193.072 796.76C193.072 795.224 193.632 794.184 194.864 794.184C196.144 794.184 196.64 795.336 196.64 796.76C196.64 798.312 196.08 799.368 194.864 799.368ZM28.52 827H29.656V821.752H32.344C34.84 821.752 36.6 820.776 36.6 818.392C36.6 816.216 35.032 815.16 32.456 815.16H28.52V827ZM29.656 820.744V816.2H32.408C34.392 816.2 35.464 816.824 35.464 818.424C35.464 820.136 34.376 820.744 32.424 820.744H29.656ZM43.1533 827.224C45.5213 827.224 47.0573 825.768 47.6333 823.432L46.5453 823.192C46.0333 825.176 44.9293 826.2 43.1693 826.2C40.8653 826.2 39.3613 824.28 39.3613 821C39.3613 817.96 40.8493 815.976 43.1373 815.976C44.9453 815.976 45.8253 816.952 46.3533 818.824L47.4413 818.552C46.8813 816.36 45.5533 814.936 43.1533 814.936C40.1933 814.936 38.2253 817.448 38.2253 821.032C38.2253 824.808 40.1613 827.224 43.1533 827.224ZM49.0448 827H50.1488L51.4128 823.352H56.2128L57.4768 827H58.6608L54.4688 815.112H53.2368L49.0448 827ZM51.7648 822.344L53.7968 816.456H53.8288L55.8608 822.344H51.7648Z" fill="white"/>
<path d="M291.95 801H299.774V798.888H294.558V789.16H291.95V801ZM303.501 801.176C304.989 801.176 305.933 800.328 306.445 799.672V801H309.021V792.472H306.445V798.264C305.869 798.76 305.277 799.128 304.589 799.128C303.869 799.128 303.581 798.712 303.581 797.944V792.472H301.005V798.696C301.005 800.456 302.045 801.176 303.501 801.176ZM311.424 791.56H313.12L315.504 788.792H312.912L311.424 791.56ZM311.072 801H313.632V792.472H311.072V801ZM319.039 801.176C321.007 801.176 322.799 800.36 322.799 798.296C322.799 796.36 321.023 795.976 319.343 795.688C318.287 795.496 317.823 795.288 317.823 794.776C317.823 794.312 318.239 794.024 318.975 794.024C319.775 794.024 320.623 794.36 321.487 794.952L322.495 793.496C321.551 792.744 320.495 792.296 318.751 792.296C316.847 792.296 315.439 793.288 315.439 795C315.439 797 317.167 797.384 318.783 797.672C319.951 797.88 320.399 798.104 320.399 798.696C320.399 799.256 319.839 799.528 319.039 799.528C317.999 799.528 316.847 799.096 316.079 798.424L315.055 799.864C315.919 800.6 317.167 801.176 319.039 801.176ZM330.935 801H333.543V791.336H337.079V789.16H327.415V791.336H330.935V801ZM340.302 801.176C341.79 801.176 343.022 800.744 344.014 799.896L343.022 798.36C342.446 798.888 341.502 799.384 340.494 799.384C339.422 799.384 338.638 798.84 338.51 797.432H344.158V797.048C344.158 793.176 341.998 792.296 340.238 792.296C338.478 792.296 335.95 793.432 335.95 796.744C335.95 800.04 338.078 801.176 340.302 801.176ZM338.542 795.912C338.734 794.664 339.422 794.136 340.222 794.136C341.182 794.136 341.726 794.712 341.854 795.912H338.542ZM345.744 801H348.304V789.16H345.744V801ZM354.239 801.176C355.727 801.176 356.959 800.744 357.951 799.896L356.959 798.36C356.383 798.888 355.439 799.384 354.431 799.384C353.359 799.384 352.575 798.84 352.447 797.432H358.095V797.048C358.095 793.176 355.935 792.296 354.175 792.296C352.415 792.296 349.887 793.432 349.887 796.744C349.887 800.04 352.015 801.176 354.239 801.176ZM352.479 795.912C352.671 794.664 353.359 794.136 354.159 794.136C355.119 794.136 355.663 794.712 355.791 795.912H352.479ZM362.789 801.176C364.757 801.176 366.549 800.36 366.549 798.296C366.549 796.36 364.773 795.976 363.093 795.688C362.037 795.496 361.573 795.288 361.573 794.776C361.573 794.312 361.989 794.024 362.725 794.024C363.525 794.024 364.373 794.36 365.237 794.952L366.245 793.496C365.301 792.744 364.245 792.296 362.501 792.296C360.597 792.296 359.189 793.288 359.189 795C359.189 797 360.917 797.384 362.533 797.672C363.701 797.88 364.149 798.104 364.149 798.696C364.149 799.256 363.589 799.528 362.789 799.528C361.749 799.528 360.597 799.096 359.829 798.424L358.805 799.864C359.669 800.6 360.917 801.176 362.789 801.176ZM337.395 827H338.531V821.752H341.219C343.715 821.752 345.475 820.776 345.475 818.392C345.475 816.216 343.907 815.16 341.331 815.16H337.395V827ZM338.531 820.744V816.2H341.283C343.267 816.2 344.339 816.824 344.339 818.424C344.339 820.136 343.251 820.744 341.299 820.744H338.531ZM352.028 827.224C354.396 827.224 355.932 825.768 356.508 823.432L355.42 823.192C354.908 825.176 353.804 826.2 352.044 826.2C349.74 826.2 348.236 824.28 348.236 821C348.236 817.96 349.724 815.976 352.012 815.976C353.82 815.976 354.7 816.952 355.228 818.824L356.316 818.552C355.756 816.36 354.428 814.936 352.028 814.936C349.068 814.936 347.1 817.448 347.1 821.032C347.1 824.808 349.036 827.224 352.028 827.224ZM358.864 827H366.272V825.96H360V821.256H364.432V820.232H360V816.216H365.936V815.16H358.864V827Z" fill="white"/>
</g>
<defs>
<linearGradient id="paint0_linear_218_689" x1="93.3215" y1="-745.543" x2="727.333" y2="-618.776" gradientUnits="userSpaceOnUse">
<stop stop-color="#FFA01D"/>
<stop offset="0.22" stop-color="#FFA01D"/>
<stop offset="0.44" stop-color="#32A4C9"/>
<stop offset="0.74" stop-color="#0089C8"/>
<stop offset="1" stop-color="#0072B6"/>
</linearGradient>
<linearGradient id="paint1_linear_218_689" x1="347.429" y1="-329.793" x2="1005.46" y2="464.151" gradientUnits="userSpaceOnUse">
<stop stop-color="#FFA01D"/>
<stop offset="0.22" stop-color="#FFA01D"/>
<stop offset="0.44" stop-color="#32A4C9"/>
<stop offset="0.74" stop-color="#0089C8"/>
<stop offset="1" stop-color="#0072B6"/>
</linearGradient>
<clipPath id="clip0_218_689">
<rect width="390" height="845" fill="white"/>
</clipPath>
</defs>
</svg>
