<svg xmlns="http://www.w3.org/2000/svg" xmlns:xlink="http://www.w3.org/1999/xlink" width="60" height="65" viewBox="0 0 60 65">
  <defs>
    <clipPath id="clip-path">
      <path id="Path_354" data-name="Path 354" d="M0,1.067H20.415V-39.685H0Z" transform="translate(0 39.685)" fill="#01285b"/>
    </clipPath>
  </defs>
  <g id="Group_541" data-name="Group 541" transform="translate(-611 -2482)">
    <path id="Path_578" data-name="Path 578" d="M0,0H60L40,65H0Z" transform="translate(611 2482)" fill="#ffb71e"/>
    <g id="Group_435" data-name="Group 435" transform="translate(627.748 2493.896)">
      <g id="Group_336" data-name="Group 336" transform="translate(0 0)" clip-path="url(#clip-path)">
        <g id="Group_334" data-name="Group 334" transform="translate(0 0)">
          <path id="Path_352" data-name="Path 352" d="M.508,0A1.528,1.528,0,0,0-1.44.939L-3.569,7.011-8.187,9.522c-2.885-.055-.717,0-7.023,0a3.656,3.656,0,0,0-3.674,3.607v11.23a1.53,1.53,0,0,0,1.529,1.529,1.53,1.53,0,0,0,1.529-1.529V13.136h0a.331.331,0,0,1,.333-.33.331.331,0,0,1,.33.332V38.833a1.835,1.835,0,0,0,1.834,1.835,1.835,1.835,0,0,0,1.835-1.835V24.171h.792V38.833a1.835,1.835,0,0,0,1.834,1.835,1.835,1.835,0,0,0,1.835-1.835V12.44h-.033L-1.579,9.4a1.524,1.524,0,0,0,.7-.832L1.444,1.95A1.528,1.528,0,0,0,.508,0" transform="translate(18.884 0.084)" fill="#01285b"/>
        </g>
        <g id="Group_335" data-name="Group 335" transform="translate(4.618 2.26)">
          <path id="Path_353" data-name="Path 353" d="M.083,0A3.168,3.168,0,1,1-3.085,3.168,3.168,3.168,0,0,1,.083,0" transform="translate(3.085)" fill="#01285b"/>
        </g>
      </g>
    </g>
  </g>
</svg>
