<svg fill="none" height="1117" viewBox="0 0 1728 1117" width="1728" xmlns="http://www.w3.org/2000/svg" xmlns:xlink="http://www.w3.org/1999/xlink"><linearGradient id="a" gradientUnits="userSpaceOnUse" x1="977.162" x2="1828.24" y1="-49.1851" y2="1038.3"><stop offset="0" stop-color="#ff681d"/><stop offset=".22" stop-color="#ff8034"/><stop offset=".44" stop-color="#32a0c5"/><stop offset=".74" stop-color="#0085c4"/><stop offset="1" stop-color="#0072b2"/></linearGradient><path d="m0 0h1728v1117h-1728z" fill="#fff"/><path d="m0 0h1728v1117h-1728z" fill="#ff681d" fill-opacity=".04"/><path d="m1394.06 0c-14.64 50.4122-35.92 100.266-20.52 152.783 17.29 59.112 55.58 111.24 83.2 165.723 13.47 26.548 43.67 87.116-2.41 102.121-9.56 3.103-20.32 1.427-29.1-3.452-31.77-17.599-26.94-58.623-39.31-87.944-16.81-39.907-47.01-75.264-81.25-101.274-24.63-18.696-53.16-32.603-75.1-54.712-21.58-21.739-34.24-50.592-43.58-79.3444-9.92-30.4728-16.34-61.9758-19.13-93.9006h-252.541c-16.222 167.549 109.891 252.221 234.201 326.088s138.73 163.688 104.5 268.443c-38.33 117.316-194.55 178.363-207.19 295.469-12.64 117.11 180.16 227 180.16 227h501.71v-1117z" fill="url(#a)"/></svg>