<svg fill="none" height="73" viewBox="0 0 50 73" width="50" xmlns="http://www.w3.org/2000/svg"><g fill="#b5bd00"><path d="m21.3963 23.9951h-14.83039c-1.76188.0226-3.44281.7434-4.67376 2.0041-1.230949 1.2608-1.9113174 2.9584-1.89173886 4.7204v35.4561c-.01957854 1.7619.66078986 3.4596 1.89173886 4.7203 1.23095 1.2608 2.91188 1.9815 4.67376 2.0041h14.83039c1.7619-.0226 3.4429-.7433 4.6738-2.0041 1.231-1.2607 1.9113-2.9584 1.8917-4.7203v-35.4561c.0196-1.762-.6607-3.4596-1.8917-4.7204-1.2309-1.2607-2.9119-1.9815-4.6738-2.0041zm-7.4091 3.8268h-3.0565v-1.3815h6.1131v1.3815zm11.5416 38.3599c.0197 1.1134-.4031 2.1892-1.1755 2.9914-.7723.8022-1.8314 1.2653-2.9447 1.2878h-14.84269c-1.11285-.0241-2.17091-.4877-2.94297-1.2896-.77205-.8018-1.19531-1.8766-1.17728-2.9896v-35.4561c-.01803-1.113.40523-2.1878 1.17728-2.9897.77206-.8018 1.83012-1.2654 2.94297-1.2895h1.93174v2.6042c0 .3242.12882.6352.3581.8645.22929.2293.54027.3581.86453.3581h8.55842c.3242 0 .6352-.1288.8645-.3581s.3581-.5403.3581-.8645v-2.6103h1.895c1.1134.0225 2.1724.4856 2.9448 1.2878s1.1951 1.8779 1.1755 2.9914z"/><path d="m32.4002 12.4414h-14.8182c-.8734.0096-1.7364.1911-2.5397.5343-.8033.3431-1.5311.8411-2.1419 1.4655s-1.0927 1.3631-1.418 2.1737c-.3253.8107-.4878 1.6775-.4781 2.5509v2.0785c0 .3243.1288.6352.3581.8645s.5403.3581.8645.3581c.3243 0 .6353-.1288.8646-.3581s.3581-.5402.3581-.8645v-2.0785c-.0197-1.1134.403-2.1892 1.1754-2.9913.7724-.8022 1.8314-1.2654 2.9448-1.2878h1.9256v2.6041c0 .3243.1289.6353.3581.8646.2293.2293.5403.3581.8646.3581h8.5583c.3243 0 .6353-.1288.8646-.3581s.3581-.5403.3581-.8646v-2.6041h1.9011c1.114.0224 2.1736.4854 2.947 1.2874.7733.802 1.1974 1.8777 1.1794 2.9917v35.4562c.0164 1.1135-.4082 2.1883-1.1812 2.99-.7731.8016-1.8318 1.2651-2.9452 1.2892h-1.95c-.3243 0-.6353.1288-.8646.3581-.2292.2292-.3581.5402-.3581.8645 0 .3242.1289.6352.3581.8645.2293.2293.5403.3581.8646.3581h1.95c.8743-.0088 1.7383-.1897 2.5426-.5324s1.5333-.8405 2.1452-1.4649 1.0949-1.3633 1.4213-2.1744.4898-1.6785.4809-2.5527v-35.4562c.0089-.8742-.1545-1.7416-.4809-2.5527s-.8094-1.55-1.4213-2.1744-1.3409-1.1222-2.1452-1.4649-1.6683-.5236-2.5426-.5324zm-4.3708 3.8268h-6.1132v-1.3815h6.1132z"/><path d="m43.4337.826172h-14.8427c-1.7645.019354-3.4492.738518-4.6838 1.999438-1.2345 1.26092-1.918 2.96042-1.9 4.725v2.33521c0 .32428.1288.63528.3581.86448.2293.2293.5402.3581.8645.3581s.6352-.1288.8645-.3581c.2293-.2292.3581-.5402.3581-.86448v-2.33521c-.018-1.11296.4053-2.18781 1.1773-2.98964.7721-.80184 1.8301-1.26546 2.943-1.28955h1.9317v2.60419c0 .32426.1288.63524.3581.86453s.5403.3581.8645.3581h8.5584c.3243 0 .6353-.12881.8646-.3581.2292-.22929.358-.54027.358-.86453v-2.60419h1.9257c1.1134.02249 2.1724.48561 2.9448 1.2878s1.1951 1.87796 1.1754 2.99139v35.45609c.0181 1.113-.4052 2.1878-1.1773 2.9897-.772.8018-1.8301 1.2654-2.9429 1.2895h-1.834c-.3242 0-.6352.1288-.8645.3581s-.3581.5403-.3581.8645c0 .3243.1288.6353.3581.8646s.5403.3581.8645.3581h1.834c1.7613-.0242 3.4413-.7455 4.6719-2.0059s1.9115-2.9571 1.8936-4.7186v-35.45609c.0179-1.76144-.663-3.45819-1.8936-4.71859-1.2306-1.26039-2.9106-1.981676-4.6719-2.005848zm-4.3709 3.826818h-6.1131v-1.38157h6.1131z"/></g></svg>