<svg fill="none" height="1117" viewBox="0 0 1728 1117" width="1728" xmlns="http://www.w3.org/2000/svg" xmlns:xlink="http://www.w3.org/1999/xlink"><linearGradient id="a" gradientUnits="userSpaceOnUse" x1="817.944" x2="1525.15" y1="1133.94" y2="230.814"><stop offset="0" stop-color="#959d00"/><stop offset=".33" stop-color="#329cc1"/><stop offset=".52" stop-color="#0081c0"/><stop offset=".85" stop-color="#0072ae"/><stop offset="1" stop-color="#0066b2"/></linearGradient><clipPath id="b"><path d="m0 0h1728v1117h-1728z"/></clipPath><g clip-path="url(#b)"><path d="m0 0h1728v1117h-1728z" fill="#fff"/><path d="m0 0h1728v1117h-1728z" fill="#b5bd00" fill-opacity=".05"/><path d="m1727.99 0h-918.075c-8.859 0-12.649 45.0042-12.72 51.139-.948 68.691 32.711 127.338 48.889 192.168 9.475 37.709-.852 58.056-30.603 80.534-13.123 10.138-26.435 24.136-24.066 40.456 3.364 24.161 32.143 34.701 31.669 62.059-.284 16.32-10.872 30.342-20.039 43.844-17.907 26.315-32.048 55.639-37.685 87.047-9.759 54.147 10.706 113.695 62.249 138.897 14.828 7.249 32.237 11.962 41.688 25.511 7.959 11.369 8.196 26.576 5.14 40.125-9.806 43.559-36.098 81.197-46.781 124.425-9.475 38.395-5.756 73.925 11.843 109.099 16.226 32.616 37.899 70.016 22.266 107.016-2.487 5.9-6.253 11.63-11.843 14.21-2.249.96-4.662 1.48-7.106 1.52h885.174z" fill="url(#a)"/></g></svg>