<svg fill="none" height="73" viewBox="0 0 73 73" width="73" xmlns="http://www.w3.org/2000/svg"><g fill="#b5bd00"><path d="m36.2574 69.8703c-7.751-.0201-15.2554-2.7262-21.2356-7.6574-5.98006-4.9313-10.0661-11.7829-11.56235-19.3882-1.49626-7.6052-.31022-15.494 3.35617-22.3231 3.66638-6.8291 9.58648-12.17634 16.75218-15.13119 7.1658-2.95485 15.1342-3.33467 22.5485-1.07478 7.4143 2.25988 13.8161 7.01977 18.1154 13.46917s6.2303 14.1896 5.4642 21.9027c-.7661 7.7132-4.1819 14.9223-9.6658 20.4-3.1197 3.1218-6.8264 5.5952-10.9065 7.2776-4.0801 1.6825-8.4528 2.5407-12.8662 2.5252zm25.7898-59.2366c-5.086-5.08026-11.5639-8.53867-18.6149-9.93812s-14.3587-.6771191-20.9993 2.07569c-6.6406 2.75281-12.316 7.41253-16.30894 13.39013-3.99292 5.9777-6.12406 13.0049-6.12406 20.1935 0 7.1885 2.13114 14.2157 6.12406 20.1934 3.99294 5.9776 9.66834 10.6373 16.30894 13.3901 6.6406 2.7529 13.9483 3.4752 20.9993 2.0757 7.051-1.3994 13.5289-4.8578 18.6149-9.9381 3.3899-3.3709 6.08-7.3786 7.9157-11.7928s2.7807-9.1477 2.7807-13.9283c0-4.7807-.945-9.5142-2.7807-13.9284-1.8357-4.4141-4.5258-8.4219-7.9157-11.7928z"/><path d="m56.043 16.6201c-5.2576-5.2283-12.3708-8.16307-19.7855-8.16307s-14.5279 2.93477-19.7855 8.16307c-2.2884 2.2753-4.161 4.9335-5.5331 7.8543-.151.3392-.1633.7241-.0342 1.0723.129.3482.3892.6321.7248.7909.3357.1589.7202.1801 1.0713.0592s.641-.3743.8076-.7062c2.5528-5.4351 6.9717-9.7734 12.4528-12.2258 5.4812-2.4525 11.6605-2.8561 17.4141-1.1376 5.7536 1.7186 10.6993 5.4452 13.9375 10.502 3.2381 5.0568 4.5538 11.1079 3.7075 17.0528-.8463 5.9448-3.7982 11.3885-8.3189 15.3408-4.5206 3.9523-10.3098 6.1508-16.3144 6.1955-6.0046.0448-11.8258-2.0672-16.4049-5.9517-4.579-3.8846-7.6117-9.2836-8.5465-15.2152-.0687-.3628-.2755-.6847-.5768-.8981s-.6736-.3017-1.03857-.2462c-.36501.0555-.69429.2504-.91856.5436-.22427.2933-.32607.6622-.28396 1.0289 1.03901 6.5766 4.39489 12.5651 9.46189 16.8845 5.067 4.3193 11.5112 6.6849 18.1693 6.6698 5.5234.0125 10.9261-1.6148 15.5237-4.6758 4.5975-3.061 8.183-7.4178 10.302-12.5185 2.119-5.1008 2.6761-10.7157 1.6008-16.1333-1.0753-5.4177-3.7346-10.3942-7.6409-14.299"/><path d="m10.0401 33.6307c.301-.0006.594-.0967.8368-.2745.2429-.1778.4231-.4281.5146-.7148.0916-.2867.0897-.5951-.0051-.8807-.0949-.2857-.278-.5338-.5229-.7088-.2449-.1749-.5391-.2676-.84-.2647-.30099.0028-.59327.1012-.8348.2807-.24153.1796-.41985.4312-.50927.7186s-.08533.5957.01167.8807c.09804.2801.2803.523.5218.6955s.53044.2662.8272.268z"/><path d="m55.6395 35.0531c.0559-.2881.0212-.5864-.0992-.854-.1203-.2676-.3206-.4914-.5732-.6407-.249-.146-.5364-.2135-.8244-.1937-.2881.0199-.5634.1262-.7901.3051-.2298.1843-.3967.4354-.4776.7187-.0809.2832-.0718.5846.026.8625.0977.2779.2794.5185.5199.6887.2405.1701.5279.2614.8225.2611.3288-.003.6467-.1185.9007-.3273.254-.2089.4289-.4984.4954-.8204z"/><path d="m32.3774 46.594h7.7643c2.1413 0 4.03 1.6402 4.5953 3.9185-2.4172 1.3289-5.1039 2.0932-7.8586 2.2355-2.8346.1714-5.666-.3828-8.2268-1.6102-.3084-.1542-.6039-.3212-.8994-.4925.5268-2.3469 2.424-4.0513 4.6252-4.0513zm17.6614-23.9825c-2.5281-2.5266-5.7042-4.3068-9.1789-5.1446-3.4746-.8377-7.113-.7006-10.5148.3963-3.4017 1.0968-6.4349 3.111-8.7657 5.8207-2.3307 2.7097-3.8687 6.0099-4.4447 9.5374-.5759 3.5275-.1675 7.1455 1.1804 10.4559 1.3478 3.3103 3.5828 6.1846 6.459 8.3065s6.2821 3.4091 9.8428 3.72c3.5606.311 7.138-.3665 10.3385-1.9578 4.4369-2.2305 7.8678-6.0545 9.6058-10.7065.233-.4874.3064-1.0359.2099-1.5674-.07-.2091-.1895-.3981-.3483-.551s-.3523-.2651-.5639-.3269c-.184-.0646-.38-.0878-.574-.0678s-.3811.0826-.5481.1834c-.531.3383-.7537.985-.9764 1.5717-.9217 2.4726-2.4399 4.6792-4.4196 6.4239-.5435-1.4832-1.5226-2.7676-2.8088-3.6846-1.2862-.9171-2.8195-1.4241-4.3988-1.4545h-7.7815c-3.2076 0-6.017 2.107-7.2033 5.1648-1.7851-1.6231-3.2024-3.6093-4.1567-5.8252-.9544-2.2159-1.4236-4.6104-1.3764-7.0226.107-3.7045 1.4474-7.2674 3.8088-10.1237 2.3614-2.8564 5.6086-4.8428 9.227-5.6443 3.6183-.8016 7.4007-.3725 10.7475 1.2194 3.3468 1.5918 6.0665 4.2552 7.728 7.568.0843.1687.2011.3192.3436.4428s.308.2179.4869.2775c.179.0597.3679.0835.5561.0701.1881-.0133.3718-.0636.5405-.148.1688-.0844.3192-.2011.4428-.3436s.2179-.308.2776-.4869c.0596-.179.0834-.368.0701-.5561-.0134-.1882-.0637-.3719-.1481-.5406-.9337-1.8579-2.1615-3.5528-3.6359-5.0192"/><path d="m40.8182 32.9721c.0026.9035-.263 1.7874-.7631 2.5398-.5001.7525-1.2122 1.3396-2.0462 1.6871-.8339.3475-1.7522.4398-2.6386.2651-.8865-.1747-1.7011-.6085-2.3409-1.2465-.6397-.6379-1.0758-1.4513-1.253-2.3372-.1772-.886-.0875-1.8045.2576-2.6395.3452-.8349.9303-1.5486 1.6813-2.0509.7511-.5022 1.6342-.7702 2.5377-.7702 1.2089-.0012 2.3688.4777 3.2248 1.3313s1.3381 2.0122 1.3404 3.221zm-12.1668 0c-.0042 1.5054.4383 2.9782 1.2717 4.2319.8333 1.2537 2.02 2.2319 3.4096 2.8107 1.3897.5788 2.9199.7323 4.3968.4409s2.8342-1.0145 3.8998-2.0778c1.0657-1.0633 1.7919-2.4189 2.0866-3.8951.2947-1.4763.1448-3.0068-.4309-4.3978-.5757-1.3909-1.5512-2.5798-2.803-3.416-1.2518-.8361-2.7236-1.282-4.229-1.2812-2.0135-.0011-3.945.797-5.3704 2.2191-1.4253 1.4222-2.2278 3.3519-2.2312 5.3653z"/></g></svg>