<svg fill="none" height="1194" viewBox="0 0 834 1194" width="834" xmlns="http://www.w3.org/2000/svg" xmlns:xlink="http://www.w3.org/1999/xlink"><linearGradient id="a"><stop offset="0" stop-color="#ffa01d"/><stop offset=".22" stop-color="#ffa01d"/><stop offset=".44" stop-color="#32a4c9"/><stop offset=".74" stop-color="#0089c8"/><stop offset="1" stop-color="#0072b6"/></linearGradient><linearGradient id="b" gradientUnits="userSpaceOnUse" x1="195.288" x2="1487.28" xlink:href="#a" y1="-1054.71" y2="-664.225"/><linearGradient id="c" gradientUnits="userSpaceOnUse" x1="738.687" x2="1537.44" xlink:href="#a" y1="-466.556" y2="990.226"/><mask id="d" height="1194" maskUnits="userSpaceOnUse" width="834" x="0" y="0"><path d="m0 0h834v1194h-834z" fill="url(#b)"/></mask><path d="m0 0h834v1194h-834z" fill="#fff"/><path d="m0 0h834v1194h-834z" fill="#ffb81d" fill-opacity=".05"/><g mask="url(#d)"><path d="m260.074-38.1088h863.476c4.99 0 18.42 20.8999 20.23 23.3309 14.91 19.80864 25.49 40.9197 31.42 62.6996 6.92 26.0699 7.67 55.8903-3.87 81.3993-15.14 33.55-40.73 64.075-52.21 98.714-11.49 34.638-22.32 97.096 21.47 125.168 4.29 2.96 9.79 5.025 15.84 5.94 30.72 3.828 85.61-32.769 107.55-44.088 38.51-19.855 75.88-40.645 114.4-60.5 52.87-27.235 106.1-57.991 171.41-71.114 95.25-19.151 148.17 23.452 232.07 40.986 27.27 5.709 58.33 6.16 83.33-3.058 14.74-5.423 26.49-13.849 36.43-22.869 41.03-37.191 56.32-85.316 69.91-129.6564 1.66-5.709 21.24-107.0404 20.56-107.0404h311.96c-220.33 66.2856-264.23 249.4348-448.02 341.9768-50.34 25.509-105.38 58.399-169.16 67.43-24.41 3.465-53.43-.253-67.15-14.058-16.52-16.599-9.34-38.643-25.25-56.012-14.59-15.917-38.88-27.588-66.99-30.228-25.32-2.387-51.15 1.1-75.39 6.446-75.72 16.698-135.91 51.59-193.33 86.9-43.89 27.016-77.49 60.566-135.04 76.284-19.54 5.335-41.55 8.261-61.87 4.477-84.754-15.763-42.26-124.387-22.1-161.589 17.46-32.24 40.95-62.864 59.66-94.786 7.61-12.947 14.52-26.4 15.2-40.238 2.7-53.9766-90.18-71.3014-156.21-64.6135-87.895 8.91-128.195 75.7015-174.627 117.9745-24.612 22.418-55.672 43.395-95.623 51.7-71.809 14.926-119.903-19.536-127.963-64.042-7.029-39.138-1.13-79.86-35.597-114.3994-34.466-34.5398-86.416-60.9947-140.127-81.77356-33.719-13.12294-83.308-31.36084-124.389-31.36084z" fill="url(#c)"/></g></svg>