<svg id="Group_531" data-name="Group 531" xmlns="http://www.w3.org/2000/svg" width="25.175" height="40" viewBox="0 0 25.175 40">
  <path id="Path_478" data-name="Path 478" d="M-624.106,150.922v27.972h25.175V150.922Zm6.993,25.175a1.4,1.4,0,0,1-1.4-1.4,1.4,1.4,0,0,1,1.4-1.4,1.4,1.4,0,0,1,1.4,1.4,1.4,1.4,0,0,1-1.4,1.4Zm0-5.594a1.4,1.4,0,0,1-1.4-1.4,1.4,1.4,0,0,1,1.4-1.4,1.4,1.4,0,0,1,1.4,1.4,1.4,1.4,0,0,1-1.4,1.4Zm0-5.594a1.4,1.4,0,0,1-1.4-1.4,1.4,1.4,0,0,1,1.4-1.4,1.4,1.4,0,0,1,1.4,1.4,1.4,1.4,0,0,1-1.4,1.4Zm5.594,11.189a1.4,1.4,0,0,1-1.4-1.4,1.4,1.4,0,0,1,1.4-1.4,1.4,1.4,0,0,1,1.4,1.4,1.4,1.4,0,0,1-1.4,1.4Zm0-5.594a1.4,1.4,0,0,1-1.4-1.4,1.4,1.4,0,0,1,1.4-1.4,1.4,1.4,0,0,1,1.4,1.4,1.4,1.4,0,0,1-1.4,1.4Zm0-5.594a1.4,1.4,0,0,1-1.4-1.4,1.4,1.4,0,0,1,1.4-1.4,1.4,1.4,0,0,1,1.4,1.4,1.4,1.4,0,0,1-1.4,1.4Zm5.594,11.189a1.4,1.4,0,0,1-1.4-1.4,1.4,1.4,0,0,1,1.4-1.4,1.4,1.4,0,0,1,1.4,1.4,1.4,1.4,0,0,1-1.4,1.4Zm0-5.594a1.4,1.4,0,0,1-1.4-1.4,1.4,1.4,0,0,1,1.4-1.4,1.4,1.4,0,0,1,1.4,1.4,1.4,1.4,0,0,1-1.4,1.4Zm0-5.594a1.4,1.4,0,0,1-1.4-1.4,1.4,1.4,0,0,1,1.4-1.4,1.4,1.4,0,0,1,1.4,1.4,1.4,1.4,0,0,1-1.4,1.4Zm1.4-5.594h-13.986v-2.8h13.986Zm0,0" transform="translate(624.106 -150.922)" fill="#ffb71e"/>
  <path id="Path_479" data-name="Path 479" d="M-596.106,485.957a4.2,4.2,0,0,0,4.2,4.2h1.4v-9.231h-5.594Zm0,0" transform="translate(598.717 -450.153)" fill="#ffb71e"/>
  <path id="Path_480" data-name="Path 480" d="M-506.106,490.153h7.366a4.2,4.2,0,0,0,4.2-4.2v-5.035h-11.562Zm0,0" transform="translate(517.108 -450.153)" fill="#ffb71e"/>
</svg>
